<svg xmlns="http://www.w3.org/2000/svg" width="43" height="40" viewBox="0 0 43 40">
    <g fill="none" fill-rule="evenodd">
        <g>
            <g>
                <g>
                    <g>
                        <path fill="#FFE07D" d="M27.95 14.583h9.51v3.073c0 .76-.666 1.38-1.482 1.38h-3.421l-2.04.96-2.567-.96v-4.453zM29.433 10.123h6.545c.816 0 1.482.621 1.482 1.38v2.284h-9.51v-2.283c0-.76.667-1.38 1.483-1.38z" transform="translate(-300 -650) translate(165 642) translate(135 8) translate(2.688 3.438)"/>
                        <path fill="#FFA95C" d="M27.951 13.099L37.46 13.099 37.46 15.269 27.951 15.269z" transform="translate(-300 -650) translate(165 642) translate(135 8) translate(2.688 3.438)"/>
                        <path fill="#FFC269" d="M35.475 13.1H37.46v-1.596c0-.52-.312-.973-.767-1.208-.213-.109-.457-.173-.715-.173h-1.985c.816 0 1.482.62 1.482 1.38V13.1z" transform="translate(-300 -650) translate(165 642) translate(135 8) translate(2.688 3.438)"/>
                        <path fill="#FF8126" d="M35.475 15.269L36.693 15.269 37.46 15.269 37.46 14.583 37.46 13.787 37.46 13.099 36.693 13.099 35.475 13.099 35.475 13.787 35.475 14.583z" transform="translate(-300 -650) translate(165 642) translate(135 8) translate(2.688 3.438)"/>
                        <path fill="#FFC269" d="M35.475 15.27v2.386c0 .76-.666 1.38-1.482 1.38h1.985c.258 0 .502-.061.715-.17.455-.237.767-.69.767-1.21V15.27H35.475z" transform="translate(-300 -650) translate(165 642) translate(135 8) translate(2.688 3.438)"/>
                        <path fill="#6F6571" d="M27.95 19.037h4.607v1.97c0 .474-.417.86-.923.86H16.636c0-1.24 0-1.87 1.02-1.87l2.029-.002c1.278-.002 2.115-.306 2.583-.959h5.683z" transform="translate(-300 -650) translate(165 642) translate(135 8) translate(2.688 3.438)"/>
                        <path fill="#FFE07D" d="M18.445 21.867h13.189c.773 1.253 1.395 2.759.859 5.64-.898-2.841-10.012-1.708-10.948 1.57H11.488c-.38-.801-.739-1.593-1.053-2.392h2.835c5.735-2.013 3.89-1.116 5.175-4.818z" transform="translate(-300 -650) translate(165 642) translate(135 8) translate(2.688 3.438)"/>
                        <path fill="#ECEAEC" d="M17.631 14.167c.197.963.464 1.912.763 2.72l2.899 1.056 3.233-1.057c-.114-5.69-2.4-8.42-4.344-9.303-.7-.496-1.419-.683-1.419-.683s-.944 1.405-.993 1.405c-.363.804-.5 1.852-.477 2.984l.338 2.878z" transform="translate(-300 -650) translate(165 642) translate(135 8) translate(2.688 3.438)"/>
                        <path fill="#FFA95C" d="M24.526 16.886h-6.132c-1.413.143-3.15 1.144-3.15 4.243v3.248l1.392.771 1.809-.77v-2.511c0-1.24 0-1.87 1.019-1.87l2.03-.002c1.277-.002 2.115-.306 2.583-.959.361-.503.5-1.213.449-2.15z" transform="translate(-300 -650) translate(165 642) translate(135 8) translate(2.688 3.438)"/>
                        <path fill="#DAD8DB" d="M24.526 16.886c-.114-5.69-2.4-8.42-4.344-9.303-.288.19-.609.344-.961.46 1.722 1.211 3.448 3.918 3.546 8.843h1.759z" transform="translate(-300 -650) translate(165 642) translate(135 8) translate(2.688 3.438)"/>
                        <path fill="#FF8126" d="M24.526 16.886h-1.759c.052.937-.087 1.647-.448 2.15-.295.412-.74.76-1.349.96h.524c1.278-.003 2.115-.307 2.583-.96.361-.503.5-1.213.449-2.15z" transform="translate(-300 -650) translate(165 642) translate(135 8) translate(2.688 3.438)"/>
                        <path fill="#FFA95C" d="M21.545 29.077c0-2.941 2.506-5.285 5.598-5.285 2.515 0 4.643 1.552 5.35 3.714.145.444.23.915.246 1.404.006.191-.135.167-.327.167-3.622 0-7.245-.002-10.867 0z" transform="translate(-300 -650) translate(165 642) translate(135 8) translate(2.688 3.438)"/>
                        <path fill="#6F6571" d="M22.953 29.077h8.52c-.121 2.137-1.982 3.835-4.26 3.835-2.277 0-4.138-1.698-4.26-3.835zM1.316 28.232l7.33 1.57c-.465 1.883-2.484 3.06-4.508 2.627-2.025-.434-3.288-2.313-2.822-4.197z" transform="translate(-300 -650) translate(165 642) translate(135 8) translate(2.688 3.438)"/>
                        <path fill="#ECEAEC" d="M.767 26.32c1.036-1.402 2.835-2.215 4.715-2.04 3.316.652 4.395 2.496 4.611 4.795-.004.313-.04.627-.113.941-.021.088-.083.052-.186.03l-1.147-.245-7.33-1.569-.55-.117L0 27.95c.147-.601.412-1.15.767-1.63z" transform="translate(-300 -650) translate(165 642) translate(135 8) translate(2.688 3.438)"/>
                        <path fill="#FFA95C" d="M5.476 24.272l2.961-9.532 1.334-.555 1.49.555c-1.958 5.052-1.411 8.579-.089 11.945.316.8.675 1.59 1.053 2.392h-2.13l-4.619-4.805z" transform="translate(-300 -650) translate(165 642) translate(135 8) translate(2.688 3.438)"/>
                        <path fill="#FBE5D6" d="M14.646 4.053l3.474-.689c.353.03 1.361.818 1.361 1.311l-.739 3.497c-.308.086-.635.133-.972.133-1.85 0-3.35-1.398-3.35-3.12 0-.4.079-.782.226-1.132z" transform="translate(-300 -650) translate(165 642) translate(135 8) translate(2.688 3.438)"/>
                        <path fill="#FFA95C" d="M13.524 4.053c0-2.224 1.893-4.024 4.23-4.024 2.338 0 4.231 1.8 4.231 4.024 0 1.468-.64 2.772-1.803 3.53-.415.273-.897.474-1.44.59V4.674c0-.493-.27-.592-.622-.622h-4.596z" transform="translate(-300 -650) translate(165 642) translate(135 8) translate(2.688 3.438)"/>
                        <path fill="#FF8126" d="M15.541.624c.643-.378 1.402-.595 2.214-.595 2.337 0 4.23 1.8 4.23 4.024 0 1.468-.64 2.772-1.803 3.53-.295.193-.622.35-.98.466.858-.81 1.324-1.971 1.324-3.252 0-2.324-1.98-4.207-4.423-4.207-.19 0-.378.01-.562.034z" transform="translate(-300 -650) translate(165 642) translate(135 8) translate(2.688 3.438)"/>
                        <path fill="#6F6571" d="M15.244 24.377h3.201v1.876c0 .402-.235.432-.581.432H13.27c-.092-1.882 1.133-2.308 1.974-2.308z" transform="translate(-300 -650) translate(165 642) translate(135 8) translate(2.688 3.438)"/>
                        <path fill="#FF8126" d="M11.172 26.685c-1.322-3.366-1.87-6.893.09-11.945H9.756c-1.96 5.052-1.415 8.579-.09 11.945.314.8.673 1.59 1.053 2.392h1.506c-.378-.801-.737-1.593-1.053-2.392z" transform="translate(-300 -650) translate(165 642) translate(135 8) translate(2.688 3.438)"/>
                        <path fill="#DAD8DB" d="M10.093 29.075l-4.61-4.795c-.477-.044-.95-.026-1.404.051l4.43 4.61c-.003.268-.031.54-.087.813l.225.047 1.147.245c.103.022.165.058.186-.03.073-.314.109-.628.113-.94z" transform="translate(-300 -650) translate(165 642) translate(135 8) translate(2.688 3.438)"/>
                        <path fill="#FFC269" d="M31.634 21.867H18.445v1.08h10.837c.882 0 1.3.354 1.645 1.072.297.623.303.826.438 1.578.506.547.895 1.195 1.128 1.91.536-2.881-.086-4.387-.859-5.64z" transform="translate(-300 -650) translate(165 642) translate(135 8) translate(2.688 3.438)"/>
                        <path fill="#FF8126" d="M31.365 25.597c-1.026-1.108-2.536-1.805-4.222-1.805-.423 0-.833.044-1.229.126 2.524.53 4.289 2.603 4.365 4.992.005.132-.06.161-.162.167h2.295c.192 0 .333.024.327-.167-.015-.489-.1-.96-.246-1.404l-.013-.038v-.002c-.235-.698-.617-1.332-1.115-1.87z" transform="translate(-300 -650) translate(165 642) translate(135 8) translate(2.688 3.438)"/>
                        <path fill="#5D5360" d="M8.422 29.754l-7.106-1.522c-.079.312-.107.627-.094.933l5.64 1.207.223.048c-.21.855-.742 1.565-1.449 2.045 1.442-.237 2.662-1.251 3.01-2.664l-.224-.047zM30.117 29.077h-7.164c.024.418.115.82.263 1.196H29.564c-.054.935-.438 1.784-1.045 2.446 1.647-.503 2.858-1.933 2.955-3.642h-1.357zM32.557 21.008v-1.971h-2.895v1.97c0 .474-.417.86-.923.86h2.895c.506 0 .923-.386.923-.86z" transform="translate(-300 -650) translate(165 642) translate(135 8) translate(2.688 3.438)"/>
                        <path fill="#FFE07D" d="M7.82 11.739l3.997 1.229c.197.163-.025 1.826-.158 1.772H7.012v-2.737c0-.539.301-.42.808-.264z" transform="translate(-300 -650) translate(165 642) translate(135 8) translate(2.688 3.438)"/>
                        <path fill="#FBE5D6" d="M13.68 14.74H11.66c-1.085 0-1.117-1.675.158-1.772l1.863-.14.5.985-.5.927z" transform="translate(-300 -650) translate(165 642) translate(135 8) translate(2.688 3.438)"/>
                        <path fill="#FFA95C" d="M17.293 11.289l.67-.535c1.674-1.343 3.792.923 1.552 2.275l-1.884 1.138-.949.573H13.68V12.83l1.866-.142 1.747-1.398z" transform="translate(-300 -650) translate(165 642) translate(135 8) translate(2.688 3.438)"/>
                        <path fill="#FEC9A3" d="M13.68 14.74v-.927h-2.638c-.064 0-.124-.004-.182-.016-.062.462.218.943.8.943h2.02z" transform="translate(-300 -650) translate(165 642) translate(135 8) translate(2.688 3.438)"/>
                        <path fill="#FF8126" d="M19.515 13.03c1.355-.82 1.116-1.972.344-2.457.062.497-.192 1.068-.961 1.532l-1.468.885-.414.252-.949.571H13.68v.927h3.002l.949-.573 1.884-1.138z" transform="translate(-300 -650) translate(165 642) translate(135 8) translate(2.688 3.438)"/>
                        <path fill="#FFC269" d="M11.817 12.968l-1.608-.494c-.539.538-.8 1.584-.453 2.266h1.903c-.58 0-.86-.481-.799-.943.056-.4.366-.783.957-.83z" transform="translate(-300 -650) translate(165 642) translate(135 8) translate(2.688 3.438)"/>
                    </g>
                </g>
            </g>
        </g>
    </g>
</svg>
