<?xml version="1.0" encoding="utf-8"?>
<!-- Generator: Adobe Illustrator 25.0.1, SVG Export Plug-In . SVG Version: 6.00 Build 0)  -->
<svg version="1.1" id="Layer_1" xmlns="http://www.w3.org/2000/svg" xmlns:xlink="http://www.w3.org/1999/xlink" x="0px" y="0px"
	 viewBox="0 0 22.5 22.5" style="enable-background:new 0 0 22.5 22.5;" xml:space="preserve">
<style type="text/css">
	.st0{filter:url(#zs53xoe3la);}
	.st1{fill-rule:evenodd;clip-rule:evenodd;fill:#00529B;}
</style>
<filter  id="zs53xoe3la">
	<feColorMatrix  in="SourceGraphic" values="0 0 0 0 0.400000 0 0 0 0 0.666667 0 0 0 0 0.152941 0 0 0 1.000000 0">
		</feColorMatrix>
</filter>
<g>
	<g>
		<g>
			<g>
				<g transform="translate(-318 -232) translate(165 220) translate(153 12) translate(2.053 2.053)" class="st0">
					<g>
						<path class="st1" d="M9.9,1c4.9,0,9,4,9,9s-4,9-9,9s-9-4-9-9S5,1,9.9,1z M9.9,2.1c-4.4,0-7.9,3.5-7.9,7.9s3.5,7.9,7.9,7.9
							s7.9-3.5,7.9-7.9S14.3,2.1,9.9,2.1z M14.3,6.4c0.1,0.1,0.2,0.3,0.2,0.4c0,0.2,0,0.3-0.1,0.4l-5.2,6.1
							c-0.1,0.1-0.3,0.2-0.4,0.2c-0.2,0-0.3-0.1-0.4-0.2l-2.8-3.3C5.4,10,5.4,9.9,5.4,9.7s0.1-0.3,0.2-0.4c0.2-0.2,0.6-0.2,0.8,0.1
							l2.3,2.7l4.7-5.6C13.7,6.2,14.1,6.2,14.3,6.4z"/>
					</g>
				</g>
			</g>
		</g>
	</g>
</g>
</svg>
