<svg xmlns="http://www.w3.org/2000/svg" width="31.788" height="31.787" viewBox="0 0 31.788 31.787"><defs><style>.a{fill:#f79b63;}.b{fill:#1e1d1e;}.c{fill:#0b8b45;}.d{fill:#0d9d4a;}.e{fill:#08763f;}.f{fill:#3bb76d;}.g{fill:#6ac890;}.h{fill:#98d9b2;}.i{fill:#d6f0e1;}.j{fill:#c22f2c;}.k{fill:#a92e28;}.l{fill:#221e1f;}.m{fill:#e23132;}.n{fill:#8f2e24;}.o{fill:#ef7c7d;}.p{fill:#ed802f;}.q{fill:#f4a6a7;}.r{fill:#ec7230;}.s{fill:#fad7d8;}.t{fill:#f1a05c;}.u{fill:#f3b077;}.v{fill:#f6c194;}.w{fill:#1e1e1f;}.x{fill:#f8d3b3;}.y{fill:#fcebdd;}.z{fill:#4379b1;}.aa{fill:#488bc3;}.ab{fill:#3e689f;}.ac{fill:#4f9cd3;}.ad{fill:#38578e;}.ae{fill:#69aede;}.af{fill:#7a7c7d;}.ag{fill:#89bfe5;}.ah{fill:#33477e;}.ai{fill:#acd3ed;}.aj{fill:#daebf7;}.ak{fill:#2e376e;}.al{fill:#232223;opacity:0.71;}.am{fill:#29265c;}.an{fill:#32251e;}.an,.ba{opacity:0.73;}.ao{fill:#3d2b21;opacity:0.7;}.ap{fill:#221f1f;}.aq{fill:#12100e;opacity:0.55;}.ar{fill:#533829;}.ar,.av{opacity:0.75;}.as{fill:#1e1c1d;}.at{fill:#453127;opacity:0.82;}.au{fill:#8f9193;}.av{fill:#463125;}.aw{fill:#9d9fa1;}.ax{fill:#aeb0b3;}.ay{fill:#c8c9cb;}.az{fill:#e6e7e8;}.ba{fill:#252324;}.bb{fill:#858789;}.bc{fill:#201d1d;}.bd{fill:#8e9092;}.be{fill:#c4c5c7;}.bf{fill:#b6b8ba;}.bg{fill:#acaeb0;}.bh{fill:#a1a3a5;}.bi{fill:#96989b;}</style></defs><g transform="translate(-0.14 -0.191)"><g transform="translate(0.125 0.19)"><path class="a" d="M14.319.04A12.058,12.058,0,0,1,15.71,0a18.339,18.339,0,0,1,6.182,1.157A14.44,14.44,0,0,1,27.42,4.919a17.053,17.053,0,0,1,3.825,7.234,11.272,11.272,0,0,1,.275,1.365c-.483.21-.994.343-1.492.513-.369.111-.726.264-1.1.349q-.037-.078-.071-.156a9.734,9.734,0,0,0-.6-2.312,2.25,2.25,0,0,1-.2-.6c.056-.184.171-.344.238-.523a1.868,1.868,0,0,0,.115-.707c0-.1,0-.2,0-.3A2.075,2.075,0,0,0,26.83,7.773a2.49,2.49,0,0,0-.858-.029,14.085,14.085,0,0,0-6.5-4.255,13.8,13.8,0,0,0-7.785.126A16.274,16.274,0,0,0,8.533,4.909a7.07,7.07,0,0,0-.941.651,15.435,15.435,0,0,0-5.134,6.964,13.831,13.831,0,0,0-.679,2.551l-.013.047a.55.55,0,0,0-.045.207l-.008.052a1.684,1.684,0,0,0-.046.277l-.009.053a.923.923,0,0,0-.037.263,18.159,18.159,0,0,0-.1,2.446A13.307,13.307,0,0,0,3.252,24.4a16.708,16.708,0,0,0,4.332,4.9,18.254,18.254,0,0,0,2.7,1.748,10.934,10.934,0,0,1-1.476-.607,16.3,16.3,0,0,1-7.272-7.295A10.428,10.428,0,0,1,.7,21.06a19.985,19.985,0,0,1-.645-3.319A13.938,13.938,0,0,1,0,16.213,16.293,16.293,0,0,1,1.5,9.191,14.339,14.339,0,0,1,3.379,6.12,15.167,15.167,0,0,1,8.93,1.557,16,16,0,0,1,14.319.04Z" transform="translate(0.015 0.001)"/><path class="a" d="M6.552.12A8.633,8.633,0,0,1,8.486.007a9.944,9.944,0,0,1,4.579,1.437,13.373,13.373,0,0,1,2.943,2.385,5.671,5.671,0,0,1,.624.743c-.294-.228-.535-.515-.835-.735A12.727,12.727,0,0,0,13.88,2.5,9.543,9.543,0,0,0,9.8,1.212a5.418,5.418,0,0,0-1.715.141A12.06,12.06,0,0,0,3.282,3.578,8.676,8.676,0,0,0,1.947,4.912c-.091-.127-.193-.247-.3-.364A1.882,1.882,0,0,0,0,3.89a1.106,1.106,0,0,1,.234-.345A6.8,6.8,0,0,1,1.31,2.476,15.775,15.775,0,0,1,2.843,1.469l.18-.105a2.282,2.282,0,0,0,1.034.474,2.225,2.225,0,0,0,1.106-.113A1.986,1.986,0,0,0,6.356.408a.549.549,0,0,1,.2-.288Z" transform="translate(7.734 9.054)"/><path class="a" d="M.7,0a4.152,4.152,0,0,0,.74.792,2.128,2.128,0,0,0,1.417.371c-.068.265-.119.534-.168.8l-.014.046a.441.441,0,0,0-.04.2c0,.03-.012.091-.015.121a.423.423,0,0,0-.037.2c0,.246-.041.489-.056.734a10.734,10.734,0,0,0,.1,2.226,3.741,3.741,0,0,1-.893.436c-.431.186-.866.36-1.3.545a11.3,11.3,0,0,1-.4-2.068A9.587,9.587,0,0,1,.182,1.831,14.082,14.082,0,0,1,.7,0Z" transform="translate(5.239 15.921)"/></g><g transform="translate(1.878 3.168)"><path class="b" d="M9.906.628A13.8,13.8,0,0,1,17.692.5a14.085,14.085,0,0,1,6.5,4.255c-.1,0-.2,0-.3,0a12.622,12.622,0,0,0-1.835-1.709A12.785,12.785,0,0,0,15.352.337a14.636,14.636,0,0,0-5.907.711,15.319,15.319,0,0,0-2.934,1.29A16.3,16.3,0,0,0,3.644,4.857,15.148,15.148,0,0,0,.255,11.106c-.1.323-.132.666-.255.982A13.831,13.831,0,0,1,.679,9.537,15.435,15.435,0,0,1,5.814,2.574a7.07,7.07,0,0,1,.941-.651A16.274,16.274,0,0,1,9.906.628Z" transform="translate(0.04 0.01)"/><path class="b" d="M6.14.153A5.418,5.418,0,0,1,7.854.013,9.543,9.543,0,0,1,11.933,1.3,12.727,12.727,0,0,1,13.85,2.637c.238.368.583.651.831,1.014-.414-.352-.8-.734-1.242-1.057A11.3,11.3,0,0,0,9.611.6,7.441,7.441,0,0,0,6.539.344,11.793,11.793,0,0,0,.8,3.113c-.26.239-.489.509-.737.761C.046,3.819.024,3.765,0,3.713A8.676,8.676,0,0,1,1.335,2.379,12.06,12.06,0,0,1,6.14.153Z" transform="translate(7.928 7.276)"/></g><g transform="translate(18.094 5.264)"><path class="c" d="M.932.123A1.8,1.8,0,0,1,2.048.065a2.7,2.7,0,0,0-.927.359,1.152,1.152,0,0,0-.473.852A1.383,1.383,0,0,0,1.008,2.41,1.337,1.337,0,0,0,2.3,2.767a1.346,1.346,0,0,0,.97-1.531,5.021,5.021,0,0,0-.2-.628,2.118,2.118,0,0,1,.587,2.034c-.03.068-.062.136-.094.2a.935.935,0,0,0-.513.237,1.878,1.878,0,0,1-1.61.277A1.91,1.91,0,0,1,.334,2.536a1.86,1.86,0,0,1-.3-1.385C.066.986.106.823.152.662A1.72,1.72,0,0,1,.932.123Z" transform="translate(0.004 0.046)"/></g><g transform="translate(18.697 5.319)"><path class="d" d="M.369,2.346A1.381,1.381,0,0,1,.01,1.211,1.153,1.153,0,0,1,.482.36,2.7,2.7,0,0,1,1.409,0a1.3,1.3,0,0,1,.635.217.967.967,0,0,1,.387.326,5.123,5.123,0,0,1,.2.628A1.345,1.345,0,0,1,1.657,2.7a1.094,1.094,0,0,1-.327.049A1.425,1.425,0,0,1,.369,2.346Z" transform="translate(0.04 0.054)"/></g><g transform="translate(17.656 5.926)"><path class="e" d="M.005,1.159A1.836,1.836,0,0,1,.564,0C.518.161.478.324.446.489a1.86,1.86,0,0,0,.3,1.385A1.91,1.91,0,0,0,1.851,2.7a1.878,1.878,0,0,0,1.61-.277.935.935,0,0,1,.513-.237,2.112,2.112,0,0,1-.906,1.053,2.062,2.062,0,0,1-1.922.055A2.112,2.112,0,0,1,.081,2.045a2.694,2.694,0,0,1-.076-.886Z" transform="translate(0.03 0.046)"/></g><g transform="translate(19.299 6.036)"><path class="f" d="M.729,1.446A.725.725,0,0,1,.585.011a.75.75,0,0,1,.856.7.725.725,0,0,1-.677.738Z" transform="translate(0.038 0.009)"/></g><g transform="translate(19.464 6.146)"><path class="g" d="M.588,1.265A.62.62,0,0,1,.056.893.65.65,0,0,1,.423.03a.644.644,0,0,1,.823.464.651.651,0,0,1-.6.776A.514.514,0,0,1,.588,1.265Z" transform="translate(0.022 0.052)"/></g><g transform="translate(19.628 6.312)"><path class="h" d="M.059.783A.564.564,0,0,1,.3.041.545.545,0,0,1,.989.263a.6.6,0,0,1-.122.7.571.571,0,0,1-.323.1A.533.533,0,0,1,.059.783Z" transform="translate(0.008 0.046)"/></g><g transform="translate(19.792 6.532)"><path class="i" d="M.135.059A.649.649,0,0,1,.727.1C.77.342.754.74.406.718A.375.375,0,0,1,.135.059Z" transform="translate(0.017 0.007)"/></g><g transform="translate(10.917 6.918)"><path class="j" d="M1.052,3.051A1.659,1.659,0,0,1,.059,1.073,3.286,3.286,0,0,1,.613.14,1.289,1.289,0,0,1,1.266,0,2.054,2.054,0,0,1,3.312,1.674a2.44,2.44,0,0,1-.638,1.094,1.611,1.611,0,0,1-1.054.386A1.59,1.59,0,0,1,1.052,3.051Z" transform="translate(0.049 0.027)"/></g><g transform="translate(10.589 7.084)"><path class="k" d="M.217.434A1.363,1.363,0,0,1,.939,0,3.309,3.309,0,0,0,.385.934a1.659,1.659,0,0,0,.993,1.978A1.625,1.625,0,0,0,3,2.63a2.441,2.441,0,0,0,.638-1.095c.061.228.02.469.065.7l.067.047a.549.549,0,0,0-.2.288c-.252.135-.42.381-.668.521A1.945,1.945,0,0,1,.534,2.717,2.032,2.032,0,0,1,0,1.322,2.841,2.841,0,0,1,.217.434Z" transform="translate(0.052 0.001)"/></g><g transform="translate(17.656 7.084)"><path class="l" d="M.046,1A3.506,3.506,0,0,1,.025,0,2.694,2.694,0,0,0,.1.886,2.112,2.112,0,0,0,1.166,2.133a2.062,2.062,0,0,0,1.922-.055,2.112,2.112,0,0,0,.906-1.053c.032-.068.064-.135.094-.2a2.023,2.023,0,0,1-2.017,1.8A2.069,2.069,0,0,1,.046,1Z" transform="translate(0.011 0.047)"/></g><g transform="translate(11.301 7.139)"><path class="m" d="M.47,2.273A1.328,1.328,0,0,1,.1.776,1.239,1.239,0,0,1,.937.032,1.452,1.452,0,0,1,2,.182a1.435,1.435,0,0,1,.509.752,1.289,1.289,0,0,1-.946,1.589,2.051,2.051,0,0,1-.277.019A1.217,1.217,0,0,1,.47,2.273Z" transform="translate(0.015 0.051)"/></g><g transform="translate(10.151 7.47)"><path class="n" d="M.005,1.375A1.957,1.957,0,0,1,.667,0,2.841,2.841,0,0,0,.451.888,2.032,2.032,0,0,0,.985,2.283a1.945,1.945,0,0,0,2.372.371c.249-.14.416-.386.668-.521A1.986,1.986,0,0,1,2.832,3.451a2.225,2.225,0,0,1-1.106.113A2.282,2.282,0,0,1,.692,3.089,2.2,2.2,0,0,1,.005,1.375Z" transform="translate(0.039 0.049)"/></g><g transform="translate(11.904 7.746)"><path class="o" d="M.134,1.245C-.03,1.086.008.841,0,.635S.011.167.212.046A2.107,2.107,0,0,1,.905.012a.385.385,0,0,1,.4.346,1.956,1.956,0,0,1-.063.834c-.1.211-.361.181-.556.188C.5,1.37.268,1.4.134,1.245Z" transform="translate(0.027 0.026)"/></g><g transform="translate(24.723 7.911)"><path class="p" d="M1.011,3.292a1.863,1.863,0,0,1-.9-1.023,1.951,1.951,0,0,1-.027-1.2C.2.7.523.475.73.169A.387.387,0,0,1,1.048.028c.1,0,.2,0,.3-.005A2.474,2.474,0,0,1,2.2.052,2.075,2.075,0,0,1,3.778,2.067c-.246.208-.288.551-.5.785a1.917,1.917,0,0,1-1.439.642A1.764,1.764,0,0,1,1.011,3.292Z" transform="translate(0.047 0.001)"/></g><g transform="translate(12.068 7.911)"><path class="q" d="M.587,1.265a.663.663,0,0,1-.581-.7A.606.606,0,0,1,.4.044a.636.636,0,0,1,.8.325.646.646,0,0,1-.548.9A.517.517,0,0,1,.587,1.265Z" transform="translate(0.03 0.04)"/></g><g transform="translate(24.339 8.077)"><path class="r" d="M.613.345A1.16,1.16,0,0,1,1.152,0C.945.306.624.536.5.9A1.945,1.945,0,0,0,.532,2.1a1.862,1.862,0,0,0,.9,1.024,1.9,1.9,0,0,0,2.27-.44c.21-.234.253-.577.5-.785,0,.1,0,.2,0,.3a3.244,3.244,0,0,1-.253.735,2.062,2.062,0,0,1-3.37.341A4.3,4.3,0,0,1,.1,2.423,1.335,1.335,0,0,1,0,1.758,1.975,1.975,0,0,1,.613.345Z" transform="translate(0.008 0.004)"/></g><g transform="translate(12.287 8.132)"><path class="s" d="M.371.021a.445.445,0,0,1,.56.461A.462.462,0,0,1,.252.9.469.469,0,0,1,.371.021Z" transform="translate(0.001 0.015)"/></g><g transform="translate(25.599 8.518)"><path class="t" d="M.71,1.937A1.039,1.039,0,0,1,0,1.028,1.031,1.031,0,0,1,.958,0a.99.99,0,0,1,1.01,1.016,1.03,1.03,0,0,1-.975.971A.781.781,0,0,1,.71,1.937Z" transform="translate(0.044 0.015)"/></g><g transform="translate(25.764 8.683)"><path class="u" d="M.21,1.388A.849.849,0,0,1,.144.354.839.839,0,0,1,.684.015a.834.834,0,0,1,.952.9.886.886,0,0,1-.4.64.861.861,0,0,1-.4.1A.808.808,0,0,1,.21,1.388Z" transform="translate(0.049 0.006)"/></g><g transform="translate(25.928 8.794)"><path class="v" d="M.214,1.184A.688.688,0,0,1,.471.033a.673.673,0,0,1,.842.793.653.653,0,0,1-.667.523A.619.619,0,0,1,.214,1.184Z" transform="translate(0.043 0.046)"/></g><g transform="translate(10.151 8.849)"><path class="w" d="M.534,1.819A2.32,2.32,0,0,1,.027,0,2.2,2.2,0,0,0,.714,1.714l-.18.105Z" transform="translate(0.018 0.045)"/><path class="w" d="M3.85.735A3.244,3.244,0,0,0,4.1,0a1.868,1.868,0,0,1-.115.707c-.067.18-.182.339-.238.523a2.25,2.25,0,0,0,.2.6,9.734,9.734,0,0,1,.6,2.312c0,.028.008.085.01.113A1.194,1.194,0,0,1,4.5,4.089a10.867,10.867,0,0,0-.879-2.721,2.148,2.148,0,0,1-1.538.708A2.04,2.04,0,0,1,0,.229a4.3,4.3,0,0,0,.48.846A2.067,2.067,0,0,0,2.2,1.791,2.068,2.068,0,0,0,3.85.735Z" transform="translate(14.292 1.426)"/></g><g transform="translate(26.092 8.959)"><path class="x" d="M.5,1.253A.62.62,0,0,1,.2.188.722.722,0,0,1,.456.03.632.632,0,1,1,.64,1.27.566.566,0,0,1,.5,1.253Z" transform="translate(0.042 0.052)"/></g><g transform="translate(26.312 9.18)"><path class="y" d="M.434,0a.489.489,0,0,1,.5.637A.487.487,0,0,1,.041.656.463.463,0,0,1,.434,0Z" transform="translate(0.014 0.036)"/></g><g transform="translate(6.809 13.095)"><path class="z" d="M.438.129A1.023,1.023,0,0,1,1.04,0C.822.23.517.388.388.694A1.3,1.3,0,0,0,.819,2.326a1.349,1.349,0,0,0,1.013.148,1.223,1.223,0,0,0,.878-.881A2.308,2.308,0,0,0,2.692.659c.1.117.2.237.3.364.024.052.046.106.067.161,0,.02.008.062.01.082a2.614,2.614,0,0,1-.329.853,1.58,1.58,0,0,1-.709.558,1.49,1.49,0,0,1-1.533-.3,1.658,1.658,0,0,1-.488-1A1.994,1.994,0,0,1,.438.129Z" transform="translate(0.01 0.039)"/></g><g transform="translate(7.028 13.095)"><path class="aa" d="M.562,2.339A1.3,1.3,0,0,1,.131.707C.26.4.565.243.784.014A1.882,1.882,0,0,1,2.434.671a2.307,2.307,0,0,1,.019.935,1.224,1.224,0,0,1-.878.881,1.739,1.739,0,0,1-.346.036A1.193,1.193,0,0,1,.562,2.339Z" transform="translate(0.048 0.026)"/></g><g transform="translate(6.535 13.261)"><path class="ab" d="M.174.277A.884.884,0,0,1,.669,0,1.994,1.994,0,0,0,.237,1.251a1.658,1.658,0,0,0,.488,1,1.49,1.49,0,0,0,1.533.3,1.58,1.58,0,0,0,.709-.558A2.614,2.614,0,0,0,3.3,1.137a.875.875,0,0,1,.127.344,1.687,1.687,0,0,1-.547.968,1.732,1.732,0,0,1-1.853.272A1.765,1.765,0,0,1,.01,1.315,2.6,2.6,0,0,1,.174.277Z" transform="translate(0.053 0.003)"/></g><g transform="translate(7.302 13.316)"><path class="ac" d="M0,1.1A1.064,1.064,0,0,1,.838.023,1.012,1.012,0,0,1,2.027.941a1.032,1.032,0,0,1-.989,1.107l-.051,0A1.07,1.07,0,0,1,0,1.1Z" transform="translate(0.003 0.053)"/></g><g transform="translate(6.316 13.536)"><path class="ad" d="M0,.38A.933.933,0,0,1,.4,0,2.6,2.6,0,0,0,.234,1.038,1.765,1.765,0,0,0,1.246,2.444,1.732,1.732,0,0,0,3.1,2.172,1.687,1.687,0,0,0,3.645,1.2a2.254,2.254,0,0,1,.015.806l-.01.044c-.315.151-.528.452-.848.592a2.08,2.08,0,0,1-1.657.01A1.993,1.993,0,0,1,.117,1.54,3.011,3.011,0,0,1,0,.38Z" transform="translate(0.049 0.004)"/></g><g transform="translate(7.521 13.592)"><path class="ae" d="M.609,1.579A.8.8,0,0,1,.076.477.761.761,0,0,1,.612.025a.786.786,0,0,1,.962.7A.8.8,0,0,1,.789,1.6.676.676,0,0,1,.609,1.579Z" transform="translate(0.013 0)"/></g><g transform="translate(5.768 13.702)"><path class="af" d="M25.858,0a14.74,14.74,0,0,1,.252,3.741c-.018.328-.039.656-.084.982a7.715,7.715,0,0,1-.165,1.1c-.04.149-.071.3-.1.454l-.011.046a17.491,17.491,0,0,1-.786,2.45,15.581,15.581,0,0,1-1.48,2.758,15.569,15.569,0,0,1-4.038,4.205,12.119,12.119,0,0,1-4.666,2.027,13.437,13.437,0,0,1-7.285-.7,12.041,12.041,0,0,1-4.32-2.875A15.184,15.184,0,0,1,.293,9.755,4.49,4.49,0,0,1,0,8.882c.431-.185.866-.359,1.3-.545A3.741,3.741,0,0,0,2.19,7.9a6.592,6.592,0,0,0,2.33,2.951,4.056,4.056,0,0,0,1.659.632,6.784,6.784,0,0,0,1.169,0,3.407,3.407,0,0,0,.465.628,8.775,8.775,0,0,0,4.2,2.552,13.02,13.02,0,0,0,1.879.315,7.411,7.411,0,0,0,1.549-.1,7.508,7.508,0,0,0,1.187-.257,7.309,7.309,0,0,0,1.206-.44A9.072,9.072,0,0,0,19.2,13.4a10.292,10.292,0,0,0,1.3-1.068c.268-.3.516-.622.772-.934a8.223,8.223,0,0,0,1.15-2.148A10.082,10.082,0,0,0,22.8,7.981a10.256,10.256,0,0,0,.173-1.374.91.91,0,0,0-.086-.422c-.027-.062.01-.128.022-.188a11.288,11.288,0,0,0,.342-4.613c-.009-.157-.021-.313-.039-.469,0-.024-.007-.072-.009-.1S23.2.735,23.194.706q.034.078.071.156c.376-.085.733-.238,1.1-.349.5-.17,1.009-.3,1.492-.513Z" transform="translate(0.034 0.008)"/><path class="af" d="M.022,1.29A1.674,1.674,0,0,1,1.142,0,1.54,1.54,0,0,0,.634,1.213a1.253,1.253,0,0,0,1.434,1.11,1.285,1.285,0,0,0,1-.941A3.185,3.185,0,0,0,3.1.7a1.392,1.392,0,0,1,.279,1.012A1.676,1.676,0,0,1,2.355,3.206a1.784,1.784,0,0,1-.941.109A1.719,1.719,0,0,1,.107,2.254,1.951,1.951,0,0,1,.022,1.29Z" transform="translate(12.336 4.743)"/></g><g transform="translate(7.685 13.702)"><path class="ag" d="M.051.89A.641.641,0,0,1,1.222.37a.672.672,0,0,1-.137.727.563.563,0,0,1-.429.183A.64.64,0,0,1,.051.89Z" transform="translate(0 0.051)"/></g><g transform="translate(6.042 13.867)"><path class="ah" d="M0,.488A1.032,1.032,0,0,1,.276,0,3.011,3.011,0,0,0,.388,1.16,1.993,1.993,0,0,0,1.417,2.276a2.08,2.08,0,0,0,1.657-.01c.32-.141.533-.441.848-.592a3.689,3.689,0,0,1-.145.463,5.955,5.955,0,0,1-.933.449,2.261,2.261,0,0,1-1.9-.33A2.567,2.567,0,0,1,0,.488Z" transform="translate(0.051 0.053)"/></g><g transform="translate(7.85 13.867)"><path class="ai" d="M.136.991A.616.616,0,0,1,.371.045.6.6,0,0,1,1.183.71a.574.574,0,0,1-.6.5A.531.531,0,0,1,.136.991Z" transform="translate(0.006 0.044)"/></g><g transform="translate(8.014 14.088)"><path class="aj" d="M.34.01C.608-.051.947.175.892.466a.44.44,0,0,1-.671.34A.43.43,0,0,1,.34.01Z" transform="translate(0.03 0.025)"/></g><g transform="translate(5.932 14.364)"><path class="ak" d="M0,.39A1.014,1.014,0,0,1,.131,0a2.567,2.567,0,0,0,.943,1.769,2.261,2.261,0,0,0,1.9.33,5.955,5.955,0,0,0,.933-.449,1.885,1.885,0,0,1-.383.556,5.1,5.1,0,0,1-1.2.191A2.4,2.4,0,0,1,0,.39Z" transform="translate(0.03 0.045)"/></g><g transform="translate(28.996 14.584)"><path class="al" d="M.04,0A5.99,5.99,0,0,1,.176.7.775.775,0,0,1,.04,0Z" transform="translate(0.013 0.06)"/></g><g transform="translate(5.877 14.75)"><path class="am" d="M.051,1.005A2.525,2.525,0,0,1,.053,0,2.4,2.4,0,0,0,2.378,2.005a5.1,5.1,0,0,0,1.2-.191,2.022,2.022,0,0,1-1.261.661A2.128,2.128,0,0,1,.9,2.1a4.152,4.152,0,0,1-.74-.792L.1,1.2a.454.454,0,0,0-.047-.194Z" transform="translate(0.031 0.049)"/></g><g transform="translate(1.823 15.301)"><path class="an" d="M0,.311A.637.637,0,0,1,.093,0,.164.164,0,0,1,0,.311Z" transform="translate(0.058 0.017)"/></g><g transform="translate(1.769 15.522)"><path class="ao" d="M0,.416A1.9,1.9,0,0,1,.1,0,.23.23,0,0,1,0,.416Z" transform="translate(0.059 0.076)"/></g><g transform="translate(8.014 15.522)"><path class="ap" d="M1.958.044,1.968,0a2,2,0,0,1-.7,1.507,2.411,2.411,0,0,1-1.094.5c-.055.173-.1.348-.17.517.049-.269.1-.538.168-.8a2.022,2.022,0,0,0,1.261-.661A1.885,1.885,0,0,0,1.813.507,3.689,3.689,0,0,0,1.958.044Z" transform="translate(0.043 0.029)"/></g><g transform="translate(5.877 15.798)"><path class="aq" d="M.1,0A.549.549,0,0,1,.192.29C-.006.318-.073.055.1,0Z" transform="translate(0.051 0.01)"/></g><g transform="translate(1.714 15.853)"><path class="ar" d="M0,.394A.986.986,0,0,1,.081,0,.209.209,0,0,1,0,.394Z" transform="translate(0.073 0.075)"/></g><g transform="translate(0.18 17.893)"><path class="as" d="M0,0A19.985,19.985,0,0,0,.646,3.319a10.428,10.428,0,0,0,.833,2.086A16.3,16.3,0,0,0,8.751,12.7a13.374,13.374,0,0,0,1.534.927,15.241,15.241,0,0,1-4.548-2.584,16.907,16.907,0,0,1-4.21-5.238A13.422,13.422,0,0,1,.85,4.276,19.829,19.829,0,0,1,.02.487,3.806,3.806,0,0,1,0,0Z" transform="translate(0.015 0.039)"/></g><g transform="translate(7.959 18.114)"><path class="at" d="M0,.3A.5.5,0,0,1,.087,0,.158.158,0,0,1,0,.3Z" transform="translate(0.067 0.015)"/></g><g transform="translate(18.697 18.334)"><path class="au" d="M.012,1.313A1.54,1.54,0,0,1,.519.1a1.681,1.681,0,0,1,1.9.566A.283.283,0,0,1,2.481.8a3.192,3.192,0,0,1-.032.681,1.286,1.286,0,0,1-1,.941,1.079,1.079,0,0,1-.2.018A1.261,1.261,0,0,1,.012,1.313Z" transform="translate(0.03 0.01)"/></g><g transform="translate(7.904 18.445)"><path class="av" d="M0,.3A.468.468,0,0,1,.084,0,.158.158,0,0,1,0,.3Z" transform="translate(0.07 0.003)"/></g><g transform="translate(18.971 18.555)"><path class="aw" d="M.06,1.323A1.045,1.045,0,0,1,.051.648,1.013,1.013,0,0,1,.795.018.952.952,0,0,1,1.875.71.97.97,0,0,1,1.1,1.923a.846.846,0,0,1-.153.014A.956.956,0,0,1,.06,1.323Z" transform="translate(0.047 0.003)"/></g><g transform="translate(19.299 18.831)"><path class="ax" d="M.44,1.284A.66.66,0,0,1,.028.49.694.694,0,0,1,.456.039.65.65,0,0,1,1.3.524a.675.675,0,0,1-.645.808A.518.518,0,0,1,.44,1.284Z" transform="translate(0.002 0.038)"/></g><g transform="translate(19.464 18.996)"><path class="ay" d="M.185,1.045A.615.615,0,0,1,.409.032.628.628,0,0,1,1.2.759a.628.628,0,0,1-.612.471A.511.511,0,0,1,.185,1.045Z" transform="translate(0.027 0.051)"/></g><g transform="translate(19.683 19.217)"><path class="az" d="M.37.013A.435.435,0,0,1,.847.639C.706,1.04-.066.914.005.474A.43.43,0,0,1,.37.013Z" transform="translate(0.001 0.023)"/></g><g transform="translate(31.516 19.493)"><path class="ba" d="M0,.681C.057.453.115.224.192,0A1.135,1.135,0,0,1,0,.681Z" transform="translate(0.073 0.066)"/></g><g transform="translate(13.109 19.879)"><path class="bb" d="M15.107.843c.17-.268.255-.579.432-.843a.91.91,0,0,1,.086.422A10.256,10.256,0,0,1,15.452,1.8a10.083,10.083,0,0,1-.383,1.268,8.223,8.223,0,0,1-1.15,2.148c-.256.312-.5.632-.772.934a10.292,10.292,0,0,1-1.3,1.068,9.072,9.072,0,0,1-1.361.78,7.309,7.309,0,0,1-1.206.44A7.508,7.508,0,0,1,8.1,8.69a7.411,7.411,0,0,1-1.549.1,13.02,13.02,0,0,1-1.879-.315,8.775,8.775,0,0,1-4.2-2.552A3.407,3.407,0,0,1,0,5.3c.454-.1.9-.237,1.359-.3a4.243,4.243,0,0,0,.982.976A7.619,7.619,0,0,0,5.378,7.383a9.539,9.539,0,0,0,1.482.161,7.783,7.783,0,0,0,2.279-.356,8.508,8.508,0,0,0,1.209-.494,7.729,7.729,0,0,0,2.274-1.848,5.682,5.682,0,0,0,.633-.854,9.727,9.727,0,0,0,.706-1.445,1.1,1.1,0,0,0,.05-.38V2.13a4.65,4.65,0,0,0,1.1-1.287Z" transform="translate(0.042 0.016)"/></g><g transform="translate(5.384 19.989)"><path class="bc" d="M25.369,2.45A17.491,17.491,0,0,0,26.155,0a2.436,2.436,0,0,1-.034.294,15.75,15.75,0,0,1-2.3,5.282,15.441,15.441,0,0,1-3.748,3.946,11.882,11.882,0,0,1-5.748,2.32,13.018,13.018,0,0,1-2.34.068,13.161,13.161,0,0,1-5.859-1.754,12.556,12.556,0,0,1-4.6-4.8A14.24,14.24,0,0,1,.513,3.235,10.129,10.129,0,0,1,0,.488,11.3,11.3,0,0,0,.4,2.556,4.49,4.49,0,0,0,.7,3.429,15.184,15.184,0,0,0,3.58,7.863,12.041,12.041,0,0,0,7.9,10.738a13.437,13.437,0,0,0,7.285.7,12.119,12.119,0,0,0,4.666-2.027,15.569,15.569,0,0,0,4.038-4.205,15.581,15.581,0,0,0,1.48-2.758Z" transform="translate(0.013 0.047)"/></g><g transform="translate(14.478 22.029)"><path class="bd" d="M11.77.5c.3-.16.582-.342.882-.5a1.1,1.1,0,0,1-.05.38A9.727,9.727,0,0,1,11.9,1.825a5.682,5.682,0,0,1-.633.854A7.729,7.729,0,0,1,8.99,4.527a8.508,8.508,0,0,1-1.209.494A7.783,7.783,0,0,1,5.5,5.377a9.539,9.539,0,0,1-1.482-.161A7.619,7.619,0,0,1,.982,3.8,4.243,4.243,0,0,1,0,2.827a3.348,3.348,0,0,1,.661-.213A5.3,5.3,0,0,0,1.914,3.637a6.513,6.513,0,0,0,1.574.736,6.429,6.429,0,0,0,1.451.3,4.6,4.6,0,0,0,1.519-.041,6.783,6.783,0,0,0,4.388-2.483,7.888,7.888,0,0,0,.73-1.084A1.529,1.529,0,0,0,11.77.5Z" transform="translate(0.031 0.033)"/></g><g transform="translate(18.423 22.085)"><path class="be" d="M.172.707A10.825,10.825,0,0,1,3.873,0a.506.506,0,0,1,.318.081A3.884,3.884,0,0,1,3.106.9,3.538,3.538,0,0,1,.444,1.04,2.378,2.378,0,0,1,0,.806,1.21,1.21,0,0,1,.172.707Z" transform="translate(0.018 0.038)"/></g><g transform="translate(17.711 22.14)"><path class="bf" d="M4.89.03,4.917,0a3.216,3.216,0,0,1,.612.191,3.92,3.92,0,0,1-2.206,1.5,4.877,4.877,0,0,1-1.384.1A3.226,3.226,0,0,1,.9,1.563,2.171,2.171,0,0,1,0,1.036,2.045,2.045,0,0,1,.7.754a2.378,2.378,0,0,0,.444.234A3.538,3.538,0,0,0,3.8.847,3.884,3.884,0,0,0,4.89.03Z" transform="translate(0.031 0.035)"/></g><g transform="translate(17.272 22.36)"><path class="bg" d="M5.982,0a1.639,1.639,0,0,1,.486.2A4.627,4.627,0,0,1,3.216,2.089a4.846,4.846,0,0,1-1.622-.131A4.805,4.805,0,0,1,.232,1.343.96.96,0,0,1,0,1.057,1.8,1.8,0,0,1,.453.844a2.171,2.171,0,0,0,.9.527,3.226,3.226,0,0,0,1.039.223,4.877,4.877,0,0,0,1.384-.1A3.92,3.92,0,0,0,5.982,0Z" transform="translate(0.016 0.006)"/></g><g transform="translate(16.122 22.526)"><path class="bh" d="M7.595,0a2.437,2.437,0,0,1,.444.314A3.206,3.206,0,0,0,8.7.349a3,3,0,0,1-.779,1.056A5.629,5.629,0,0,1,4.781,2.99a7.542,7.542,0,0,1-.977.092,6.332,6.332,0,0,1-2.5-.622A4.294,4.294,0,0,1,0,1.5,7.491,7.491,0,0,1,1.127.853a.96.96,0,0,0,.232.286,4.805,4.805,0,0,0,1.363.614,4.846,4.846,0,0,0,1.622.131A4.627,4.627,0,0,0,7.595,0Z" transform="translate(0.04 0.044)"/></g><g transform="translate(15.116 22.535)"><path class="bi" d="M10.367.234c.253-.061.495-.158.743-.234a1.529,1.529,0,0,1-.2.565,7.888,7.888,0,0,1-.73,1.084A6.783,6.783,0,0,1,5.8,4.132a4.6,4.6,0,0,1-1.519.041,6.429,6.429,0,0,1-1.451-.3A6.513,6.513,0,0,1,1.253,3.14,5.3,5.3,0,0,1,0,2.118a6.752,6.752,0,0,0,.992-.6A4.294,4.294,0,0,0,2.3,2.472a6.332,6.332,0,0,0,2.5.622A7.542,7.542,0,0,0,5.774,3,5.629,5.629,0,0,0,8.911,1.417,3,3,0,0,0,9.69.361c.224-.055.454-.071.677-.127Z" transform="translate(0.054 0.023)"/></g></g></svg>