<svg xmlns="http://www.w3.org/2000/svg" width="13.983" height="11.98" viewBox="0 0 13.983 11.98"><defs><style>.a{fill:#0d6eba;}</style></defs><g transform="translate(0 -0.502)"><g transform="translate(0 0.5)"><path class="a" d="M0,.009,2,2l.01-.1A1.9,1.9,0,0,0,.1,0Z" transform="translate(6.885 3.785)"/><path class="a" d="M2.532,1.576A3.166,3.166,0,0,1,5.71,4.729,3.083,3.083,0,0,1,5.484,5.88L7.343,7.724a7.491,7.491,0,0,0,2.183-3A7.525,7.525,0,0,0,0,.441L1.373,1.8A3.215,3.215,0,0,1,2.532,1.576Z" transform="translate(4.458 0.947)"/><path class="a" d="M11.9,11.98h0l-1.851-1.84-.27-.268A7.524,7.524,0,0,1,0,5.675,7.481,7.481,0,0,1,2.373,2.528l-.289-.286L.635.8l.81-.8L12.709,11.18l-.809.8ZM4.15,4.288a3.1,3.1,0,0,0-.338,1.387A3.159,3.159,0,0,0,8.385,8.493L7.4,7.52a2,2,0,0,1-.413.047A1.9,1.9,0,0,1,5.084,5.675a1.941,1.941,0,0,1,.048-.412Z" transform="translate(0 0.002)"/></g></g></svg>