<svg xmlns="http://www.w3.org/2000/svg" width="38.536" height="31.464" viewBox="0 0 38.536 31.464"><defs><style>.a{fill:#9e8100;}</style></defs><g transform="translate(-0.302 -5.569)"><g transform="translate(0 5)"><g transform="translate(1.362 0.545)"><path d="M21.618.415C22.6.222,23.593.135,24.581.006,25.228,0,25.875,0,26.522,0A21.113,21.113,0,0,1,29.354.48a12.875,12.875,0,0,1,5.266,2.759A10.468,10.468,0,0,1,37.09,6.4a3.515,3.515,0,0,1,.351.949,3.183,3.183,0,0,1-.663-.775,12.939,12.939,0,0,0-3.234-2.914A11.313,11.313,0,0,0,28.392,1.97c-.634-.009-1.269-.01-1.9,0a15.238,15.238,0,0,0-3.464.705,37.076,37.076,0,0,0-4.838,1.994,30.917,30.917,0,0,0-4.538,2.68,15.55,15.55,0,0,0-2,1.694,21.258,21.258,0,0,0-2.01,2.34,18.665,18.665,0,0,0-2.573,4.524A9.4,9.4,0,0,0,6.51,18.1a6.107,6.107,0,0,0,2.175,5.449,5.691,5.691,0,0,0,3.16,1.222,15.354,15.354,0,0,0,2.019-.051,12.569,12.569,0,0,0,1.653-.216,21.716,21.716,0,0,0,5.2-1.64.725.725,0,0,0,.374-.319,12.554,12.554,0,0,0-2.287-.522,4.452,4.452,0,0,0-.753-.061c0-.048,0-.1,0-.143q3.546-1.077,7.093-2.154c.366-.107.724-.239,1.1-.325a3.642,3.642,0,0,1-.5.619c-.63.722-1.317,1.391-1.994,2.068a20.793,20.793,0,0,1-4.54,3.363,22.766,22.766,0,0,1-3.552,1.5,24.516,24.516,0,0,1-2.994.844,24.35,24.35,0,0,1-2.62.407,17.126,17.126,0,0,1-1.888-.01,11.465,11.465,0,0,1-5.673-2.341A6.866,6.866,0,0,1,.646,23.522a6.155,6.155,0,0,1-.615-2.443,5.692,5.692,0,0,1,.024-1.164,15.038,15.038,0,0,1,1.3-4.337A25.451,25.451,0,0,1,6.263,8.665a28.827,28.827,0,0,1,5.547-4.418c.63-.387,1.286-.726,1.931-1.085A30.532,30.532,0,0,1,21.618.415Z" transform="translate(0.035 0.024)"/><path d="M0,5.877C.148,5,.226,4.122.367,3.249.464,2.377.61,1.511.713.64A2,2,0,0,1,.839.064,5.877,5.877,0,0,1,2.389.052a2.131,2.131,0,0,1,1.2.419A1.614,1.614,0,0,1,3.6,2.855a3.033,3.033,0,0,1-.888.476c.393.876.832,1.73,1.234,2.6-.347,0-.693.014-1.039,0-.175-.018-.235-.211-.3-.346-.242-.548-.543-1.066-.776-1.617a1.1,1.1,0,0,0-.346-.521c-.1.454-.114.923-.2,1.381-.027.372-.1.738-.149,1.107-.1,0-.194,0-.292,0l-.216,0A2.5,2.5,0,0,1,0,5.877Z" transform="translate(19.942 12.776)"/><path d="M.776,1.713A1.55,1.55,0,0,1,2.236,0,2.109,2.109,0,0,1,4.017.9c.091.125-.06.223-.141.3a7.215,7.215,0,0,1-.607.5c-.3-.214-.511-.632-.923-.61a.442.442,0,0,0-.461.315.814.814,0,0,0,.248.588c.227.262.473.507.7.769A2.984,2.984,0,0,1,3.67,4.116a1.609,1.609,0,0,1-.4,1.5,1.838,1.838,0,0,1-1.462.561A2.344,2.344,0,0,1,.025,5.127a.145.145,0,0,1,.032-.2c.24-.212.5-.4.739-.616.294.339.615.8,1.12.737A.593.593,0,0,0,2.53,4.67a.8.8,0,0,0-.064-.53,7.149,7.149,0,0,0-.772-.93,2.861,2.861,0,0,1-.918-1.5Z" transform="translate(15.105 12.816)"/><path d="M.8.015C1.828-.01,2.856,0,3.882.009a4.439,4.439,0,0,1-.1,1,17.252,17.252,0,0,0-2.046.056,5.576,5.576,0,0,1-.162,1.1,2.14,2.14,0,0,0,.5.075q.751,0,1.5,0a5.777,5.777,0,0,1-.067,1c-.621.009-1.242,0-1.862,0a.2.2,0,0,0-.215.2C1.37,3.9,1.3,4.354,1.238,4.81c.669.008,1.338,0,2.007,0a4.455,4.455,0,0,1-.092,1.036c-1.044.007-2.089,0-3.134,0A1.364,1.364,0,0,1,0,5.569c.138-.846.23-1.7.355-2.545C.474,2.289.559,1.55.676.815A2.645,2.645,0,0,1,.8.015Z" transform="translate(11.129 12.861)"/></g><g transform="translate(0.285 3.935)"><path class="a" d="M27.377.009C28,0,28.626-.006,29.251.012a11.8,11.8,0,0,1,4.951,1.8,7.513,7.513,0,0,1,2.359,2.443,6.567,6.567,0,0,1,.827,3.655,16.07,16.07,0,0,1-2.148,6.217,26.911,26.911,0,0,1-3.775,5.012,30.1,30.1,0,0,1-4.678,3.989,30.856,30.856,0,0,1-6.185,3.2,27.4,27.4,0,0,1-6.445,1.642,2.5,2.5,0,0,1-.486.086c-1.17.024-2.34.028-3.511,0-.26,0-.5-.115-.762-.126a13.223,13.223,0,0,1-6.31-2.781,11.928,11.928,0,0,1-1.981-2.106A11.038,11.038,0,0,1,.084,21.241.542.542,0,0,1,.015,20.8a2.723,2.723,0,0,1,.456.557,12.06,12.06,0,0,0,6.559,4.483,12.823,12.823,0,0,0,1.683.307c.336.077.684,0,1.02.071a1.222,1.222,0,0,0,.428-.006c.32-.059.649.006.969-.055.406-.075.82-.089,1.223-.182a16.874,16.874,0,0,0,2.151-.54,42.048,42.048,0,0,0,5.618-2.419,24.51,24.51,0,0,0,5.457-3.737,3.657,3.657,0,0,0,.588-.6,23.436,23.436,0,0,0,3.242-4.439,13.08,13.08,0,0,0,1.362-3.422,5.872,5.872,0,0,0,.162-1.605,5.445,5.445,0,0,0-.4-2.135,5.9,5.9,0,0,0-1.3-2.022,5.519,5.519,0,0,0-2.691-1.544c-.326-.073-.657-.119-.986-.167-.445-.017-.892,0-1.337-.007-.424.028-.846.089-1.27.116a20.578,20.578,0,0,0-3.24.687,19.126,19.126,0,0,0-2.631.944,2.356,2.356,0,0,0-.8.473A6.855,6.855,0,0,0,18.1,6.03a11.641,11.641,0,0,1,1.281.234,2.14,2.14,0,0,1-.3.138c-2.41.715-4.812,1.461-7.221,2.185a5.831,5.831,0,0,1-.649.187,6.607,6.607,0,0,1,.769-.944A27.916,27.916,0,0,1,16.7,3.643a20.656,20.656,0,0,1,4.183-2.087,24.619,24.619,0,0,1,6.5-1.547Z" transform="translate(0.017 0.022)"/></g></g></g></svg>