<svg xmlns="http://www.w3.org/2000/svg" width="31.636" height="36.204" viewBox="0 0 31.636 36.204"><defs><style>.a{fill:#b0aea4;}.b{fill:#2c4373;}.c{fill:#111a2c;opacity:0.39;}</style></defs><g transform="translate(-0.084 -0.281)"><g transform="translate(2.228 0.271)"><path class="a" d="M25.156,27.607c-.173,0-.345,0-.517,0H1.778a4.273,4.273,0,0,1-.558-.022A1.57,1.57,0,0,1,0,26.062V1.548A1.636,1.636,0,0,1,1.146.058.874.874,0,0,1,1.523,0H11.957q6.957,0,13.914,0a1.639,1.639,0,0,1,1.45,1.609V26a1.576,1.576,0,0,1-1.271,1.592c-.2.013-.406.017-.61.017Z" transform="translate(0.008 0.011)"/><path class="a" d="M.675,1.91A4.084,4.084,0,0,1,5.321.2,3.831,3.831,0,0,1,7.632,2.529a3.489,3.489,0,0,0-.875.516A3.108,3.108,0,0,0,5.431,1.379a2.738,2.738,0,0,0-2.24-.206,3.118,3.118,0,0,0-1.941,1.8A3.3,3.3,0,0,0,1.034,4.44a2.275,2.275,0,0,0,.212.9A2.343,2.343,0,0,1,1.507,6a8.731,8.731,0,0,1,.026,1.387L1.411,7.3A4.585,4.585,0,0,1,0,4.442,4.376,4.376,0,0,1,.675,1.91Z" transform="translate(9.897 2.295)"/><path class="a" d="M2.124.38A3.189,3.189,0,0,1,3.582,0,3.926,3.926,0,0,1,4.607.073a7.7,7.7,0,0,1,.809.254c-.069.337-.185.662-.246,1a3.835,3.835,0,0,0-1.22-.314,2.657,2.657,0,0,0-2.057.808,3.187,3.187,0,0,0-.7,3.275,3.019,3.019,0,0,0,1.9,1.876,2.037,2.037,0,0,1,.859.556,3.941,3.941,0,0,1,.579.647,5.03,5.03,0,0,1-2.373-.5,4.122,4.122,0,0,1-2.1-2.97A4.182,4.182,0,0,1,2.124.38Z" transform="translate(4.574 4.384)"/><path class="a" d="M3.435.05A4.166,4.166,0,0,1,5.916.42,3.9,3.9,0,0,1,7.862,2.5a2.611,2.611,0,0,1,.2.977,4.7,4.7,0,0,1-.091,1.335,3.006,3.006,0,0,1-.228.649c-.329-.036-.63-.206-.963-.23a4.054,4.054,0,0,0,.292-1.319A2.7,2.7,0,0,0,6.3,1.916a3.205,3.205,0,0,0-1.962-.9A3.094,3.094,0,0,0,1.167,3.18a1.9,1.9,0,0,1-.455.727A6.539,6.539,0,0,1,0,4.6a4.657,4.657,0,0,1,1.03-3.229A4.239,4.239,0,0,1,3.435.05Z" transform="translate(15.041 4.759)"/><path class="a" d="M.465,1.811A2.591,2.591,0,0,1,.4,0,3.979,3.979,0,0,1,1.6,2.005a6.44,6.44,0,0,1,.122,2.532A13.77,13.77,0,0,1,.682,8.117L.574,8.061A9.691,9.691,0,0,0,0,7.053,10.422,10.422,0,0,0,.733,4.307a5.274,5.274,0,0,0-.268-2.5Z" transform="translate(10.877 5.551)"/><path class="a" d="M4.295,1.355A2.406,2.406,0,0,1,5.553,0a4.4,4.4,0,0,1-.732,2.516A7.993,7.993,0,0,1,1.958,5.027,10.77,10.77,0,0,1,0,5.916c.094-.4.248-.786.3-1.2A9.784,9.784,0,0,0,3.421,2.651a4,4,0,0,0,.874-1.3Z" transform="translate(12.318 6.312)"/><path class="a" d="M.149,0A3.95,3.95,0,0,0,1.2.508,1.486,1.486,0,0,1,.728.824,2.51,2.51,0,0,1,0,1.136C.052.758.122.381.149,0Z" transform="translate(12.702 9.595)"/><path class="a" d="M0,.008A4.386,4.386,0,0,1,3.1,1.17,11.038,11.038,0,0,1,5.912,5.583C5.6,5.5,5.3,5.4,4.988,5.33c-.125-.036-.3-.038-.349-.183A11.579,11.579,0,0,0,3.449,3.061a5.179,5.179,0,0,0-2.087-1.8A2.487,2.487,0,0,1,0,.008Z" transform="translate(6.089 9.691)"/><path class="a" d="M1,.969A4.245,4.245,0,0,1,2.476,0a5.854,5.854,0,0,0,.51.883,3,3,0,0,0-1.821,1.74A3.107,3.107,0,0,0,2.612,6.3a3.017,3.017,0,0,0,2.436.242c.227-.072.432-.2.651-.293a5.123,5.123,0,0,1,1.586-.1c-.053.187-.232.279-.361.405A4.149,4.149,0,0,1,4.157,7.7a4.087,4.087,0,0,1-2.1-.564A4.173,4.173,0,0,1,0,3.427,3.578,3.578,0,0,1,1,.969Z" transform="translate(2.158 10.046)"/><path class="a" d="M.092,1.408A4.581,4.581,0,0,1,2.9,0,4.165,4.165,0,0,1,7.291,4.332,3.643,3.643,0,0,1,5.662,7.267,2.88,2.88,0,0,1,4.79,7.7a5.865,5.865,0,0,0-.479-.886,2.867,2.867,0,0,0,1.875-1.9,3.122,3.122,0,0,0-1.4-3.435,3.211,3.211,0,0,0-2.3-.379c-.443.084-.8.419-1.254.452A12.1,12.1,0,0,1,0,1.556a.993.993,0,0,1,.092-.148Z" transform="translate(17.883 10.139)"/><path class="a" d="M.015.655C.309.448.579.207.873,0a4.164,4.164,0,0,0,.359,1.123A5.723,5.723,0,0,1,.206.84C.125.8-.052.786.015.655Z" transform="translate(15.272 10.286)"/><path class="a" d="M0,.394A4.691,4.691,0,0,0,1.128,0,6.265,6.265,0,0,1,.738,1.3C.454,1.033.274.672,0,.394Z" transform="translate(10.037 11.065)"/><path class="a" d="M0,.609C.386.436.728.178,1.11,0A10.4,10.4,0,0,0,3.927.739,5.885,5.885,0,0,0,5.815.614C6.179.542,6.49.276,6.872.288a3.617,3.617,0,0,1,1.15.087c0,.028-.01.084-.013.112A4.53,4.53,0,0,1,5.278,1.745c-.551.017-1.1.021-1.655-.009A12.364,12.364,0,0,1,.595.9,2.39,2.39,0,0,1,0,.609Z" transform="translate(13.912 11.144)"/><path class="a" d="M0,0A10.738,10.738,0,0,1,1.219.356,14.084,14.084,0,0,0,2.147,2.1a6.034,6.034,0,0,0,2.1,2.108,4.118,4.118,0,0,1,.854.445A2.9,2.9,0,0,1,5.86,5.6,4.148,4.148,0,0,1,3.4,4.888,7.063,7.063,0,0,1,1.519,3,13.331,13.331,0,0,1,0,0Z" transform="translate(15.355 12.59)"/><path class="a" d="M0,0C.384.007.761.12,1.15.091A4.688,4.688,0,0,0,.677,1.176C.615,1.149.548,1.124.524,1.054A10.62,10.62,0,0,1,0,0Z" transform="translate(16.813 12.994)"/><path class="a" d="M.506,0,.619.008A9.6,9.6,0,0,1,1.16,1.162C.771,1.148.391,1.04,0,1.061A3.229,3.229,0,0,0,.506,0Z" transform="translate(9.337 13.739)"/><path class="a" d="M1.111,0A.346.346,0,0,1,1.25.148c.138.291.306.564.468.84.064.085.015.189-.013.278a11.092,11.092,0,0,0-.646,2.489A5.649,5.649,0,0,0,1.3,6.279a2.818,2.818,0,0,1,.109,1.832c-.186-.032-.281-.217-.4-.346A4.838,4.838,0,0,1,0,4.628,11.9,11.9,0,0,1,1.111,0Z" transform="translate(14.672 14.209)"/><path class="a" d="M2.207.115a7.647,7.647,0,0,1,1.976-.1A11.44,11.44,0,0,1,7.265.8a3.559,3.559,0,0,1,.765.366c-.376.175-.716.422-1.086.6A10.958,10.958,0,0,0,4,1.02a5.021,5.021,0,0,0-2.041.222,2.076,2.076,0,0,1-.717.23A4.261,4.261,0,0,1,0,1.393a.8.8,0,0,1,.087-.146A4.3,4.3,0,0,1,2.207.115Z" transform="translate(5.383 14.981)"/><path class="a" d="M.931.008A4.691,4.691,0,0,1,3.258.467,4.147,4.147,0,0,1,5.4,3.545a4.917,4.917,0,0,1-.1,1.668,3.911,3.911,0,0,1-2.926,2.9A4.21,4.21,0,0,1,0,7.8a3.66,3.66,0,0,0,.26-.959,4.219,4.219,0,0,0,1.249.294,2.61,2.61,0,0,0,1.9-.661A3.141,3.141,0,0,0,4.43,4.357,3.157,3.157,0,0,0,2.785,1.362c-.3-.167-.662-.188-.928-.417A4.625,4.625,0,0,1,.931.008Z" transform="translate(17.315 15.354)"/><path class="a" d="M.4,0A1.584,1.584,0,0,1,.768.422c.117.163.255.311.372.475A4.625,4.625,0,0,0,0,1.282,8.485,8.485,0,0,1,.4,0Z" transform="translate(16.151 15.551)"/><path class="a" d="M3.771.794A11.233,11.233,0,0,1,5.551,0a8.359,8.359,0,0,0-.342,1.218A10.8,10.8,0,0,0,2.578,2.827a4.891,4.891,0,0,0-1.216,1.5,3.936,3.936,0,0,1-.393.793,2.593,2.593,0,0,1-.964.8A4.414,4.414,0,0,1,.916,3.13,8.533,8.533,0,0,1,3.771.794Z" transform="translate(9.466 15.663)"/><path class="a" d="M0,0A7.127,7.127,0,0,1,1.264.375C1.187.56.987.627.846.748c-.176.115-.3.316-.52.353A2.768,2.768,0,0,0,0,0Z" transform="translate(10.824 16.486)"/><path class="a" d="M.336,0c.334.068.654.195.99.258a3.826,3.826,0,0,0-.286,1.1,2.822,2.822,0,0,0,.113,1.128,2.852,2.852,0,0,0,1.438,1.64,3.068,3.068,0,0,0,2.563.114A3.109,3.109,0,0,0,6.81,2.648a3.084,3.084,0,0,1,.339-.791A4.481,4.481,0,0,1,8.108.89c.011.326-.069.645-.066.971a4.172,4.172,0,0,1-1.02,2.3,4.068,4.068,0,0,1-3,1.3,4.006,4.006,0,0,1-3.7-2.268A3.783,3.783,0,0,1,.2.422C.247.281.295.142.336,0Z" transform="translate(4.191 17.663)"/><path class="a" d="M6.1,0a4.2,4.2,0,0,1,.737.843,3.933,3.933,0,0,1,.739,2.907A4.121,4.121,0,0,1,6.555,5.995,4.188,4.188,0,0,1,3.921,7.37a3.622,3.622,0,0,1-2.86-.9A3.821,3.821,0,0,1,0,4.856,3.219,3.219,0,0,0,.7,4.47a.467.467,0,0,1,.208-.08A2.774,2.774,0,0,0,2.183,6.015a2.813,2.813,0,0,0,2.395.153A3.093,3.093,0,0,0,6.432,4.24a3.014,3.014,0,0,0-.117-2.308A1.51,1.51,0,0,1,6.1,1.32,11.559,11.559,0,0,1,6.1,0Z" transform="translate(9.816 18.207)"/></g><g transform="translate(15.655 17.424)"><path class="a" d="M.081.675A5.45,5.45,0,0,1,1.395,0a11.349,11.349,0,0,0-.172,1.438,5.974,5.974,0,0,0-1.17-.6C-.045.825.01.685.081.675Z" transform="translate(0.028 0.003)"/></g><g transform="translate(0.082 30.46)"><path class="b" d="M.832.427A3.178,3.178,0,0,1,2.757.037,18.451,18.451,0,0,1,4.669.016a6.1,6.1,0,0,1-.508,1.078c-.671.022-1.343-.019-2.013.013a1.337,1.337,0,0,0-.848.481c-.2.257-.1.6-.118.9.7,0,1.41-.018,2.115.011-.008.331-.006.662,0,.994-.7.006-1.41-.026-2.112.017.007.728,0,1.456.006,2.185-.02.084.04.256-.086.268-.366.021-.733,0-1.1,0Q0,3.991,0,2.013A1.892,1.892,0,0,1,.832.427Z" transform="translate(0.002 0.043)"/><path class="b" d="M.133.275A.555.555,0,0,1,.992.149.846.846,0,0,1,1.21.763q0,2.434,0,4.869c0,.115-.009.23-.02.346C.8,5.964.418,5.967.032,5.975.051,5.36-.012,4.747,0,4.133,0,3.114,0,2.095,0,1.075a2.15,2.15,0,0,1,.131-.8Z" transform="translate(5.194 0.046)"/><path class="b" d="M.522.139A1.439,1.439,0,0,1,1.436.023a1.3,1.3,0,0,1,.89,1.047c.11.518.3,1.015.412,1.533.155.646.373,1.274.508,1.926l.1-.032c.234-1.148.608-2.261.881-3.4A1.32,1.32,0,0,1,5.112.029,1.711,1.711,0,0,1,5.9.063a1.112,1.112,0,0,1,.666,1.05c0,1.613,0,3.225,0,4.838-.4-.008-.807-.009-1.211,0-.038-1.546-.012-3.094-.013-4.64l-.131.027c-.27,1.031-.6,2.045-.864,3.078-.157.508-.294,1.022-.453,1.529-.389-.011-.78.019-1.168-.012-.076-.054-.084-.155-.114-.235-.263-.97-.567-1.928-.82-2.9-.164-.475-.249-.976-.427-1.443-.044-.051-.088-.1-.132-.149a1.538,1.538,0,0,0-.085.72c.011,1.342-.009,2.685.01,4.028C.8,5.928.44,5.963.083,5.939-.034,5.91.014,5.757,0,5.67.006,4.151,0,2.633,0,1.115A1.157,1.157,0,0,1,.522.139Z" transform="translate(7.519 0.069)"/><path class="b" d="M1.581.193A3.511,3.511,0,0,1,2.97,0C3.551.009,4.133,0,4.715.011c-.123.3-.284.571-.428.856-.048.082-.1.2-.212.187C3.487,1.07,2.9,1.03,2.31,1.072a1.224,1.224,0,0,0-.884,1.37c.651,0,1.3-.024,1.952.014-.016.35-.009.7,0,1.05-.645.007-1.29-.014-1.934.011a1.463,1.463,0,0,0,.216.85,1.268,1.268,0,0,0,1.064.506c.651.009,1.3-.016,1.955.012-.012.342-.01.686,0,1.029-.651.026-1.3,0-1.951.012a2.641,2.641,0,0,1-1.683-.435,2.618,2.618,0,0,1-.95-1.629A4.579,4.579,0,0,1,.14,1.817,2.418,2.418,0,0,1,1.581.193Z" transform="translate(20.822 0.089)"/><path class="b" d="M0,5.869C.02,4.346,0,2.822.01,1.3A1.318,1.318,0,0,1,.6.25,1.771,1.771,0,0,1,1.516,0Q2.437,0,3.355,0A1.93,1.93,0,0,1,4.495.331a1.818,1.818,0,0,1,.691,1.594,1.759,1.759,0,0,1-.47,1.383A2.043,2.043,0,0,1,3.3,3.82c-.687,0-1.374,0-2.062,0,0,.687,0,1.372,0,2.058-.226,0-.453.006-.68.006C.369,5.884.184,5.881,0,5.869Z" transform="translate(15.099 0.133)"/><path class="b" d="M.2.779A1.805,1.805,0,0,1,1.811,0C2.92,0,4.028,0,5.137.005A5.943,5.943,0,0,1,4.7,1.018c-.8,0-1.6-.013-2.4,0a1.281,1.281,0,0,0-.765.193.634.634,0,0,0,.023.916,1.159,1.159,0,0,0,.685.207A7.74,7.74,0,0,1,4.477,2.5a1.379,1.379,0,0,1,.885.8A2.3,2.3,0,0,1,5.487,4.36,1.482,1.482,0,0,1,4.5,5.717a5.061,5.061,0,0,1-1.891.165C1.835,5.875,1.062,5.9.29,5.87c.011-.351.006-.7,0-1.052.934,0,1.869,0,2.8,0a1.812,1.812,0,0,0,.788-.163.64.64,0,0,0,.125-.914,1.035,1.035,0,0,0-.664-.34,19.686,19.686,0,0,1-2.154-.1A1.442,1.442,0,0,1,.137,2.456,2.172,2.172,0,0,1,.2.779Z" transform="translate(26.149 0.133)"/></g><g transform="translate(8.727 31.708)"><path class="c" d="M.006.72A1.147,1.147,0,0,1,.123,0C.184.049.245.1.305.149L.114.215q-.006,2,0,4c-.014.178.066.381-.094.536C-.007,3.405.021,2.062.006.72Z" transform="translate(0.021 0.029)"/></g></g></svg>