<svg xmlns="http://www.w3.org/2000/svg" width="32.751" height="28.825" viewBox="0 0 32.751 28.825"><defs><style>.a{fill:#00529b;}.b{fill:#f37121;}</style></defs><g transform="translate(-0.279 -0.827)"><g transform="translate(0.243 0.826)"><path class="a" d="M0,.022C1.192-.021,2.386.014,3.579,0H20.8c.461,0,.922-.008,1.383.009.009,1.543.011,3.085,0,4.628a15.221,15.221,0,0,0-3.12.15,12.479,12.479,0,0,0-4.227,1.589A10.452,10.452,0,0,0,12.408,8.09a17.784,17.784,0,0,0-3.52,3.983,9.891,9.891,0,0,0-.924,1.709c0-.061,0-.122.006-.183-.077.4-.369.744-.342,1.171l-.155-.091a1.734,1.734,0,0,1-.151.626,2.351,2.351,0,0,0-.133.791c-.021-.143-.042-.287-.065-.429-.036.358-.125.71-.126,1.072l-.1-.131a9.848,9.848,0,0,0-.108,1.224,8.174,8.174,0,0,0,.318,3.722c.168.379.32.767.506,1.138a1.64,1.64,0,0,1-.42.064H.956A2.988,2.988,0,0,1,0,22.683Q0,11.352,0,.022Z" transform="translate(0.036 0.002)"/></g><g transform="translate(11.797 8.233)"><path class="b" d="M8.322.185A13.055,13.055,0,0,1,11.474.008a7.327,7.327,0,0,1,1.982.318,10.275,10.275,0,0,1,4.768,2.883,8.388,8.388,0,0,1,1.354,1.735,10.919,10.919,0,0,1,1.647,5.974,11.279,11.279,0,0,1-.892,4.071,10.891,10.891,0,0,1-2.079,3.166,10.63,10.63,0,0,1-5.542,3.053,8.408,8.408,0,0,1-1.876.194,10.15,10.15,0,0,1-4.485-.871,7.774,7.774,0,0,1-1.588-.854A10.372,10.372,0,0,1,2.628,17.77a5.118,5.118,0,0,1,1.547-.147,10.776,10.776,0,0,0,3.407-1.038,12.187,12.187,0,0,0,3.529-2.509c.4-.378.728-.821,1.126-1.2a2.047,2.047,0,0,1,.026.723c-.055.385-.028.777-.09,1.161-.06.42-.139.839-.159,1.264a17.53,17.53,0,0,0-.156,1.775c.953-.159,1.92-.141,2.88-.224a1.056,1.056,0,0,0,.5-.1.942.942,0,0,0,.109-.508c-.007-2.062,0-4.125,0-6.187-.01-.431.072-.859.06-1.291,0-1.112,0-2.225,0-3.337a33.273,33.273,0,0,0-3.505.264,7.774,7.774,0,0,0-.869.048c-.276.067-.565.006-.84.08-.476.07-.963-.011-1.438.083-.294.042-.6-.014-.887.055-.242.058-.493.012-.735.057-.52.108-1.058,0-1.577.1a6.877,6.877,0,0,0-.878.06c-.313.07-.65-.031-.951.1-.155.1-.139.32-.149.485-.006.9,0,1.8,0,2.693a1.508,1.508,0,0,0,.863-.076c.435-.112.889-.119,1.323-.234.289-.081.591-.056.883-.117.389-.031.763-.172,1.157-.169a8.392,8.392,0,0,0,1.026-.152,2.094,2.094,0,0,1,.067.273,8.235,8.235,0,0,1-2.911,3.889,6.394,6.394,0,0,1-2.558,1.03,11.389,11.389,0,0,1-1.4-.007,2.9,2.9,0,0,1-1.138-.567,2.948,2.948,0,0,1-.741-1.527A12.358,12.358,0,0,1,.108,9.062a10.784,10.784,0,0,1,2.879-5.89A10.523,10.523,0,0,1,8.322.185Z" transform="translate(0.007 0.011)"/></g></g></svg>