<svg xmlns="http://www.w3.org/2000/svg" width="32" height="32" viewBox="0 0 32 32"><defs><style>.a{fill:#0d6eba;}</style></defs><g transform="translate(-0.25 -0.25)"><g transform="translate(0.25 0.25)"><path class="a" d="M16,32a15.8,15.8,0,0,1-6.213-1.263,16.156,16.156,0,0,1-8.525-8.525,15.917,15.917,0,0,1,0-12.425A16.156,16.156,0,0,1,9.788,1.263a15.917,15.917,0,0,1,12.425,0,16.156,16.156,0,0,1,8.525,8.525,15.917,15.917,0,0,1,0,12.425,16.156,16.156,0,0,1-8.525,8.525A15.8,15.8,0,0,1,16,32Zm0-14.56a17.113,17.113,0,0,0-6,1.28,8.486,8.486,0,0,0-2.55,1.555A2.927,2.927,0,0,0,6.4,22.4a11.56,11.56,0,0,0,19.2,0,2.927,2.927,0,0,0-1.05-2.125A8.486,8.486,0,0,0,22,18.72,17.11,17.11,0,0,0,16,17.44ZM16,4.8a4.714,4.714,0,1,0,3.42,1.38A4.79,4.79,0,0,0,16,4.8Z"/></g></g></svg>