<svg xmlns="http://www.w3.org/2000/svg" width="29.268" height="32" viewBox="0 0 29.268 32"><defs><style>.a{fill:#d35e2d;}</style></defs><g transform="translate(-0.567 -0.245)"><path class="a" d="M11.213.118A4.78,4.78,0,0,1,12.032,0a18.083,18.083,0,0,1-.085,2.056,32.888,32.888,0,0,1-5.729,15.4c-2.073,0-4.146.015-6.218-.006C.012,13.016,0,8.586.006,4.155A34.861,34.861,0,0,1,6.021,1.429,30.807,30.807,0,0,1,11.213.118Z" transform="translate(17.796 0.245)"/><path class="a" d="M13.281,1.033C13.761.682,14.224.305,14.735,0c.009,4.384,0,8.77,0,13.155a6.832,6.832,0,0,0,.031.994c2.263,0,4.527-.011,6.79.006a26.769,26.769,0,0,1-1.948,2.168A35.11,35.11,0,0,1,5.293,25.1,29.483,29.483,0,0,1,.581,26.214a3.577,3.577,0,0,1-.58.049,23.367,23.367,0,0,1,.258-3.435A33.392,33.392,0,0,1,9.426,4.472,34.788,34.788,0,0,1,13.281,1.033Z" transform="translate(0.567 5.981)"/></g></svg>