<svg xmlns="http://www.w3.org/2000/svg" width="38.604" height="30.193" viewBox="0 0 38.604 30.193"><defs><style>.a{fill:#19b2f5;}</style></defs><path class="a" d="M38.6,3.562A15.049,15.049,0,0,1,34.1,4.8,8.313,8.313,0,0,0,37.637.617,15.021,15.021,0,0,1,32.654,2.48,8.58,8.58,0,0,0,26.7,0a7.75,7.75,0,0,0-7.885,7.584,5.522,5.522,0,0,0,.163,1.706,22.3,22.3,0,0,1-16.248-7.9A6.482,6.482,0,0,0,1.609,5.262a7.692,7.692,0,0,0,3.537,6.351,11.787,11.787,0,0,1-3.537-.931v.157a7.593,7.593,0,0,0,6.271,7.433,8.556,8.556,0,0,1-2.086.308,4.573,4.573,0,0,1-1.451-.157,7.6,7.6,0,0,0,7.4,5.268,16.484,16.484,0,0,1-9.814,3.248A8.306,8.306,0,0,1,0,26.788a23.179,23.179,0,0,0,12.064,3.405c14.64,0,22.519-11.613,22.519-21.677V7.584A16.185,16.185,0,0,0,38.6,3.562"/></svg>