<svg xmlns="http://www.w3.org/2000/svg" width="29.274" height="35.218" viewBox="0 0 29.274 35.218"><defs><style>.a{fill:#f60f0f;}</style></defs><g transform="translate(-0.001)"><path class="a" d="M14.637,35.216c-3.47.005-6.873-.032-10.2-.171A4.251,4.251,0,0,1,.21,30.782C.068,28.922,0,27.057,0,25.2s.068-3.725.209-5.584a4.25,4.25,0,0,1,4.224-4.263c3.33-.144,6.733-.176,10.2-.171s6.88.027,10.2.171a4.251,4.251,0,0,1,4.224,4.263c.141,1.859.22,3.725.209,5.584.005,1.86-.068,3.726-.209,5.585a4.251,4.251,0,0,1-4.224,4.263c-3,.125-6.072.173-9.2.173ZM13.006,12.705a2.823,2.823,0,0,1-.711-2V5.67a2.325,2.325,0,0,1,.711-1.79A2.7,2.7,0,0,1,14.93,3.2a2.453,2.453,0,0,1,2.509,2.516v5.031a2.693,2.693,0,0,1-.67,1.961,2.589,2.589,0,0,1-1.923.724A2.4,2.4,0,0,1,13.006,12.705Zm6.273.17a2.128,2.128,0,0,1-.335-1.279V3.453h1.8v7.461a.922.922,0,0,0,.084.512.445.445,0,0,0,.376.128.976.976,0,0,0,.5-.213,2.459,2.459,0,0,0,.544-.512V3.453H24v9.721H22.248V12.108A3.9,3.9,0,0,1,21.2,13a1.972,1.972,0,0,1-1,.3A1.056,1.056,0,0,1,19.279,12.875Zm-11.208.3v-5.2L5.688,0H7.7l1.3,5.244h.125L10.372,0h2.007l-2.3,7.717v5.458Z"/></g></svg>