<?xml version="1.0" standalone="no"?>
<!DOCTYPE svg PUBLIC "-//W3C//DTD SVG 1.1//EN" "http://www.w3.org/Graphics/SVG/1.1/DTD/svg11.dtd" >
<svg xmlns="http://www.w3.org/2000/svg" xmlns:xlink="http://www.w3.org/1999/xlink" version="1.1">
<metadata>
Created by FontForge 20190801 at Sun Jul 21 22:14:42 2019
 By www-data
Copyright (c) 2017 by Emre Guven. All rights reserved. |DCNT
</metadata>
<defs>
<font id="CrosstenBook" horiz-adv-x="613" >
  <font-face 
    font-family="CrosstenBook"
    font-weight="400"
    font-stretch="normal"
    units-per-em="1000"
    panose-1="0 0 5 0 0 0 0 0 0 0"
    ascent="749"
    descent="-251"
    x-height="500"
    cap-height="700"
    bbox="-55.8947 -270 1098 973"
    underline-thickness="50"
    underline-position="-75"
    unicode-range="U+000D-FB04"
  />
<missing-glyph horiz-adv-x="333" 
 />
    <glyph glyph-name="f_f" unicode="ff" horiz-adv-x="688" 
d="M437 419h-234v-406q0 -13 -13 -13h-62q-13 0 -13 13v406h-66q-13 0 -13 13v55q0 13 13 13h66v108q0 74 37.5 112.5t102.5 38.5q59 0 112 -32q10 -6 5 -17l-27 -46q-4 -7 -13 -3q-34 14 -61 14q-68 0 -68 -85v-90h234v108q0 74 37.5 112.5t102.5 38.5q59 0 112 -32
q10 -6 5 -17l-27 -46q-4 -7 -13 -3q-34 14 -61 14q-68 0 -68 -85v-90h106q13 0 13 -13v-55q0 -13 -13 -13h-106v-406q0 -13 -14 -13h-61q-13 0 -13 13v406z" />
    <glyph glyph-name="fi" unicode="fi" horiz-adv-x="622" 
d="M429 701q0 24 16 40.5t39 16.5q25 0 41 -16.5t16 -40.5q0 -23 -16 -39t-41 -16q-23 0 -39 16t-16 39zM441 419h-238v-406q0 -13 -13 -13h-62q-13 0 -13 13v406h-66q-13 0 -13 13v55q0 13 13 13h66v108q0 74 37.5 112.5t102.5 38.5q59 0 112 -32q10 -6 5 -17l-27 -46
q-4 -7 -13 -3q-34 14 -61 14q-68 0 -68 -85v-90h313q13 0 13 -13v-474q0 -13 -13 -13h-61q-14 0 -14 13v406z" />
    <glyph glyph-name="fl" unicode="fl" 
d="M440 419h-237v-406q0 -13 -13 -13h-62q-13 0 -13 13v406h-66q-13 0 -13 13v55q0 13 13 13h66v108q0 74 37.5 112.5t102.5 38.5q59 0 112 -32q10 -6 5 -17l-27 -46q-4 -7 -13 -3q-34 14 -61 14q-68 0 -68 -85v-90h237v237q0 13 13 13h61q13 0 13 -13v-724q0 -13 -13 -13
h-61q-13 0 -13 13v406z" />
    <glyph glyph-name="f_f_i" unicode="ffi" horiz-adv-x="948" 
d="M755 701q0 24 16.5 40.5t39.5 16.5q24 0 40 -16.5t16 -40.5q0 -23 -16 -39t-40 -16q-23 0 -39.5 16t-16.5 39zM441 419h-238v-406q0 -13 -13 -13h-62q-13 0 -13 13v406h-66q-13 0 -13 13v55q0 13 13 13h66v108q0 74 37.5 112.5t102.5 38.5q59 0 112 -32q10 -6 5 -17
l-27 -46q-4 -7 -13 -3q-34 14 -61 14q-68 0 -68 -85v-90h238v108q0 74 37.5 112.5t102.5 38.5q59 0 112 -32q10 -6 5 -17l-27 -46q-4 -7 -13 -3q-34 14 -61 14q-68 0 -68 -85v-90h313q13 0 13 -13v-474q0 -13 -13 -13h-61q-13 0 -13 13v406h-239v-406q0 -13 -13 -13h-61
q-14 0 -14 13v406z" />
    <glyph glyph-name="f_f_l" unicode="ffl" horiz-adv-x="935" 
d="M437 419h-234v-406q0 -13 -13 -13h-62q-13 0 -13 13v406h-66q-13 0 -13 13v55q0 13 13 13h66v108q0 74 37.5 112.5t102.5 38.5q59 0 112 -32q10 -6 5 -17l-27 -46q-4 -7 -13 -3q-34 14 -61 14q-68 0 -68 -85v-90h234v108q0 74 37.5 112.5t102.5 38.5q59 0 112 -32
q10 -6 5 -17l-27 -46q-4 -7 -13 -3q-34 14 -61 14q-68 0 -68 -85v-90h237v237q0 13 13 13h61q13 0 13 -13v-724q0 -13 -13 -13h-61q-13 0 -13 13v406h-237v-406q0 -13 -14 -13h-61q-13 0 -13 13v406z" />
    <glyph glyph-name="f_t" unicode="ft" horiz-adv-x="727" 
d="M440 419h-237v-406q0 -13 -13 -13h-62q-13 0 -13 13v406h-66q-13 0 -13 13v55q0 13 13 13h66v108q0 74 37.5 112.5t102.5 38.5q59 0 112 -32q10 -6 5 -17l-27 -46q-4 -7 -13 -3q-34 14 -61 14q-68 0 -68 -85v-90h237v135q0 13 13 13h61q13 0 13 -13v-135h126q13 0 13 -13
v-55q0 -13 -12 -13h-127v-288q0 -57 61 -57q28 0 61 16q10 5 14 -4l24 -52q5 -11 -7 -17q-52 -27 -105 -27q-64 0 -99.5 34t-35.5 97v298z" />
    <glyph glyph-name=".notdef" horiz-adv-x="333" 
 />
    <glyph glyph-name=".null" horiz-adv-x="0" 
 />
    <glyph glyph-name="nonmarkingreturn" horiz-adv-x="333" 
 />
    <glyph glyph-name="NULL" horiz-adv-x="0" 
 />
    <glyph glyph-name="NULL" horiz-adv-x="0" 
 />
    <glyph glyph-name="CR" unicode="&#xd;" horiz-adv-x="333" 
 />
    <glyph glyph-name="space" unicode=" " horiz-adv-x="268" 
 />
    <glyph glyph-name="exclam" unicode="!" horiz-adv-x="263" 
d="M159 180h-54q-13 0 -13 13l-5 494q0 13 14 13h62q13 0 13 -13l-4 -494q0 -13 -13 -13zM76 46q0 23 16 39.5t39 16.5q24 0 40.5 -16.5t16.5 -39.5q0 -24 -16.5 -40t-40.5 -16q-23 0 -39 16t-16 40z" />
    <glyph glyph-name="quotedbl" unicode="&#x22;" horiz-adv-x="372" 
d="M133 480h-40q-13 0 -13 13l-4 190q0 13 13 13h49q13 0 13 -13l-4 -190q0 -13 -14 -13zM279 480h-40q-13 0 -13 13l-5 190q0 13 14 13h49q13 0 13 -13l-5 -190q0 -13 -13 -13z" />
    <glyph glyph-name="numbersign" unicode="#" horiz-adv-x="618" 
d="M158 0h-42q-17 0 -12 14l27 197h-84q-14 0 -14 14v42q0 14 14 14h95l19 136h-87q-14 0 -14 14v43q0 14 14 14h97l27 193q2 14 15 14h41q14 0 12 -14l-26 -193h170l29 193q2 14 14 14h41q15 0 13 -14l-29 -193h93q14 0 14 -15v-42q0 -14 -14 -14h-103l-18 -136h94
q14 0 14 -14v-42q0 -14 -14 -14h-104l-27 -197q-3 -14 -14 -14h-43q-15 0 -13 14l28 197h-169l-28 -197q-2 -14 -16 -14zM400 417h-170l-19 -136h170z" />
    <glyph glyph-name="dollar" unicode="$" horiz-adv-x="545" 
d="M145 527q0 -38 26.5 -64.5t66 -40.5t85.5 -33t85.5 -39.5t66 -62t26.5 -98.5q0 -76 -52 -131q-52 -54 -136 -64v-95q0 -13 -13 -13h-43q-14 0 -14 13v93q-103 8 -197 81q-10 7 -3 18l32 48q7 13 20 3q83 -66 175 -66q66 0 103.5 30.5t37.5 81.5q0 38 -27 67
q-12 14 -31.5 26t-31.5 17.5t-44.5 17.5t-43.5 16q-43 18 -85 39q-41 21 -66.5 61.5t-25.5 94.5q0 70 52 119q52 50 135 60v95q0 13 14 13h43q13 0 13 -13v-93q79 -10 153 -55q11 -6 4 -19l-33 -50q-7 -12 -20 -3q-62 44 -141 44q-55 0 -93 -28t-38 -70z" />
    <glyph glyph-name="percent" unicode="%" horiz-adv-x="1064" 
d="M606 201q0 89 62 151t150 62t150 -63q62 -62 62 -150t-62 -150q-61 -61 -150 -61t-150 61q-62 62 -62 150zM679 201q0 -57 41 -98t97 -41q58 0 99 41t41 98q0 58 -41 99t-99 41q-56 0 -97 -41t-41 -99zM304 13l387 674q7 13 17 13h46q16 0 9 -13l-387 -674
q-6 -13 -17 -13h-46q-16 0 -9 13zM35 500q0 90 61 151q62 62 150 62t150 -63q62 -62 62 -150t-62 -150q-61 -61 -150 -61t-150 61t-61 150zM107 500q0 -57 41 -98q40 -40 97 -40q59 0 99 40q42 40 42 98t-42 99q-41 41 -99 41q-56 0 -97 -41t-41 -99z" />
    <glyph glyph-name="ampersand" unicode="&#x26;" horiz-adv-x="708" 
d="M305 428l191 -211l90 82q14 11 24 0l32 -36q12 -12 0 -24l-90 -84l109 -120q12 -12 0 -25l-32 -29q-13 -13 -26 1l-111 122q-74 -59 -128 -86q-57 -28 -131 -28q-80 0 -133 52q-54 52 -54 128q0 79 51 130q28 26 55 46q34 23 77 48q-77 92 -69 172q7 63 54 104
q47 40 110 40q89 0 152 -72q8 -10 -3 -18l-40 -32q-10 -8 -17 1q-38 41 -86 41q-37 0 -61.5 -23t-25.5 -59q-3 -49 62 -120zM241 74q92 0 194 93l-153 170q-17 -10 -36 -22l-34 -20q-10 -6 -26 -18q-6 -4 -10.5 -7.5t-7 -6t-6 -6.5t-4.5 -6t-5 -8t-5 -8q-14 -20 -14 -59
q0 -43 31 -72.5t76 -29.5z" />
    <glyph glyph-name="quotesingle" unicode="'" horiz-adv-x="227" 
d="M132 480h-37q-15 0 -15 16l-4 184q0 16 14 16h47q14 0 14 -16l-4 -184q0 -16 -15 -16z" />
    <glyph glyph-name="parenleft" unicode="(" horiz-adv-x="360" 
d="M262 778q9 11 20 3l36 -26q10 -7 2 -18q-200 -216 -201.5 -417.5t193.5 -408.5q11 -11 -1 -19l-36 -27q-10 -7 -20 3q-214 216 -212 451q1 235 219 459z" />
    <glyph glyph-name="parenright" unicode=")" horiz-adv-x="360" 
d="M98 778q218 -224 219 -459q2 -235 -212 -451q-10 -10 -20 -3l-35 27q-13 8 -2 19q196 207 194.5 408.5t-202.5 417.5q-8 11 3 18l36 26q10 7 19 -3z" />
    <glyph glyph-name="asterisk" unicode="*" horiz-adv-x="386" 
d="M152 528l-107 24q-14 2 -11 17l9 37q4 11 19 7l102 -28l-2 98q-1 9 1.5 12t11.5 3h38q14 0 14 -15l-3 -98l101 26q15 5 18 -8l9 -34q3 -13 -12 -18l-107 -25l72 -94q10 -13 -1 -21l-30 -20q-11 -9 -19 5l-62 92l-63 -91q-10 -14 -20 -4l-31 22q-10 10 0 20z" />
    <glyph glyph-name="plus" unicode="+" horiz-adv-x="540" 
d="M309 253v-176q0 -13 -13 -13h-51q-13 0 -13 13v176h-176q-13 0 -13 14v50q0 14 13 14h176v174q0 13 13 13h51q13 0 13 -13v-174h176q12 0 12 -14v-50q0 -14 -12 -14h-176z" />
    <glyph glyph-name="comma" unicode="," horiz-adv-x="205" 
d="M38 -169l41 254q1 12 14 12h59q12 0 10 -12l-49 -254q-2 -11 -15 -11h-49q-13 0 -11 11z" />
    <glyph glyph-name="hyphen" unicode="-" horiz-adv-x="450" 
d="M85 328h280q13 0 13 -13v-61q0 -13 -13 -13h-280q-12 0 -12 13v61q0 13 12 13z" />
    <glyph glyph-name="period" unicode="." horiz-adv-x="181" 
d="M35 46q0 23 16 39.5t39 16.5q24 0 40.5 -16.5t16.5 -39.5q0 -24 -16.5 -40t-40.5 -16q-23 0 -39 16t-16 40z" />
    <glyph glyph-name="slash" unicode="/" horiz-adv-x="544" 
d="M42 13l387 674q7 13 18 13h46q16 0 9 -13l-387 -674q-7 -13 -17 -13h-46q-17 0 -10 13z" />
    <glyph glyph-name="zero" unicode="0" horiz-adv-x="568" 
d="M43 349q0 69 13 131t40.5 115t75.5 84t111 31q92 2 150 -63.5t78 -166.5q22 -95 10.5 -197.5t-51.5 -178.5q-26 -51 -75 -83q-47 -31 -112 -31t-112 31q-66 43 -97 131.5t-31 196.5zM283 76q80 0 116 78q37 78 37 195q-4 190 -81 251q-30 24 -72 24q-83 0 -120 -88
q-17 -40 -24 -87q-15 -99 0 -201q29 -172 144 -172z" />
    <glyph glyph-name="one" unicode="1" horiz-adv-x="303" 
d="M14 661l169 39h17q13 0 13 -13v-674q0 -13 -13 -13h-63q-13 0 -13 13v591l-98 -28q-12 -3 -13 7l-8 65q-3 11 9 13z" />
    <glyph glyph-name="two" unicode="2" horiz-adv-x="501" 
d="M72 577l-30 46q-8 12 5 20q89 67 189 67q93 0 147 -57q55 -56 55 -143q0 -39 -11 -75t-46 -87q-41 -59 -70 -95q-49 -59 -117 -140l-22 -26h272q14 0 14 -12v-62q0 -13 -14 -13h-401q-13 0 -13 13v14q0 11 6 18q32 40 113 136q72 85 92 111q26 32 58 76q51 73 51 131
q0 53 -32.5 89t-89.5 36q-66 0 -133 -51q-13 -10 -23 4z" />
    <glyph glyph-name="three" unicode="3" horiz-adv-x="473" 
d="M191 323q-11 0 -11 11v58q0 11 11 11q62 0 102 32t40 81q0 48 -32 78t-81 30q-71 0 -134 -51q-13 -10 -22 5l-30 45q-8 12 5 20q86 67 189 67q84 0 137 -52q55 -51 55 -129q0 -56 -33 -101t-85 -63q62 -19 100 -65t38 -107q0 -93 -63 -148q-61 -55 -160 -55
q-100 0 -189 67q-13 7 -5 20l30 46q9 15 22 5q61 -52 134 -52q65 0 104 34t39 90t-44.5 89.5t-116.5 33.5z" />
    <glyph glyph-name="four" unicode="4" horiz-adv-x="506" 
d="M313 143h-280q-13 0 -13 13v51l219 479q5 14 19 14h57q15 0 10 -14l-211 -458h200v146q0 13 13 13h55q14 0 14 -13v-151h73q13 0 13 -13v-54q0 -13 -13 -13h-73v-130q0 -13 -14 -13h-56q-13 0 -13 13v130z" />
    <glyph glyph-name="five" unicode="5" horiz-adv-x="512" 
d="M91 319l-24 15v352q0 14 14 14h341q14 0 14 -14v-56q0 -14 -14 -14h-269v-206q60 29 127 29q91 0 141.5 -58t50.5 -156q0 -101 -63 -168q-61 -67 -168 -67q-111 0 -200 64q-13 9 -5 20l31 47q7 12 21 3q62 -48 147 -48q69 0 109 41t40 105q0 63 -35.5 99.5t-102.5 36.5
q-82 0 -155 -39z" />
    <glyph glyph-name="six" unicode="6" horiz-adv-x="540" 
d="M135 383q79 64 168 64q86 0 138.5 -58.5t52.5 -159.5q0 -100 -61 -170q-61 -69 -157 -69q-102 0 -165 82q-62 83 -62 231v32q0 185 64 280t177 95q100 0 183 -63q11 -7 6 -21l-29 -44q-9 -13 -22 -4q-62 47 -132 47q-147 0 -161 -242zM135 300v-28q0 -90 39 -146
q39 -55 100 -55q58 0 96 45q38 46 38 109q0 64 -35 103.5t-94 39.5q-76 0 -144 -68z" />
    <glyph glyph-name="seven" unicode="7" horiz-adv-x="488" 
d="M455 623l-276 -608q-6 -15 -21 -15h-61q-15 0 -11 15l272 598h-305q-13 0 -13 13v61q0 13 13 13h389q13 0 13 -13v-64z" />
    <glyph glyph-name="eight" unicode="8" horiz-adv-x="520" 
d="M55 529q0 75 57 128q58 53 147 53t148 -53q58 -52 58 -128q0 -51 -30.5 -92t-79.5 -62q63 -24 97.5 -72t34.5 -110q0 -89 -65 -146q-64 -57 -163 -57t-163 57q-63 57 -63 146q0 63 33.5 110.5t96.5 71.5q-49 21 -78.5 62t-29.5 92zM135 517q0 -51 37 -82t87 -31
q51 0 88 31q38 32 38 82q0 51 -35 83.5t-91 32.5q-55 0 -89.5 -33t-34.5 -83zM157 292q-40 -36 -40 -93t39 -93q41 -35 103 -35t103 35q40 36 40 93t-41 93t-102 36t-102 -36z" />
    <glyph glyph-name="nine" unicode="9" horiz-adv-x="540" 
d="M67 53q-13 10 -5 21l28 44q9 13 23 4q61 -47 131 -47q146 0 162 241q-76 -63 -171 -63q-85 0 -137 61t-52 161t61 167q62 68 157 68q103 0 164 -82q63 -81 63 -225v-38q0 -185 -64 -280t-177 -95q-99 0 -183 63zM406 396v32q0 90 -40 145q-39 56 -100 56q-60 0 -97 -45
q-37 -43 -37 -108q0 -66 33 -105t93 -39q77 0 148 64z" />
    <glyph glyph-name="colon" unicode=":" horiz-adv-x="181" 
d="M90 102q24 0 40.5 -16t16.5 -40t-16.5 -40t-40.5 -16q-23 0 -39 16t-16 40t16 40t39 16zM35 453q0 24 16 40.5t39 16.5q24 0 40.5 -16.5t16.5 -40.5q0 -23 -16.5 -39t-40.5 -16q-23 0 -39 16t-16 39z" />
    <glyph glyph-name="semicolon" unicode=";" horiz-adv-x="208" 
d="M29 -169l41 254q2 12 14 12h59q12 0 9 -12l-48 -254q-2 -11 -16 -11h-48q-13 0 -11 11zM61 453q0 24 16 40.5t39 16.5q24 0 40.5 -16.5t16.5 -40.5q0 -23 -16.5 -39t-40.5 -16q-23 0 -39 16t-16 39z" />
    <glyph glyph-name="less" unicode="&#x3c;" horiz-adv-x="518" 
d="M107 296l351 -153q13 -6 13 -15v-49q0 -16 -12 -11l-416 176q-13 4 -13 16v72q0 11 13 15l415 175q13 4 13 -11v-49q0 -11 -13 -15z" />
    <glyph glyph-name="equal" unicode="=" horiz-adv-x="633" 
d="M98 436h437q13 0 13 -13v-46q0 -13 -13 -13h-437q-12 0 -12 13v46q0 13 12 13zM98 232h437q13 0 13 -14v-45q0 -14 -13 -14h-437q-12 0 -12 14v45q0 14 12 14z" />
    <glyph glyph-name="greater" unicode="&#x3e;" horiz-adv-x="518" 
d="M59 143l352 153l-352 151q-12 5 -12 15v49q0 15 12 11l416 -175q13 -4 13 -15v-72q0 -12 -13 -16l-417 -176q-5 -2 -8 1.5t-3 9.5v49q0 9 12 15z" />
    <glyph glyph-name="question" unicode="?" horiz-adv-x="442" 
d="M69 580l-32 50q-7 10 4 19q82 61 173 61q84 0 134.5 -46t50.5 -119t-56 -131q-3 -3 -19 -19.5t-21.5 -22.5t-18.5 -21.5t-18 -25.5t-12.5 -25.5t-10.5 -31.5t-3 -33v-40q0 -15 -14 -15h-60q-13 0 -13 15v40q0 95 55 152q10 11 33.5 34t35.5 35.5t22.5 34t10.5 42.5
q0 40 -28.5 65.5t-73.5 25.5q-57 0 -120 -48q-11 -8 -19 4zM140 46q0 23 16 39.5t39 16.5q24 0 40.5 -16.5t16.5 -39.5q0 -24 -16.5 -40t-40.5 -16q-23 0 -39 16t-16 40z" />
    <glyph glyph-name="at" unicode="@" horiz-adv-x="1023" 
d="M495 123q55 0 92 37t37 91t-38 92q-38 39 -91 39t-91 -39q-36 -37 -36 -92q0 -54 37 -91t90 -37zM635 121v11l-11 -12q-65 -71 -146 -71q-80 0 -133 59q-53 61 -53 143q0 84 53 143q54 59 133 59q97 0 148 -83v65q0 13 13 13h50q12 0 12 -13v-290q0 -55 47 -76
q51 -23 100 11q75 52 75 189q0 162 -120 279q-119 118 -294 118q-117 0 -212 -59t-147 -152q-51 -95 -51 -201q0 -158 108 -280q55 -62 143 -97.5t196 -35.5h372q16 0 16 -13v-32q0 -14 -16 -14h-372q-228 0 -368 135q-138 135 -138 336q0 195 137 334q137 138 332 138
q95 0 183 -35.5t152 -97.5q65 -62 102 -146t37 -176q0 -170 -99 -238q-69 -48 -149 -24q-70 19 -93 80q-6 22 -7 33z" />
    <glyph glyph-name="A" unicode="A" horiz-adv-x="615" 
d="M96 0h-65q-14 0 -10 13l228 674q4 13 16 13h85q13 0 16 -13l229 -674q6 -13 -10 -13h-66q-15 0 -19 15l-55 162h-275l-55 -164q-3 -13 -19 -13zM423 261l-115 333l-116 -333h231z" />
    <glyph glyph-name="B" unicode="B" horiz-adv-x="611" 
d="M349 0h-245q-13 0 -13 13v674q0 13 13 13h216q92 0 147 -49q56 -50 56 -125q0 -106 -98 -153q64 -15 102 -63.5t38 -116.5q0 -83 -60 -138q-59 -55 -156 -55zM179 82h152q64 0 103.5 35t39.5 87q0 57 -41.5 91t-110.5 34h-143v-247zM179 408h138q50 0 83 29.5t33 75.5
q0 48 -34.5 76.5t-95.5 28.5h-124v-210z" />
    <glyph glyph-name="C" unicode="C" horiz-adv-x="656" 
d="M594 637l-32 -49q-8 -15 -22 -4q-65 40 -143 40q-115 0 -192 -80t-77 -195q0 -114 77 -194q76 -79 192 -79q81 0 145 42q14 9 21 -3l32 -50q8 -14 -5 -21q-89 -54 -193 -54q-154 0 -256 103q-101 104 -101 256q0 153 102 257t255 104q107 0 191 -54q13 -7 6 -19z" />
    <glyph glyph-name="D" unicode="D" horiz-adv-x="733" 
d="M341 0h-237q-13 0 -13 13v674q0 13 13 13h237q150 0 250 -102q102 -100 102 -249q0 -145 -102 -247q-100 -102 -250 -102zM179 87h158q113 0 190 76q78 77 78 185q0 114 -78 189q-76 76 -190 76h-158v-526z" />
    <glyph glyph-name="E" unicode="E" horiz-adv-x="560" 
d="M104 700h394q14 0 14 -13v-61q0 -13 -14 -13h-319v-221h284q14 0 14 -13v-58q0 -13 -14 -13h-284v-221h320q13 0 13 -13v-61q0 -13 -13 -13h-395q-13 0 -13 13v674q0 13 13 13z" />
    <glyph glyph-name="F" unicode="F" horiz-adv-x="560" 
d="M166 0h-62q-13 0 -13 13v674q0 13 13 13h430q13 0 13 -13v-61q0 -13 -13 -13h-355v-230h310q13 0 13 -13v-59q0 -13 -13 -13h-310v-285q0 -13 -13 -13z" />
    <glyph glyph-name="G" unicode="G" horiz-adv-x="704" 
d="M540 109v174h-152q-13 0 -13 13v49q0 14 13 14h226q13 0 13 -14v-285q0 -11 -13 -18q-92 -52 -217 -52q-154 0 -256 103q-101 104 -101 256q0 153 101 257q102 104 256 104q107 0 196 -56q13 -8 6 -21l-31 -48q-9 -13 -23 -4q-68 43 -148 43q-116 0 -193 -80
q-76 -79 -76 -195q0 -115 77 -195q77 -78 192 -78q83 0 143 33z" />
    <glyph glyph-name="H" unicode="H" horiz-adv-x="712" 
d="M166 0h-62q-13 0 -13 13v674q0 13 13 13h62q13 0 13 -13v-289h354v289q0 13 13 13h62q13 0 13 -13v-674q0 -13 -13 -13h-62q-13 0 -13 13v297h-354v-297q0 -13 -13 -13z" />
    <glyph glyph-name="I" unicode="I" horiz-adv-x="270" 
d="M166 0h-62q-13 0 -13 13v674q0 13 13 13h62q13 0 13 -13v-674q0 -13 -13 -13z" />
    <glyph glyph-name="J" unicode="J" horiz-adv-x="493" 
d="M403 687v-489q0 -91 -56 -150q-55 -58 -147 -58q-94 0 -164 51q-10 7 -3 18l30 50q7 8 20 1q52 -34 111 -34q55 0 87.5 35.5t32.5 94.5v481q0 13 13 13h63q13 0 13 -13z" />
    <glyph glyph-name="K" unicode="K" horiz-adv-x="655" 
d="M618 0h-75q-15 0 -25 13l-235 342l-104 -106v-236q0 -13 -13 -13h-62q-13 0 -13 13v674q0 13 13 13h62q13 0 13 -13v-318l308 318q10 13 27 13h81q7 0 8.5 -4t-3.5 -9l-253 -269l279 -405q9 -13 -8 -13z" />
    <glyph glyph-name="L" unicode="L" horiz-adv-x="522" 
d="M471 0h-367q-13 0 -13 13v674q0 13 13 13h62q13 0 13 -13v-601h292q13 0 13 -13v-60q0 -13 -13 -13z" />
    <glyph glyph-name="M" unicode="M" horiz-adv-x="874" 
d="M456 94h-38q-10 0 -16 11l-223 451v-543q0 -13 -13 -13h-62q-13 0 -13 13v674q0 13 13 13h87q9 0 17 -12l229 -465l229 465q8 12 19 12h86q13 0 13 -13v-674q0 -13 -13 -13h-62q-14 0 -14 13v543l-223 -451q-5 -11 -16 -11z" />
    <glyph glyph-name="N" unicode="N" horiz-adv-x="739" 
d="M635 0h-63q-12 0 -22 13l-371 531v-531q0 -13 -13 -13h-62q-13 0 -13 13v674q0 13 13 13h63q12 0 22 -13l371 -531v531q0 13 13 13h62q14 0 14 -13v-674q0 -13 -14 -13z" />
    <glyph glyph-name="O" unicode="O" horiz-adv-x="795" 
d="M755 349q0 -152 -103 -255q-104 -104 -255 -104q-152 0 -255 103q-102 103 -102 256q0 152 102 256q104 105 255 105t255 -105q103 -103 103 -256zM397 76q115 0 191 79q78 80 78 194q0 115 -77 195t-192 80t-192 -80t-77 -195q0 -114 77 -194q76 -79 192 -79z" />
    <glyph glyph-name="P" unicode="P" horiz-adv-x="573" 
d="M166 0h-62q-13 0 -13 13v674q0 13 13 13h215q101 0 164 -64t63 -162q0 -96 -65 -164t-162 -68h-140v-229q0 -13 -13 -13zM179 324h122q70 0 113 41.5t43 108.5t-42 105.5t-114 38.5h-122v-294z" />
    <glyph glyph-name="Q" unicode="Q" horiz-adv-x="795" 
d="M615 -136l-87 153q-64 -27 -131 -27q-152 0 -255 103q-102 103 -102 256q0 152 102 256q104 105 255 105t255 -105q103 -103 103 -256q0 -184 -150 -292l85 -150q6 -12 -3 -17l-53 -29q-14 -8 -19 3zM397 76q113 0 191 79q78 80 78 194q0 115 -77 195t-192 80t-192 -80
t-77 -195q0 -114 77 -194q76 -79 192 -79z" />
    <glyph glyph-name="R" unicode="R" horiz-adv-x="600" 
d="M304 618h-125v-289h125q73 0 116 40.5t43 104.5q0 60 -43 102q-44 42 -116 42zM384 260l173 -245q12 -15 -7 -15h-70q-14 0 -24 13l-166 234h-111v-234q0 -13 -13 -13h-62q-13 0 -13 13v674q0 13 13 13h218q101 0 165 -64q65 -65 65 -162q0 -49 -18 -89.5t-45.5 -65.5
t-54 -39.5t-50.5 -19.5z" />
    <glyph glyph-name="S" unicode="S" horiz-adv-x="545" 
d="M470 634l-33 -50q-7 -12 -21 -4q-71 44 -140 44q-55 0 -93 -27t-38 -70q0 -36 26 -64q13 -13 31.5 -24t33.5 -17t43.5 -16.5t43.5 -16.5q48 -20 85 -40q42 -22 67.5 -63.5t25.5 -96.5q0 -80 -60 -140q-61 -59 -172 -59q-119 0 -223 83q-10 7 -3 18l32 48q8 12 20 3
q83 -66 175 -66q66 0 103.5 30.5t37.5 81.5q0 14 -3 26t-10.5 22.5t-13 18.5t-19 16.5t-21 13.5t-26.5 13t-26 11t-30 11.5t-29 11.5q-43 18 -85 39q-41 21 -66.5 61.5t-25.5 94.5q0 81 65 132q66 51 159 51q98 0 186 -57q11 -7 4 -19z" />
    <glyph glyph-name="T" unicode="T" horiz-adv-x="584" 
d="M323 0h-62q-13 0 -13 13v600h-205q-13 0 -13 13v61q0 13 13 13h498q13 0 13 -13v-61q0 -13 -13 -13h-205v-600q0 -13 -13 -13z" />
    <glyph glyph-name="U" unicode="U" horiz-adv-x="691" 
d="M94 700h62q13 0 13 -13v-407q0 -94 46.5 -149t129.5 -55t130 55t47 149v407q0 13 13 13h62q13 0 13 -13v-421q0 -118 -71 -198q-71 -78 -194 -78t-194 78q-70 79 -70 198v421q0 13 13 13z" />
    <glyph glyph-name="V" unicode="V" horiz-adv-x="608" 
d="M344 0h-79q-16 0 -20 16l-227 670q-6 14 9 14h66q14 0 19 -14l193 -563l192 563q3 14 19 14h66q15 0 9 -14l-227 -670q-4 -16 -20 -16z" />
    <glyph glyph-name="W" unicode="W" horiz-adv-x="917" 
d="M707 0h-79q-16 0 -19 14l-150 551l-150 -551q-3 -14 -19 -14h-79q-15 0 -18 14l-172 672q-3 14 10 14h69q14 0 17 -14l138 -547l150 550q5 11 16 11h76q12 0 15 -11l151 -550l137 547q5 14 18 14h69q14 0 9 -14l-171 -672q-5 -14 -18 -14z" />
    <glyph glyph-name="X" unicode="X" horiz-adv-x="618" 
d="M309 434l171 256q7 10 21 10h83q15 0 5 -13l-228 -330l241 -344q4 -5 2 -9t-9 -4h-86q-13 0 -21 11l-179 269l-183 -269q-8 -11 -21 -11h-82q-6 0 -8.5 4t1.5 9l240 344l-228 330q-4 5 -2 9t8 4h83q14 0 20 -10z" />
    <glyph glyph-name="Y" unicode="Y" horiz-adv-x="585" 
d="M121 692l172 -271l171 271q5 8 16 8h73q12 0 5 -13l-221 -344v-330q0 -13 -13 -13h-62q-13 0 -13 13v330l-222 344q-7 13 6 13h73q10 0 15 -8z" />
    <glyph glyph-name="Z" unicode="Z" horiz-adv-x="611" 
d="M45 13v48q0 15 10 28l384 524h-368q-13 0 -13 13v61q0 13 13 13h471q13 0 13 -13v-53q0 -11 -5 -18l-388 -529h391q14 0 14 -13v-61q0 -13 -14 -13h-495q-13 0 -13 13z" />
    <glyph glyph-name="bracketleft" unicode="[" horiz-adv-x="324" 
d="M259 -130h-152q-21 0 -21 21v838q0 21 21 21h152q13 0 13 -13v-47q0 -13 -13 -13h-98v-734h98q13 0 13 -13v-47q0 -13 -13 -13z" />
    <glyph glyph-name="backslash" unicode="\" horiz-adv-x="544" 
d="M115 687l387 -674q7 -13 -9 -13h-46q-11 0 -18 13l-387 674q-7 13 10 13h46q10 0 17 -13z" />
    <glyph glyph-name="bracketright" unicode="]" horiz-adv-x="324" 
d="M218 -130h-153q-12 0 -12 13v47q0 13 12 13h98v734h-98q-12 0 -12 13v47q0 13 12 13h153q9 0 15 -6t6 -15v-838q0 -21 -21 -21z" />
    <glyph glyph-name="asciicircum" unicode="^" horiz-adv-x="518" 
d="M400 315l-140 306l-140 -306q-6 -13 -16 -13h-51q-7 0 -11 3.5t-1 9.5l172 372q7 13 14 13h65q10 0 16 -13l170 -372q3 -6 -1 -9.5t-11 -3.5h-52q-10 0 -14 13z" />
    <glyph glyph-name="underscore" unicode="_" horiz-adv-x="651" 
d="M85 -59h481q12 0 12 -13v-60q0 -14 -12 -14h-481q-12 0 -12 14v60q0 13 12 13z" />
    <glyph glyph-name="grave" unicode="`" horiz-adv-x="229" 
d="M185 570l-34 -15q-11 -5 -18 6l-94 155q-7 13 6 16l50 17q12 5 17 -8l78 -154q6 -12 -5 -17z" />
    <glyph glyph-name="a" unicode="a" horiz-adv-x="626" 
d="M111 473q75 37 183 37q143 0 193 -68q47 -59 47 -172v-255q0 -15 -15 -15h-55q-14 0 -14 15v51q-80 -76 -210 -76q-73 0 -123 33.5t-50 113.5q0 54 28.5 85t83.5 52q34 13 74 17q74 10 169 10h22v4q0 33 -10 58q-27 69 -146 69q-74 0 -130 -22l-20 -7q-15 -5 -19 8
l-16 42q-6 14 8 20zM447 153v92h-14q-143 0 -209 -23.5t-66 -81.5q0 -89 121 -89q63 0 116 33q52 33 52 69z" />
    <glyph glyph-name="b" unicode="b" horiz-adv-x="632" 
d="M172 250q0 -74 48 -125q49 -51 121 -51t120 51q49 50 49 125t-49 125q-48 51 -120 51t-121 -51q-48 -49 -48 -125zM160 0h-61q-13 0 -13 13v724q0 13 13 13h61q13 0 13 -13v-334q31 50 79.5 78.5t108.5 28.5q102 0 169 -76q68 -76 68 -184t-68 -185q-68 -75 -169 -75
q-61 0 -110 29t-78 78v-84q0 -13 -13 -13z" />
    <glyph glyph-name="c" unicode="c" horiz-adv-x="489" 
d="M406 99l34 -47q8 -11 -5 -19q-64 -43 -146 -43q-107 0 -181 75q-73 76 -73 185q0 110 73 184q73 76 181 76q80 0 145 -44q14 -8 5 -20l-34 -46q-7 -10 -19 -3q-44 29 -97 29q-71 0 -121 -51q-48 -51 -48 -125t48 -125q50 -51 121 -51q53 0 99 28q12 8 18 -3z" />
    <glyph glyph-name="d" unicode="d" horiz-adv-x="632" 
d="M122 250q0 -74 48 -125q49 -51 121 -51t120 51q49 50 49 125t-49 125q-48 51 -120 51q-71 0 -120 -52t-49 -124zM533 0h-61q-13 0 -13 13v84q-29 -49 -78 -78t-110 -29q-101 0 -169 75q-67 76 -67 185q0 110 67 184q67 76 169 76q122 0 188 -107v334q0 13 13 13h61
q14 0 14 -13v-724q0 -13 -14 -13z" />
    <glyph glyph-name="e" unicode="e" horiz-adv-x="555" 
d="M292 65q75 0 137 37q13 7 19 -4l28 -39q6 -11 -4 -18q-83 -51 -182 -51q-108 0 -181 76q-74 77 -74 184t67 183q68 77 175 77q112 0 178 -80t66 -192q0 -16 -17 -16h-386q7 -65 56 -112q48 -45 118 -45zM119 280h317q-7 72 -49.5 116t-109.5 44q-66 0 -109 -44.5
t-49 -115.5z" />
    <glyph glyph-name="f" unicode="f" horiz-adv-x="366" 
d="M372 710l-27 -46q-4 -7 -13 -3q-34 14 -61 14q-68 0 -68 -85v-90h106q13 0 13 -13v-55q0 -13 -13 -13h-106v-406q0 -13 -13 -13h-62q-13 0 -13 13v406h-66q-13 0 -13 13v55q0 13 13 13h66v108q0 74 37.5 112.5t102.5 38.5q59 0 112 -32q10 -6 5 -17z" />
    <glyph glyph-name="g" unicode="g" horiz-adv-x="632" 
d="M122 251q0 -75 48 -124q49 -49 121 -49q73 0 121 49q49 49 49 124t-49 124q-48 51 -121 51q-71 0 -120 -52q-49 -50 -49 -123zM547 487v-476q0 -116 -75 -191q-73 -75 -190 -75q-59 0 -112.5 22t-89.5 58q-9 9 -1 18l33 42q9 9 18 2q58 -58 150 -58q83 0 131 50
q48 49 48 125v97q-67 -108 -188 -108q-101 0 -169 74q-67 74 -67 184t67 184q68 75 169 75q120 0 188 -107v84q0 13 13 13h61q14 0 14 -13z" />
    <glyph glyph-name="h" unicode="h" 
d="M160 0h-61q-13 0 -13 13v724q0 13 13 13h61q13 0 13 -13v-335q25 47 70.5 77.5t102.5 30.5q95 0 144 -60.5t49 -172.5v-264q0 -13 -13 -13h-61q-13 0 -13 13v249q0 79 -33 121.5t-99 42.5q-60 0 -104 -53q-43 -52 -43 -117v-243q0 -13 -13 -13z" />
    <glyph glyph-name="i" unicode="i" horiz-adv-x="273" 
d="M167 0h-61q-13 0 -13 13v474q0 13 13 13h61q13 0 13 -13v-474q0 -13 -13 -13zM81 701q0 24 16 40.5t39 16.5q24 0 40.5 -16.5t16.5 -40.5q0 -23 -16.5 -39t-40.5 -16q-23 0 -39 16t-16 39z" />
    <glyph glyph-name="j" unicode="j" horiz-adv-x="276" 
d="M-54 -216l23 50q6 10 15 6q27 -11 48 -11q27 0 44.5 18.5t17.5 50.5v589q0 13 13 13h61q14 0 14 -13v-603q0 -61 -38.5 -100t-101.5 -39q-44 0 -89 22q-13 4 -7 17zM82 701q0 24 16 40.5t39 16.5q24 0 40.5 -16.5t16.5 -40.5q0 -23 -16.5 -39t-40.5 -16q-23 0 -39 16
t-16 39z" />
    <glyph glyph-name="k" unicode="k" horiz-adv-x="538" 
d="M408 12l-162 226l-73 -74v-151q0 -13 -13 -13h-61q-13 0 -13 13v724q0 13 13 13h61q13 0 13 -13v-462l212 216q9 9 22 9h76q14 0 5 -13l-176 -191l196 -281q10 -15 -5 -15h-69q-16 0 -26 12z" />
    <glyph glyph-name="l" unicode="l" horiz-adv-x="259" 
d="M160 0h-61q-13 0 -13 13v724q0 13 13 13h61q13 0 13 -13v-724q0 -13 -13 -13z" />
    <glyph glyph-name="m" unicode="m" horiz-adv-x="927" 
d="M99 500h61q13 0 13 -13v-86q25 48 67 78.5t97 30.5q113 0 155 -120q69 120 186 120q84 0 129.5 -61t45.5 -172v-264q0 -13 -12 -13h-62q-13 0 -13 13v249q0 76 -29.5 120t-85.5 44q-54 0 -96 -49q-42 -48 -42 -112v-252q0 -13 -13 -13h-61q-13 0 -13 13v249
q0 76 -29.5 120t-85.5 44t-97 -50t-41 -111v-252q0 -13 -13 -13h-61q-13 0 -13 13v474q0 13 13 13z" />
    <glyph glyph-name="n" unicode="n" 
d="M526 0h-61q-13 0 -13 13v249q0 79 -33 121.5t-99 42.5q-62 0 -105 -49q-42 -49 -42 -112v-252q0 -13 -13 -13h-61q-13 0 -13 13v474q0 13 13 13h61q13 0 13 -13v-87q25 48 70.5 79t102.5 31q95 0 144 -60.5t49 -172.5v-264q0 -13 -13 -13z" />
    <glyph glyph-name="o" unicode="o" horiz-adv-x="579" 
d="M289 510q108 0 181 -76q74 -77 74 -184t-74 -184q-73 -76 -181 -76q-107 0 -181 75q-73 76 -73 185q0 110 73 184q73 76 181 76zM458 250q0 76 -49 125q-48 51 -120 51q-71 0 -121 -51q-48 -51 -48 -125t48 -125q50 -51 121 -51q72 0 120 51q49 50 49 125z" />
    <glyph glyph-name="p" unicode="p" horiz-adv-x="632" 
d="M172 250q0 -74 48 -125q49 -51 121 -51t120 51q49 50 49 125t-49 125q-48 51 -120 51t-121 -51q-48 -49 -48 -125zM99 500h61q13 0 13 -13v-84q68 107 188 107q102 0 169 -76q68 -76 68 -184t-68 -185q-68 -75 -169 -75q-60 0 -108.5 29.5t-79.5 77.5v-334q0 -13 -13 -13
h-61q-13 0 -13 13v724q0 13 13 13z" />
    <glyph glyph-name="q" unicode="q" horiz-adv-x="632" 
d="M170 375q-48 -51 -48 -125t48 -125q49 -51 121 -51t120 51q49 52 49 125q0 74 -49 124q-48 52 -120 52q-71 0 -121 -51zM472 500h61q14 0 14 -13v-724q0 -13 -14 -13h-61q-13 0 -13 13v337q-66 -110 -188 -110q-101 0 -169 75q-67 76 -67 185q0 110 67 184q67 76 170 76
q119 0 187 -107v84q0 13 13 13z" />
    <glyph glyph-name="r" unicode="r" horiz-adv-x="399" 
d="M99 500h61q13 0 13 -13v-91q18 48 56.5 81t85.5 33q39 0 67 -14q10 -4 6 -18l-17 -57q-5 -11 -17 -6q-22 9 -47 9q-56 0 -95 -55q-39 -54 -39 -129v-227q0 -13 -13 -13h-61q-13 0 -13 13v474q0 13 13 13z" />
    <glyph glyph-name="s" unicode="s" horiz-adv-x="438" 
d="M88 111q60 -51 131 -51q45 0 73 21t28 56q0 52 -96 83q-91 32 -122 55q-53 38 -53 97t49 98q49 40 123 40q94 0 159 -56q10 -10 1 -18l-28 -30q-8 -8 -20 -1q-53 35 -111 35q-38 0 -65 -18.5t-27 -48.5q0 -25 28 -43t68 -31t80 -29.5t68 -49.5t28 -80q0 -64 -52 -107
q-50 -43 -132 -43q-107 0 -179 72q-9 10 2 21l26 28q9 9 21 0z" />
    <glyph glyph-name="t" unicode="t" horiz-adv-x="397" 
d="M332 86l25 -52q5 -11 -7 -17q-52 -27 -105 -27q-64 0 -99.5 34t-35.5 97v298h-54q-13 0 -13 13v55q0 13 13 13h54v135q0 13 13 13h61q13 0 13 -13v-135h126q13 0 13 -13v-55q0 -13 -12 -13h-127v-288q0 -57 61 -57q28 0 61 16q9 4 13 -4z" />
    <glyph glyph-name="u" unicode="u" 
d="M87 500h61q14 0 14 -13v-249q0 -78 33.5 -121t98.5 -43q62 0 104 49t42 112v252q0 13 13 13h62q13 0 13 -13v-474q0 -13 -13 -13h-62q-13 0 -13 13v87q-25 -48 -70.5 -79t-102.5 -31q-95 0 -144 60.5t-49 172.5v264q0 13 13 13z" />
    <glyph glyph-name="v" unicode="v" horiz-adv-x="491" 
d="M245 120l133 367q4 13 16 13h66q14 0 8 -13l-171 -471q-4 -16 -17 -16h-68q-12 0 -19 16l-171 471q-6 13 9 13h66q9 0 15 -13z" />
    <glyph glyph-name="w" unicode="w" horiz-adv-x="707" 
d="M109 487l92 -373l3 8q2 9 8.5 33.5t13.5 50.5l52 186l25 93q3 15 17 15h67q14 0 17 -15l102 -371l91 373q4 13 16 13h62q12 0 9 -13l-116 -471q-4 -16 -18 -16h-79q-15 0 -19 16l-99 376l-98 -376q-4 -16 -19 -16h-79q-15 0 -19 16l-115 471q-3 13 9 13h62q12 0 15 -13z
" />
    <glyph glyph-name="x" unicode="x" horiz-adv-x="496" 
d="M248 191l-124 -180q-8 -11 -21 -11h-68q-13 0 -6 13l164 239l-162 235q-2 3 -2 6t2.5 5t6.5 2h68q13 0 21 -11l121 -179l121 179q8 11 21 11h68q15 0 6 -13l-161 -236l163 -238q9 -13 -6 -13h-68q-12 0 -20 11z" />
    <glyph glyph-name="y" unicode="y" horiz-adv-x="615" 
d="M530 487v-472q0 -118 -67 -194q-66 -76 -180 -76q-61 0 -112.5 24.5t-82.5 65.5q-8 10 -1 18l34 43q9 10 16 1q50 -68 144 -68q78 0 119.5 48.5t41.5 129.5v100q-17 -41 -66 -74q-48 -33 -107 -33q-95 0 -144 60.5t-49 172.5v254q0 13 13 13h61q13 0 13 -13v-239
q0 -77 34 -120.5t99 -43.5q64 0 104 48q42 50 42 113v242q0 13 13 13h61q14 0 14 -13z" />
    <glyph glyph-name="z" unicode="z" horiz-adv-x="473" 
d="M40 13v36q0 17 10 27l254 344h-237q-14 0 -14 13v54q0 13 14 13h338q14 0 14 -13v-32q0 -17 -11 -31l-254 -344h266q13 0 13 -13v-54q0 -13 -13 -13h-367q-13 0 -13 13z" />
    <glyph glyph-name="braceleft" unicode="{" horiz-adv-x="319" 
d="M44 267q-13 0 -13 13v42q0 14 13 14q64 0 64 117v160q0 87 92 87h54q12 0 12 -13v-30q0 -13 -12 -13h-30q-39 0 -39 -44v-147q0 -61 -19 -106q-19 -46 -59 -46q78 0 78 -158v-141q0 -41 39 -41h30q12 0 12 -13v-30q0 -13 -12 -13h-54q-44 0 -68 24t-24 67v147
q0 124 -64 124z" />
    <glyph glyph-name="bar" unicode="|" horiz-adv-x="258" 
d="M173 707v-878q0 -13 -14 -13h-60q-13 0 -13 13v878q0 13 13 13h60q14 0 14 -13z" />
    <glyph glyph-name="braceright" unicode="}" horiz-adv-x="319" 
d="M275 267q-64 0 -64 -124v-147q0 -43 -24 -67t-68 -24h-54q-12 0 -12 13v30q0 13 12 13h30q39 0 39 41v141q0 158 78 158q-40 0 -59 46q-19 45 -19 106v147q0 44 -39 44h-30q-12 0 -12 13v30q0 13 12 13h54q43 0 67.5 -22.5t24.5 -64.5v-160q0 -117 64 -117q13 0 13 -14
v-42q0 -13 -13 -13z" />
    <glyph glyph-name="asciitilde" unicode="~" horiz-adv-x="569" 
d="M101 230q-8 -11 -18 -2l-29 21q-11 6 -4 18q63 101 144 96q32 -2 104 -34q74 -33 103 -33q19 0 33 12l12 11l23 29q9 10 18 2l29 -21q10 -7 3 -18l-15 -19l-18 -21q-2 -3 -16 -17q-16 -16 -30 -21.5t-41 -8.5q-35 0 -106 33q-70 33 -100 33q-55 0 -92 -60z" />
    <glyph glyph-name="uni00A0" unicode="&#xa0;" horiz-adv-x="274" 
 />
    <glyph glyph-name="exclamdown" unicode="&#xa1;" horiz-adv-x="263" 
d="M105 318h54q13 0 13 -13l4 -494q0 -13 -13 -13h-62q-14 0 -14 13l5 494q0 13 13 13zM76 452q0 24 16 40t39 16q24 0 40.5 -16t16.5 -40q0 -23 -16.5 -39.5t-40.5 -16.5q-23 0 -39 16.5t-16 39.5z" />
    <glyph glyph-name="cent" unicode="&#xa2;" horiz-adv-x="492" 
d="M314 -8v-180q0 -13 -13 -13h-30q-13 0 -13 13v181q-96 17 -155 88q-60 72 -60 169q0 96 60 169q61 73 155 88v183q0 13 13 13h30q13 0 13 -13v-182q74 -5 128 -42q13 -7 5 -20l-33 -46q-7 -10 -19 -3q-44 29 -97 29q-72 0 -121 -51q-48 -51 -48 -125t48 -125
q50 -51 121 -51q53 0 99 28q12 8 18 -3l33 -47q8 -11 -4 -19q-52 -36 -130 -41z" />
    <glyph glyph-name="sterling" unicode="&#xa3;" horiz-adv-x="546" 
d="M506 74v-48q0 -13 -11 -19q-35 -20 -89 -20q-50 -1 -105 10q-46 10 -107 13q-56 4 -93 -9q-13 -4 -13 11v283h-49q-13 0 -13 13v33q0 14 13 14h49q0 120 19 186q19 67 87 117q67 42 149 40.5t151 -36.5q13 -6 7 -15l-15 -43q-6 -11 -15 -8q-36 17 -74 26q-97 22 -158 -21
q-58 -42 -70 -107q-7 -39 -8 -59q-1 -15 -1 -68v-12h196q13 0 13 -14v-33q0 -13 -13 -13h-196v-218q65 9 172 -14q102 -20 160 16q14 9 14 -5z" />
    <glyph glyph-name="currency" unicode="&#xa4;" horiz-adv-x="546" 
d="M271 457q-54 0 -95 -41q-39 -40 -39 -96t39 -96q39 -39 95 -39q55 0 96 39q41 41 41 96t-41 96t-96 41zM454 94l-60 59q-48 -42 -122 -42q-29 0 -63.5 10.5t-57.5 30.5l-59 -60q-9 -9 -18 0l-29 28q-9 9 0 19l59 60q-41 56 -41 121q0 60 42 123l-61 60q-8 9 1 19l28 28
q10 7 19 0l61 -60q51 39 119 39q67 0 122 -40l60 59q9 9 18 0l28 -28q9 -8 1 -19l-60 -60q40 -49 40 -121q0 -69 -39 -121l58 -59q9 -9 0 -18l-28 -28q-10 -8 -18 0z" />
    <glyph glyph-name="yen" unicode="&#xa5;" horiz-adv-x="602" 
d="M257 164h-185q-13 0 -13 14v45q0 13 13 13h185v107h-185q-13 0 -13 13v45q0 14 13 14h139l-176 272q-7 13 6 13h73q11 0 16 -8l171 -271l172 271q5 8 15 8h73q13 0 6 -13l-176 -272h139q12 0 12 -14v-45q0 -13 -12 -13h-184v-107h184q12 0 12 -13v-45q0 -14 -12 -14h-184
v-151q0 -13 -14 -13h-62q-13 0 -13 13v151z" />
    <glyph glyph-name="brokenbar" unicode="&#xa6;" horiz-adv-x="258" 
d="M173 708v-398q0 -13 -14 -13h-60q-13 0 -13 13v398q0 13 13 13h60q14 0 14 -13zM173 224v-398q0 -13 -14 -13h-60q-13 0 -13 13v398q0 13 13 13h60q14 0 14 -13z" />
    <glyph glyph-name="section" unicode="&#xa7;" horiz-adv-x="545" 
d="M451 61q50 -50 50 -132q0 -81 -61 -139q-60 -60 -171 -60q-116 0 -223 83q-9 9 -3 19l32 48q9 13 20 2q79 -64 175 -64q66 0 103.5 30t37.5 80q0 81 -125 124q-31 11 -45 16t-44 18t-45 23t-37 27t-32.5 35t-18.5 43t-8 53q0 75 61 127q-61 48 -61 133q0 81 65 132
q66 51 159 51q100 0 186 -57q11 -7 4 -19l-33 -50q-7 -12 -21 -4q-70 43 -141 43q-55 0 -92.5 -26.5t-37.5 -69.5q0 -36 26 -64q13 -13 31.5 -24t33.5 -17t43.5 -16.5t43.5 -16.5q48 -20 85 -40q42 -22 67.5 -63.5t25.5 -96.5q0 -72 -50 -128zM376 109q35 30 35 79
q0 58 -51 87q-25 14 -49 24q-104 42 -111 46q-55 -30 -55 -78q0 -35 24 -61t59 -38l77 -27q48 -17 71 -32z" />
    <glyph glyph-name="dieresis" unicode="&#xa8;" horiz-adv-x="384" 
d="M50 526q-15 16 -15 39t15 38q16 16 38 16t38 -16q16 -15 16 -38t-16 -39q-16 -15 -38 -15t-38 15zM295 619q23 0 39 -15.5t16 -38.5t-16 -38.5t-39 -15.5q-22 0 -37.5 15.5t-15.5 38.5t15.5 38.5t37.5 15.5z" />
    <glyph glyph-name="copyright" unicode="&#xa9;" horiz-adv-x="850" 
d="M532 216q-40 -27 -96 -27q-74 0 -129 53q-53 53 -53 129t53 129q55 53 129 53q61 0 95 -28q10 -7 4 -16l-14 -19q-7 -10 -19 -3q-29 17 -65 17q-60 0 -97 -40q-38 -40 -38 -94q0 -52 37 -92t98 -40q35 0 67 18q12 7 19 -3l13 -19q9 -11 -4 -18zM428 765q157 0 270 -116
t113 -277q0 -160 -112 -275q-111 -114 -271 -114q-162 0 -275 114q-113 116 -113 275q0 162 113 278q112 115 275 115zM428 21q141 0 242 100q102 101 102 251q0 142 -99 249q-99 106 -245 106q-142 0 -246 -105q-104 -104 -104 -250q0 -143 103 -247q104 -104 247 -104z
" />
    <glyph glyph-name="ordfeminine" unicode="&#xaa;" horiz-adv-x="442" 
d="M98 732q43 21 106 21q78 0 112 -35.5t34 -106.5v-149q0 -10 -11 -10h-36q-11 0 -11 10v26q-46 -42 -123 -42q-46 -1 -74.5 20.5t-27.5 66.5q0 97 211 97h12v2q0 9 -2.5 18t-10.5 21.5t-27.5 20.5t-48.5 8q-35 0 -73 -12l-12 -3q-10 -3 -13 5l-11 27q-3 12 6 15zM291 549
v40h-8q-79 0 -118 -12.5t-38 -42.5q0 -46 65 -46q36 0 68 20q31 19 31 41z" />
    <glyph glyph-name="guillemotleft" unicode="&#xab;" horiz-adv-x="500" 
d="M330 229l123 -182q9 -13 -8 -13h-60q-13 0 -19 13l-116 171q-8 10 0 21l116 173q6 13 19 13h61q7 0 9.5 -4t-1.5 -9zM110 229l124 -182q7 -13 -8 -13h-60q-13 0 -20 13l-115 171q-7 10 0 21l115 173q7 13 20 13h61q7 0 9 -4t-2 -9z" />
    <glyph glyph-name="logicalnot" unicode="&#xac;" horiz-adv-x="630" 
d="M531 41h-51q-13 0 -13 12v205h-385q-13 0 -13 13v51q0 13 13 13h462v-282q0 -12 -13 -12z" />
    <glyph glyph-name="uni00AD" unicode="&#xad;" horiz-adv-x="452" 
d="M85 297h282q13 0 13 -13v-61q0 -13 -13 -13h-282q-12 0 -12 13v61q0 13 12 13z" />
    <glyph glyph-name="registered" unicode="&#xae;" horiz-adv-x="850" 
d="M428 765q157 0 270 -116t113 -277q0 -160 -112 -275q-111 -114 -271 -114q-162 0 -275 114q-113 116 -113 275q0 162 113 278q112 115 275 115zM428 21q141 0 242 100q102 101 102 251q0 142 -99 249q-99 106 -245 106q-142 0 -246 -105q-104 -104 -104 -250
q0 -143 103 -247q104 -104 247 -104zM426 550h-89v-179h89q42 0 67.5 25.5t25.5 65.5q0 37 -26 62.5t-67 25.5zM458 328l111 -152q3 -2 2.5 -6t-4.5 -4h-35q-9 0 -16 10l-110 148h-69v-146q0 -12 -10 -12h-26q-10 0 -10 12v408q0 10 10 10h125q58 0 98 -39q41 -38 41 -95
q0 -61 -35 -94q-36 -33 -72 -40z" />
    <glyph glyph-name="overscore" unicode="&#xaf;" horiz-adv-x="430" 
 />
    <glyph glyph-name="degree" unicode="&#xb0;" horiz-adv-x="421" 
d="M86 401q-51 53 -51 125q0 73 51 124q52 52 125 52t124 -52q52 -51 52 -124t-52 -125q-51 -51 -124 -51t-125 51zM95 525q0 -50 32.5 -82.5t82.5 -32.5t84 33t34 82q0 50 -34 84t-84 34t-82.5 -33.5t-32.5 -84.5z" />
    <glyph glyph-name="plusminus" unicode="&#xb1;" horiz-adv-x="550" 
d="M56 124h437q13 0 13 -13v-51q0 -13 -13 -13h-437q-13 0 -13 13v51q0 13 13 13zM315 401v-176q0 -13 -13 -13h-51q-13 0 -13 13v176h-177q-12 0 -12 13v51q0 13 12 13h177v175q0 12 13 12h51q13 0 13 -12v-175h176q12 0 12 -13v-51q0 -13 -12 -13h-176z" />
    <glyph glyph-name="uni00B2" unicode="&#xb2;" horiz-adv-x="301" 
d="M135 513h97q9 0 9 -8v-36q0 -9 -9 -9h-177q-9 0 -9 9v9q0 7 4 10l72 75q50 54 50 95q0 50 -44 50q-18 0 -46 -15q-10 -6 -14 3l-18 27q-5 8 3 13q39 24 80 24q42 0 67.5 -26t25.5 -68q0 -40 -21 -73.5t-70 -79.5z" />
    <glyph glyph-name="uni00B3" unicode="&#xb3;" horiz-adv-x="276" 
d="M111 592q-6 0 -6 6v28q0 7 6 7q59 0 59 40q0 35 -38 35q-16 0 -46 -14q-8 -5 -14 3l-16 26q-4 9 3 13q41 24 78 24t60.5 -21.5t23.5 -54.5q0 -48 -51 -71q56 -18 56 -72q0 -40 -26 -64t-70 -24q-38 0 -79 24q-9 6 -3 13l18 27q5 9 14 3q27 -15 48 -15q48 0 48 41
q0 22 -17.5 34t-47.5 12z" />
    <glyph glyph-name="acute" unicode="&#xb4;" horiz-adv-x="229" 
d="M77 555l-33 15q-11 6 -5 17l77 154q6 12 18 8l50 -17q12 -3 5 -16l-93 -155q-7 -10 -19 -6z" />
    <glyph glyph-name="uni00B5" unicode="&#xb5;" 
d="M162 55v-292q0 -13 -14 -13h-61q-13 0 -13 13v724q0 13 13 13h61q14 0 14 -13v-249q0 -75 34.5 -119.5t97.5 -44.5q61 0 103 53q43 52 43 117v243q0 13 13 13h62q13 0 13 -13v-474q0 -13 -13 -13h-62q-13 0 -13 13v85q-18 -41 -57 -70.5t-87 -31.5q-87 -5 -134 59z" />
    <glyph glyph-name="paragraph" unicode="&#xb6;" horiz-adv-x="627" 
d="M432 -219v829h-128v-829q0 -13 -13 -13h-46q-13 0 -13 13v497q-82 0 -143 59q-59 61 -59 143q0 83 59 142q60 60 143 60h346q13 0 13 -13v-46q0 -13 -13 -13h-74v-829q0 -13 -13 -13h-46q-13 0 -13 13z" />
    <glyph glyph-name="middot" unicode="&#xb7;" horiz-adv-x="181" 
d="M35 329q0 23 16 39.5t39 16.5q24 0 40.5 -16.5t16.5 -39.5q0 -24 -16.5 -40t-40.5 -16q-23 0 -39 16t-16 40z" />
    <glyph glyph-name="cedilla" unicode="&#xb8;" horiz-adv-x="184" 
d="M34 -165l39 160q3 12 14 12h44q11 0 9 -12l-27 -160q-2 -11 -16 -11h-53q-12 0 -10 11z" />
    <glyph glyph-name="uni00B9" unicode="&#xb9;" horiz-adv-x="247" 
d="M58 742l85 13h9q9 0 9 -9v-277q0 -9 -9 -9h-37q-9 0 -9 9v226l-41 -6q-7 -1 -9 7l-5 36q0 10 7 10z" />
    <glyph glyph-name="ordmasculine" unicode="&#xba;" horiz-adv-x="579" 
d="M289 510q108 0 181 -76q74 -77 74 -184t-74 -184q-73 -76 -181 -76q-107 0 -181 75q-73 76 -73 185q0 110 73 184q73 76 181 76zM458 250q0 76 -49 125q-48 51 -120 51q-71 0 -121 -51q-48 -51 -48 -125t48 -125q50 -51 121 -51q72 0 120 51q49 50 49 125z" />
    <glyph glyph-name="guillemotright" unicode="&#xbb;" horiz-adv-x="500" 
d="M47 47l123 182l-124 183q-4 5 -1.5 9t9.5 4h61q13 0 19 -13l116 -173q5 -8 2 -18l-2 -3l-116 -171q-6 -13 -19 -13h-61q-7 0 -9 4t2 9zM266 47l124 182l-124 183q-4 5 -2 9t9 4h61q13 0 20 -13l115 -173q6 -11 1 -18l-1 -3l-115 -171q-7 -13 -20 -13h-60q-15 0 -8 13z
" />
    <glyph glyph-name="onequarter" unicode="&#xbc;" horiz-adv-x="737" 
d="M149 13l387 674q7 13 17 13h47q16 0 9 -13l-387 -674q-7 -13 -17 -13h-47q-16 0 -9 13zM603 62h-112q-9 0 -9 9v26l72 188q3 10 14 10h32q10 0 7 -10l-68 -176h65v45q0 9 9 9h30q9 0 9 -9v-45h26q9 0 9 -9v-29q0 -9 -9 -9h-26v-53q0 -9 -9 -9h-32q-8 0 -8 9v53zM111 532
q-6 0 -6 6v28q0 7 6 7q59 0 59 40q0 35 -38 35q-16 0 -46 -14q-8 -5 -14 3l-16 26q-4 9 3 13q41 24 78 24t60.5 -21.5t23.5 -54.5q0 -48 -51 -71q56 -18 56 -72q0 -40 -26 -64t-70 -24q-38 0 -79 24q-9 6 -3 13l18 27q5 9 14 3q27 -15 48 -15q48 0 48 41q0 22 -17.5 34
t-47.5 12z" />
    <glyph glyph-name="onehalf" unicode="&#xbd;" horiz-adv-x="691" 
d="M58 688l85 13h9q9 0 9 -9v-277q0 -9 -9 -9h-37q-9 0 -9 9v226l-41 -6q-7 -1 -9 7l-5 36q0 10 7 10zM525 53h98q9 0 9 -8v-36q0 -9 -9 -9h-177q-9 0 -9 9v9q0 7 4 10q58 59 71 75q50 56 50 95q0 50 -43 50q-18 0 -47 -15q-9 -5 -14 3l-17 27q-5 8 3 13q39 24 80 24
q42 0 67.5 -26t25.5 -68q0 -30 -15 -60q-16 -31 -31 -47q-22 -25 -46 -46zM91 13l387 674q6 13 17 13h46q17 0 10 -13l-388 -674q-7 -13 -17 -13h-46q-16 0 -9 13z" />
    <glyph glyph-name="threequarters" unicode="&#xbe;" horiz-adv-x="677" 
d="M58 688l85 13h9q9 0 9 -9v-277q0 -9 -9 -9h-37q-9 0 -9 9v226l-41 -6q-7 -1 -9 7l-5 36q0 10 7 10zM91 13l387 674q6 13 17 13h46q17 0 10 -13l-388 -674q-7 -13 -17 -13h-46q-16 0 -9 13zM544 62h-112q-9 0 -9 9v26l71 188q4 10 15 10h32q10 0 6 -10l-67 -176h64v45
q0 9 9 9h30q9 0 9 -9v-45h27q9 0 9 -9v-29q0 -9 -9 -9h-27v-53q0 -9 -9 -9h-31q-8 0 -8 9v53z" />
    <glyph glyph-name="questiondown" unicode="&#xbf;" horiz-adv-x="442" 
d="M373 120l32 -50q7 -10 -4 -19q-83 -61 -173 -61q-85 0 -135 47t-50 118q0 73 56 131q3 3 19 19.5t21.5 22.5t18.5 21.5t18 25.5t12.5 25.5t10.5 31.5t3 33v40q0 16 14 16h60q12 0 12 -16v-40q0 -94 -55 -153q-8 -8 -33 -32.5t-35.5 -36.5t-21.5 -33.5t-11 -42.5
q0 -40 28.5 -65.5t73.5 -25.5q57 0 120 48q11 8 19 -4zM302 654q0 -23 -16 -39.5t-40 -16.5q-23 0 -39.5 16.5t-16.5 39.5q0 24 16.5 40t39.5 16q24 0 40 -16t16 -40z" />
    <glyph glyph-name="Agrave" unicode="&#xc0;" horiz-adv-x="616" 
d="M96 0h-65q-14 0 -10 13l228 674q4 13 16 13h85q13 0 16 -13l229 -674q6 -13 -10 -13h-66q-15 0 -19 15l-55 162h-275l-55 -164q-3 -13 -19 -13zM423 261l-115 333l-116 -333h231zM339 776l-34 -15q-11 -5 -18 5l-94 156q-8 11 6 16l49 17q14 3 18 -9l78 -153
q6 -12 -5 -17z" />
    <glyph glyph-name="Aacute" unicode="&#xc1;" horiz-adv-x="616" 
d="M96 0h-65q-14 0 -10 13l228 674q4 13 16 13h85q13 0 16 -13l229 -674q6 -13 -10 -13h-66q-15 0 -19 15l-55 162h-275l-55 -164q-3 -13 -19 -13zM423 261l-115 333l-116 -333h231zM313 761l-34 15q-9 4 -5 17l78 153q4 12 18 9l49 -17q14 -5 6 -16l-94 -156q-7 -10 -18 -5
z" />
    <glyph glyph-name="Acircumflex" unicode="&#xc2;" horiz-adv-x="616" 
d="M96 0h-65q-14 0 -10 13l228 674q4 13 16 13h85q13 0 16 -13l229 -674q6 -13 -10 -13h-66q-15 0 -19 15l-55 162h-275l-55 -164q-3 -13 -19 -13zM423 261l-115 333l-116 -333h231zM288 940h38q14 0 26 -14l116 -125q10 -9 -1 -20l-19 -23q-10 -10 -20 1l-121 118
l-120 -118q-12 -11 -20 -1l-19 23q-11 11 -1 20l116 125q12 14 25 14z" />
    <glyph glyph-name="Atilde" unicode="&#xc3;" horiz-adv-x="616" 
d="M96 0h-65q-14 0 -10 13l228 674q4 13 16 13h85q13 0 16 -13l229 -674q6 -13 -10 -13h-66q-15 0 -19 15l-55 162h-275l-55 -164q-3 -13 -19 -13zM423 261l-115 333l-116 -333h231zM379 862q33 0 83 57q9 11 14 -4l11 -40q4 -12 -4 -20q-49 -58 -101 -58q-32 0 -78 32
q-44 32 -66 32q-37 0 -83 -58q-9 -11 -15 5l-10 40q-4 10 4 20q21 25 48.5 41.5t51.5 16.5q35 0 79 -32q46 -32 66 -32z" />
    <glyph glyph-name="Adieresis" unicode="&#xc4;" horiz-adv-x="616" 
d="M96 0h-65q-14 0 -10 13l228 674q4 13 16 13h85q13 0 16 -13l229 -674q6 -13 -10 -13h-66q-15 0 -19 15l-55 162h-275l-55 -164q-3 -13 -19 -13zM423 261l-115 333l-116 -333h231zM166 798q-16 16 -16 38t16 38t38 16t38 -16t16 -38t-16 -38t-38 -16t-38 16zM411 890
q23 0 39 -15.5t16 -38.5t-16 -38.5t-39 -15.5q-22 0 -37.5 15.5t-15.5 38.5t15.5 38.5t37.5 15.5z" />
    <glyph glyph-name="Aring" unicode="&#xc5;" horiz-adv-x="616" 
d="M96 0h-65q-14 0 -10 13l228 674q4 13 16 13h85q13 0 16 -13l229 -674q6 -13 -10 -13h-66q-15 0 -19 15l-55 162h-275l-55 -164q-3 -13 -19 -13zM423 261l-115 333l-116 -333h231zM228 780q-33 34 -33 80t33 79t80 33t80 -33t33 -79t-34 -80q-33 -33 -79 -33t-80 33z
M269 899q-16 -16 -16 -39t16 -39t39 -16t39 16t16 39t-16 39t-39 16t-39 -16z" />
    <glyph glyph-name="AE" unicode="&#xc6;" horiz-adv-x="841" 
d="M367 260h29v317h-1l-158 -317h130zM99 0h-67q-17 0 -10 13l332 674q4 13 20 13h406q13 0 13 -13v-61q0 -13 -13 -13h-291v-221h257q13 0 13 -13v-58q0 -13 -13 -13h-257v-221h292q13 0 13 -13v-61q0 -13 -13 -13h-372q-13 0 -13 13v164h-197l-83 -164q-7 -13 -17 -13z
" />
    <glyph glyph-name="Ccedilla" unicode="&#xc7;" horiz-adv-x="656" 
d="M314 -165l39 159q-143 16 -228 117q-85 100 -85 238q0 153 102 257t255 104q108 0 192 -54q11 -8 5 -19l-33 -50q-7 -13 -20 -4q-70 41 -144 41q-115 0 -192 -80t-77 -195q0 -114 77 -194q76 -79 192 -79q85 0 147 42q11 7 19 -4l32 -50q7 -12 -3 -19q-80 -47 -172 -54
l-27 -156q-2 -11 -15 -11h-54q-12 0 -10 11z" />
    <glyph glyph-name="Egrave" unicode="&#xc8;" horiz-adv-x="560" 
d="M104 700h394q14 0 14 -13v-61q0 -13 -14 -13h-319v-221h284q14 0 14 -13v-58q0 -13 -14 -13h-284v-221h320q13 0 13 -13v-61q0 -13 -13 -13h-395q-13 0 -13 13v674q0 13 13 13zM341 776l-34 -15q-11 -5 -18 6l-94 155q-7 13 6 16l49 17q13 4 18 -8l78 -154q6 -12 -5 -17z
" />
    <glyph glyph-name="Eacute" unicode="&#xc9;" horiz-adv-x="560" 
d="M104 700h394q14 0 14 -13v-61q0 -13 -14 -13h-319v-221h284q14 0 14 -13v-58q0 -13 -14 -13h-284v-221h320q13 0 13 -13v-61q0 -13 -13 -13h-395q-13 0 -13 13v674q0 13 13 13zM295 762l-34 15q-9 4 -5 17l78 154q5 12 18 8l49 -17q14 -5 6 -16l-94 -155q-6 -10 -18 -6z
" />
    <glyph glyph-name="Ecircumflex" unicode="&#xca;" horiz-adv-x="560" 
d="M104 700h394q14 0 14 -13v-61q0 -13 -14 -13h-319v-221h284q14 0 14 -13v-58q0 -13 -14 -13h-284v-221h320q13 0 13 -13v-61q0 -13 -13 -13h-395q-13 0 -13 13v674q0 13 13 13zM281 940h38q13 0 26 -13l116 -125q9 -10 -1 -20l-19 -23q-9 -10 -20 1l-121 117l-120 -117
q-12 -10 -21 -1l-19 23q-9 10 -1 20l117 125q10 13 25 13z" />
    <glyph glyph-name="Edieresis" unicode="&#xcb;" horiz-adv-x="560" 
d="M104 700h395q13 0 13 -13v-61q0 -13 -13 -13h-319v-221h284q13 0 13 -13v-58q0 -13 -13 -13h-284v-221h320q13 0 13 -13v-61q0 -13 -13 -13h-396q-13 0 -13 13v674q0 13 13 13zM154 798q-15 16 -15 38t15 38q16 16 39 16t38 -16q16 -16 16 -38t-16 -38q-15 -16 -38 -16
t-39 16zM400 890q23 0 39 -15.5t16 -38.5t-16 -38.5t-39 -15.5q-22 0 -37.5 15.5t-15.5 38.5t15.5 38.5t37.5 15.5z" />
    <glyph glyph-name="Igrave" unicode="&#xcc;" horiz-adv-x="270" 
d="M166 0h-62q-13 0 -13 13v674q0 13 13 13h62q13 0 13 -13v-674q0 -13 -13 -13zM159 776l-34 -15q-12 -4 -19 6l-93 155q-7 13 5 16l50 17q13 4 18 -8l78 -154q6 -12 -5 -17z" />
    <glyph glyph-name="Iacute" unicode="&#xcd;" horiz-adv-x="275" 
d="M169 0h-62q-13 0 -13 13v674q0 13 13 13h62q14 0 14 -13v-674q0 -13 -14 -13zM148 762l-33 15q-11 6 -5 17l77 154q6 12 18 8l50 -17q12 -3 6 -16l-94 -155q-7 -10 -19 -6z" />
    <glyph glyph-name="Icircumflex" unicode="&#xce;" horiz-adv-x="270" 
d="M166 0h-62q-13 0 -13 13v674q0 13 13 13h62q13 0 13 -13v-674q0 -13 -13 -13zM116 940h38q12 0 25 -13l116 -125q9 -10 -1 -20l-19 -23q-8 -10 -20 1l-120 117l-121 -117q-12 -11 -20 -1l-19 23q-11 10 -1 20l116 125q10 13 26 13z" />
    <glyph glyph-name="Idieresis" unicode="&#xcf;" horiz-adv-x="270" 
d="M166 0h-62q-13 0 -13 13v674q0 13 13 13h62q13 0 13 -13v-674q0 -13 -13 -13zM-7 798q-16 16 -16 38t16 38q15 16 38 16t38 -16q16 -16 16 -38t-16 -38q-15 -16 -38 -16t-38 16zM238 890q23 0 39 -15.5t16 -38.5t-16 -38.5t-39 -15.5q-22 0 -37.5 15.5t-15.5 38.5
t15.5 38.5t37.5 15.5z" />
    <glyph glyph-name="Eth" unicode="&#xd0;" horiz-adv-x="733" 
d="M91 317h-63q-12 0 -12 14v41q0 14 12 14h63v301q0 13 12 13h238q150 0 250 -102q102 -100 102 -249q0 -145 -102 -247q-100 -102 -250 -102h-238q-12 0 -12 13v304zM179 386h107q13 0 13 -13v-43q0 -13 -13 -13h-107v-230h158q113 0 190 76q78 77 78 185q0 114 -78 189
q-76 76 -190 76h-158v-227z" />
    <glyph glyph-name="Ntilde" unicode="&#xd1;" horiz-adv-x="739" 
d="M635 0h-63q-12 0 -22 13l-371 531v-531q0 -13 -13 -13h-62q-13 0 -13 13v674q0 13 13 13h63q12 0 22 -13l371 -531v531q0 13 13 13h62q14 0 14 -13v-674q0 -13 -14 -13zM437 862q35 0 84 57q9 13 14 -4l11 -40q3 -12 -5 -20q-21 -25 -48.5 -41.5t-51.5 -16.5
q-33 0 -79 32q-44 32 -65 32q-35 0 -84 -58q-10 -10 -14 5l-11 40q-4 10 5 20q21 25 48.5 41.5t51.5 16.5q35 0 79 -32t65 -32z" />
    <glyph glyph-name="Ograve" unicode="&#xd2;" horiz-adv-x="795" 
d="M755 349q0 -152 -103 -255q-104 -104 -255 -104q-152 0 -255 103q-102 103 -102 256q0 152 102 256q104 105 255 105t255 -105q103 -103 103 -256zM397 76q115 0 191 79q78 80 78 194q0 115 -77 195t-192 80t-192 -80t-77 -195q0 -114 77 -194q76 -79 192 -79zM421 777
l-34 -15q-11 -5 -18 5l-94 156q-8 11 6 16l49 17q14 3 18 -9l78 -153q6 -12 -5 -17z" />
    <glyph glyph-name="Oacute" unicode="&#xd3;" horiz-adv-x="795" 
d="M755 349q0 -152 -103 -255q-104 -104 -255 -104q-152 0 -255 103q-102 103 -102 256q0 152 102 256q104 105 255 105t255 -105q103 -103 103 -256zM397 76q115 0 191 79q78 80 78 194q0 115 -77 195t-192 80t-192 -80t-77 -195q0 -114 77 -194q76 -79 192 -79zM411 762
l-33 15q-11 5 -5 17l77 153q6 12 18 9l50 -17q12 -4 6 -16l-94 -156q-7 -10 -19 -5z" />
    <glyph glyph-name="Ocircumflex" unicode="&#xd4;" horiz-adv-x="795" 
d="M755 349q0 -152 -103 -255q-104 -104 -255 -104q-152 0 -255 103q-102 103 -102 256q0 152 102 256q104 105 255 105t255 -105q103 -103 103 -256zM397 76q115 0 191 79q78 80 78 194q0 115 -77 195t-192 80t-192 -80t-77 -195q0 -114 77 -194q76 -79 192 -79zM378 941
h38q13 0 26 -13l116 -126q10 -10 -1 -20l-19 -22q-9 -10 -20 1l-121 117l-120 -117q-12 -12 -21 -1l-19 22q-9 12 -1 20l117 126q13 13 25 13z" />
    <glyph glyph-name="Otilde" unicode="&#xd5;" horiz-adv-x="795" 
d="M755 349q0 -152 -103 -255q-104 -104 -255 -104q-152 0 -255 103q-102 103 -102 256q0 152 102 256q104 105 255 105t255 -105q103 -103 103 -256zM397 76q115 0 191 79q78 80 78 194q0 115 -77 195t-192 80t-192 -80t-77 -195q0 -114 77 -194q76 -79 192 -79zM468 862
q35 0 83 57q11 11 15 -4l11 -40q3 -12 -5 -20q-21 -25 -48.5 -41.5t-51.5 -16.5q-33 0 -79 32q-44 32 -66 32q-34 0 -83 -58q-10 -10 -14 5l-11 40q-4 10 4 20q49 58 101 58q35 0 79 -32t65 -32z" />
    <glyph glyph-name="Odieresis" unicode="&#xd6;" horiz-adv-x="795" 
d="M755 349q0 -152 -103 -255q-104 -104 -255 -104q-152 0 -255 103q-102 103 -102 256q0 152 102 256q104 105 255 105t255 -105q103 -103 103 -256zM397 76q115 0 191 79q78 80 78 194q0 115 -77 195t-192 80t-192 -80t-77 -195q0 -114 77 -194q76 -79 192 -79zM293 890
q23 0 39 -15.5t16 -38.5t-16 -38.5t-39 -15.5q-22 0 -37.5 15.5t-15.5 38.5t15.5 38.5t37.5 15.5zM462 797q-15 16 -15 39t15 38q16 16 39 16t38 -16q16 -16 16 -38t-16 -38q-15 -16 -38 -16t-39 15z" />
    <glyph glyph-name="multiply" unicode="&#xd7;" horiz-adv-x="448" 
d="M278 292l125 -125q7 -7 0 -18l-36 -36q-10 -9 -18 -1l-126 125l-124 -125q-9 -8 -18 1l-36 36q-9 9 -1 18l125 125l-123 123q-9 9 0 19l36 36q10 7 19 0l122 -123l125 124q8 9 18 -1l36 -36q10 -10 1 -18z" />
    <glyph glyph-name="Oslash" unicode="&#xd8;" horiz-adv-x="793" 
d="M232 134l294 455q-61 35 -130 35q-110 0 -189 -81q-79 -79 -79 -194q0 -134 104 -215zM665 728l-56 -87q144 -111 144 -292q0 -147 -103 -253t-254 -106q-96 0 -178 47l-37 -58q-6 -9 -14 -9h-25q-6 0 -9.5 2.5t-0.5 6.5l52 80q-144 114 -144 290q0 148 104 255
q103 106 252 106q93 0 178 -47l42 65q6 9 16 9h22q7 0 10 -2.5t1 -6.5zM560 565l-295 -454q59 -35 131 -35q111 0 191 80q79 80 79 193q0 66 -28 123t-78 93z" />
    <glyph glyph-name="Ugrave" unicode="&#xd9;" horiz-adv-x="691" 
d="M94 700h62q13 0 13 -13v-407q0 -94 46.5 -149t129.5 -55t130 55t47 149v407q0 13 13 13h62q13 0 13 -13v-421q0 -118 -71 -198q-71 -78 -194 -78t-194 78q-70 79 -70 198v421q0 13 13 13zM364 776l-34 -15q-10 -5 -18 6l-94 155q-7 13 6 16l50 17q12 5 17 -8l78 -154
q6 -12 -5 -17z" />
    <glyph glyph-name="Uacute" unicode="&#xda;" horiz-adv-x="691" 
d="M94 700h62q13 0 13 -13v-407q0 -94 46.5 -149t129.5 -55t130 55t47 149v407q0 13 13 13h62q13 0 13 -13v-421q0 -118 -71 -198q-71 -78 -194 -78t-194 78q-70 79 -70 198v421q0 13 13 13zM346 762l-34 15q-9 4 -5 17l78 153q5 12 18 9l49 -17q14 -5 6 -16l-94 -156
q-7 -10 -18 -5z" />
    <glyph glyph-name="Ucircumflex" unicode="&#xdb;" horiz-adv-x="691" 
d="M94 700h62q13 0 13 -13v-407q0 -94 46.5 -149t129.5 -55t130 55t47 149v407q0 13 13 13h62q13 0 13 -13v-421q0 -118 -71 -198q-71 -78 -194 -78t-194 78q-70 79 -70 198v421q0 13 13 13zM326 940h38q13 0 26 -13l116 -125q10 -10 -1 -20l-19 -23q-9 -10 -20 1l-121 117
l-120 -117q-12 -11 -20 -1l-19 23q-10 10 -1 20l116 125q10 13 25 13z" />
    <glyph glyph-name="Udieresis" unicode="&#xdc;" horiz-adv-x="691" 
d="M94 700h62q13 0 13 -13v-407q0 -94 46.5 -149t129.5 -55t130 55t47 149v407q0 13 13 13h62q13 0 13 -13v-421q0 -118 -71 -198q-71 -78 -194 -78t-194 78q-70 79 -70 198v421q0 13 13 13zM204 798q-16 16 -16 38t16 38t38 16t38 -16t16 -38t-16 -38t-38 -16t-38 16z
M411 797q-15 16 -15 39t15 38q15 16 38 16t38 -16q16 -15 16 -38t-16 -39q-15 -15 -38 -15t-38 15z" />
    <glyph glyph-name="Yacute" unicode="&#xdd;" horiz-adv-x="585" 
d="M121 692l172 -271l171 271q5 8 16 8h73q12 0 5 -13l-221 -344v-330q0 -13 -13 -13h-62q-13 0 -13 13v330l-222 344q-7 13 6 13h73q10 0 15 -8zM298 761l-33 15q-11 5 -6 17l78 154q6 12 18 8l50 -17q13 -4 5 -16l-93 -155q-7 -12 -19 -6z" />
    <glyph glyph-name="Thorn" unicode="&#xde;" horiz-adv-x="573" 
d="M179 225h123q69 0 112.5 41t43.5 108q0 66 -43 105.5t-113 39.5h-123v-294zM91 13v724q0 13 12 13h64q12 0 12 -13v-136h140q101 0 164 -65q63 -64 63 -162q0 -95 -65 -163t-162 -68h-140v-130q0 -13 -12 -13h-64q-12 0 -12 13z" />
    <glyph glyph-name="germandbls" unicode="&#xdf;" horiz-adv-x="587" 
d="M231 2q-11 2 -11 15v63q0 16 12 12q88 -19 154 13q65 33 65 112q0 64 -59 102q-59 40 -136 41q-11 0 -11 14v64q0 12 12 12q69 0 108 28.5t39 82.5q0 45 -31.5 73.5t-83.5 28.5q-50 0 -79 -34t-29 -86v-531q0 -12 -12 -12h-66q-12 0 -12 12v531q0 90 55 148q56 59 148 59
q83 0 142 -50t59 -131q0 -55 -27.5 -98t-80.5 -61q69 -21 111.5 -74.5t42.5 -121.5q0 -121 -90 -178q-89 -57 -220 -34z" />
    <glyph glyph-name="agrave" unicode="&#xe0;" horiz-adv-x="626" 
d="M111 473q75 37 183 37q143 0 193 -68q47 -59 47 -172v-255q0 -15 -15 -15h-55q-14 0 -14 15v51q-80 -76 -210 -76q-73 0 -123 33.5t-50 113.5q0 54 28.5 85t83.5 52q34 13 74 17q74 10 169 10h22v4q0 33 -10 58q-27 69 -146 69q-74 0 -130 -22l-20 -7q-15 -5 -19 8
l-16 42q-6 14 8 20zM447 153v92h-14q-143 0 -209 -23.5t-66 -81.5q0 -89 121 -89q63 0 116 33q52 33 52 69zM342 570l-33 -15q-12 -4 -19 6l-94 155q-7 13 6 16l50 17q12 4 18 -8l77 -154q6 -12 -5 -17z" />
    <glyph glyph-name="aacute" unicode="&#xe1;" horiz-adv-x="626" 
d="M111 473q75 37 183 37q143 0 193 -68q47 -59 47 -172v-255q0 -15 -15 -15h-55q-14 0 -14 15v51q-80 -76 -210 -76q-73 0 -123 33.5t-50 113.5q0 54 28.5 85t83.5 52q34 13 74 17q74 10 169 10h22v4q0 33 -10 58q-27 69 -146 69q-74 0 -130 -22l-20 -7q-15 -5 -19 8
l-16 42q-6 14 8 20zM447 153v92h-14q-143 0 -209 -23.5t-66 -81.5q0 -89 121 -89q63 0 116 33q52 33 52 69zM301 555l-33 15q-11 6 -5 17l77 154q6 12 18 8l50 -17q12 -3 5 -16l-93 -155q-7 -10 -19 -6z" />
    <glyph glyph-name="acircumflex" unicode="&#xe2;" horiz-adv-x="626" 
d="M111 473q75 37 183 37q143 0 193 -68q47 -59 47 -172v-255q0 -15 -15 -15h-55q-14 0 -14 15v51q-80 -76 -210 -76q-73 0 -123 33.5t-50 113.5q0 54 28.5 85t83.5 52q34 13 74 17q74 10 169 10h22v4q0 33 -10 58q-27 69 -146 69q-74 0 -130 -22l-20 -7q-15 -5 -19 8
l-16 42q-6 14 8 20zM447 153v92h-14q-143 0 -209 -23.5t-66 -81.5q0 -89 121 -89q63 0 116 33q52 33 52 69zM285 745h38q15 0 25 -13l117 -125q9 -9 -1 -20l-19 -23q-8 -9 -21 1l-120 118l-121 -118q-11 -11 -20 -1l-19 23q-10 11 -1 20l117 125q10 13 25 13z" />
    <glyph glyph-name="atilde" unicode="&#xe3;" horiz-adv-x="626" 
d="M111 473q75 37 183 37q143 0 193 -68q47 -59 47 -172v-255q0 -15 -15 -15h-55q-14 0 -14 15v51q-80 -76 -210 -76q-73 0 -123 33.5t-50 113.5q0 54 28.5 85t83.5 52q34 13 74 17q74 10 169 10h22v4q0 33 -10 58q-27 69 -146 69q-74 0 -130 -22l-20 -7q-15 -5 -19 8
l-16 42q-6 14 8 20zM447 153v92h-14q-143 0 -209 -23.5t-66 -81.5q0 -89 121 -89q63 0 116 33q52 33 52 69zM372 670q37 0 83 58q11 11 15 -5l10 -40q4 -10 -4 -20q-21 -25 -49 -41.5t-51 -16.5q-33 0 -79 32q-44 32 -66 32q-35 0 -83 -57q-10 -11 -14 4l-11 40q-4 12 4 20
q49 58 101 58q35 0 79 -32t65 -32z" />
    <glyph glyph-name="adieresis" unicode="&#xe4;" horiz-adv-x="626" 
d="M111 473q75 37 183 37q143 0 193 -68q47 -59 47 -172v-255q0 -15 -15 -15h-55q-14 0 -14 15v51q-80 -76 -210 -76q-73 0 -123 33.5t-50 113.5q0 54 28.5 85t83.5 52q34 13 74 17q74 10 169 10h22v4q0 33 -10 58q-27 69 -146 69q-74 0 -130 -22l-20 -7q-15 -5 -19 8
l-16 42q-6 14 8 20zM447 153v92h-14q-143 0 -209 -23.5t-66 -81.5q0 -89 121 -89q63 0 116 33q52 33 52 69zM147 643q0 23 15.5 39t38.5 16t38.5 -16t15.5 -39q0 -22 -15.5 -37.5t-38.5 -15.5t-38.5 15.5t-15.5 37.5zM408 698q23 0 39 -16t16 -39q0 -22 -16 -37.5t-39 -15.5
q-22 0 -37.5 15t-15.5 38t15.5 39t37.5 16z" />
    <glyph glyph-name="aring" unicode="&#xe5;" horiz-adv-x="626" 
d="M111 473q75 37 183 37q143 0 193 -68q47 -59 47 -172v-255q0 -15 -15 -15h-55q-14 0 -14 15v51q-80 -76 -210 -76q-73 0 -123 33.5t-50 113.5q0 54 28.5 85t83.5 52q34 13 74 17q74 10 169 10h22v4q0 33 -10 58q-27 69 -146 69q-74 0 -130 -22l-20 -7q-15 -5 -19 8
l-16 42q-6 14 8 20zM447 153v92h-14q-143 0 -209 -23.5t-66 -81.5q0 -89 121 -89q63 0 116 33q52 33 52 69zM303 782q47 0 80 -33t33 -80t-33 -80t-80 -33q-46 0 -79 33q-33 35 -33 80q0 46 33 79q33 34 79 34zM264 708q-16 -16 -16 -39t16 -39t39 -16t39 16q17 16 17 39
t-17 39q-16 16 -39 16t-39 -16z" />
    <glyph glyph-name="ae" unicode="&#xe6;" horiz-adv-x="1002" 
d="M111 473q75 37 183 37q143 0 193 -68q47 -59 47 -172v-255q0 -15 -15 -15h-55q-14 0 -14 15v51q-80 -76 -210 -76q-173 0 -173 140q4 47 24 75t62 42q56 20 123 24q44 3 70 3q18 1 76 1h22v4q0 47 -10 77q-20 70 -146 76q-74 0 -130 -22l-20 -7q-15 -5 -19 8l-16 42
q-6 14 8 20zM447 153v66h-14q-161 0 -211 -14q-64 -18 -64 -73q0 -43 30 -65q10 -7 31 -12q27 -5 60 -5q63 0 116 33q52 34 52 70zM739 65q75 0 137 37q12 6 19 -4l28 -39q6 -11 -4 -18q-83 -51 -182 -51q-107 0 -182 76q-74 77 -74 184t67 183q68 77 176 77q112 0 178 -80
t66 -192q0 -16 -17 -16h-386q7 -65 56 -112q48 -45 118 -45zM566 280h317q-7 72 -49.5 116t-109.5 44q-66 0 -109 -44.5t-49 -115.5z" />
    <glyph glyph-name="ccedilla" unicode="&#xe7;" horiz-adv-x="489" 
d="M214 -165l39 159q-102 15 -160 88t-58 168q0 110 73 184q73 76 181 76q80 0 145 -44q14 -8 5 -20l-34 -46q-7 -10 -19 -3q-44 29 -97 29q-71 0 -121 -51q-48 -51 -48 -125t48 -125q50 -51 121 -51q53 0 99 28q12 8 18 -3l34 -47q8 -11 -5 -19q-51 -34 -115 -41l-26 -157
q-2 -11 -16 -11h-53q-16 0 -11 11z" />
    <glyph glyph-name="egrave" unicode="&#xe8;" horiz-adv-x="555" 
d="M314 570l-33 -15q-12 -4 -19 6l-94 155q-7 13 6 16l50 17q12 4 18 -8l77 -154q6 -12 -5 -17zM292 65q75 0 137 37q13 7 19 -4l28 -39q6 -11 -4 -18q-83 -51 -182 -51q-108 0 -181 76q-74 77 -74 184t67 183q68 77 175 77q112 0 178 -80t66 -192q0 -16 -17 -16h-386
q7 -65 56 -112q48 -45 118 -45zM119 280h317q-7 72 -49.5 116t-109.5 44q-66 0 -109 -44.5t-49 -115.5z" />
    <glyph glyph-name="eacute" unicode="&#xe9;" horiz-adv-x="555" 
d="M292 65q75 0 137 37q13 7 19 -4l28 -39q6 -11 -4 -18q-83 -51 -182 -51q-108 0 -181 76q-74 77 -74 184t67 183q68 77 175 77q112 0 178 -80t66 -192q0 -16 -17 -16h-386q7 -65 56 -112q48 -45 118 -45zM119 280h317q-7 72 -49.5 116t-109.5 44q-66 0 -109 -44.5
t-49 -115.5zM285 555l-34 15q-10 6 -5 17l78 154q5 12 18 8l49 -17q13 -3 6 -16l-94 -155q-7 -11 -18 -6z" />
    <glyph glyph-name="ecircumflex" unicode="&#xea;" horiz-adv-x="555" 
d="M264 745h38q15 0 25 -13l117 -125q7 -10 -1 -20l-19 -23q-8 -8 -21 1l-120 118l-121 -118q-12 -9 -20 -1l-19 23q-11 11 -1 20l116 125q10 13 26 13zM292 65q75 0 137 37q13 7 19 -4l28 -39q6 -11 -4 -18q-83 -51 -182 -51q-108 0 -181 76q-74 77 -74 184t67 183
q68 77 175 77q112 0 178 -80t66 -192q0 -16 -17 -16h-386q7 -65 56 -112q48 -45 118 -45zM119 280h317q-7 72 -49.5 116t-109.5 44q-66 0 -109 -44.5t-49 -115.5z" />
    <glyph glyph-name="edieresis" unicode="&#xeb;" horiz-adv-x="555" 
d="M174 697q23 0 39 -15.5t16 -38.5q0 -22 -16 -37.5t-39 -15.5q-22 0 -37.5 15t-15.5 38t15.5 38.5t37.5 15.5zM381 697q23 0 39 -15.5t16 -38.5q2 -34 -34.5 -48.5t-58.5 10.5q-25 23 -10.5 59t48.5 33zM292 65q75 0 137 37q13 7 19 -4l28 -39q6 -11 -4 -18
q-83 -51 -182 -51q-108 0 -181 76q-74 77 -74 184t67 183q68 77 175 77q112 0 178 -80t66 -192q0 -16 -17 -16h-386q7 -65 56 -112q48 -45 118 -45zM119 280h317q-7 72 -49.5 116t-109.5 44q-66 0 -109 -44.5t-49 -115.5z" />
    <glyph glyph-name="igrave" unicode="&#xec;" horiz-adv-x="270" 
d="M165 0h-61q-13 0 -13 13v474q0 13 13 13h61q13 0 13 -13v-474q0 -13 -13 -13zM159 570l-34 -15q-11 -5 -18 6l-94 155q-7 13 6 16l49 17q13 4 18 -8l78 -154q6 -12 -5 -17z" />
    <glyph glyph-name="iacute" unicode="&#xed;" horiz-adv-x="271" 
d="M165 0h-61q-13 0 -13 13v474q0 13 13 13h61q13 0 13 -13v-474q0 -13 -13 -13zM146 555l-34 15q-11 6 -5 17l78 154q5 13 17 8l50 -17q12 -3 6 -16l-94 -155q-8 -11 -18 -6z" />
    <glyph glyph-name="icircumflex" unicode="&#xee;" horiz-adv-x="269" 
d="M115 745h38q16 0 26 -13l116 -125q9 -9 -1 -20l-19 -23q-8 -10 -20 1l-121 118l-120 -118q-12 -10 -21 -1l-19 23q-10 11 -1 20l117 125q10 13 25 13zM165 0h-61q-13 0 -13 13v474q0 13 13 13h61q13 0 13 -13v-474q0 -13 -13 -13z" />
    <glyph glyph-name="idieresis" unicode="&#xef;" horiz-adv-x="269" 
d="M30 697q23 0 39 -15.5t16 -38.5q0 -22 -16 -37.5t-39 -15.5q-22 0 -37.5 15t-15.5 38t15.5 38.5t37.5 15.5zM238 697q22 0 38 -15.5t16 -38.5q2 -34 -33.5 -48.5t-59.5 10.5q-25 23 -10.5 59t49.5 33zM165 0h-61q-13 0 -13 13v474q0 13 13 13h61q13 0 13 -13v-474
q0 -13 -13 -13z" />
    <glyph glyph-name="eth" unicode="&#xf0;" horiz-adv-x="610" 
d="M333 582l-170 -30q-12 -3 -14 11l-6 31q-5 14 10 16l153 28l-48 100q-6 12 9 12h66q13 0 18 -9l42 -86l173 31q12 3 15 -11l6 -32q2 -14 -10 -15l-156 -29l118 -245q21 -52 21 -104q0 -107 -74 -184q-73 -76 -181 -76q-109 0 -182 76t-73 184q0 100 63 172t160 82
q62 3 112 -28zM460 321q-19 48 -60.5 76.5t-94.5 28.5q-71 0 -121 -51q-48 -51 -48 -125t48 -125q50 -51 121 -51q72 0 120 51q49 50 49 125q0 37 -14 71z" />
    <glyph glyph-name="ntilde" unicode="&#xf1;" 
d="M526 0h-61q-13 0 -13 13v249q0 79 -33 121.5t-99 42.5q-62 0 -105 -49q-42 -49 -42 -112v-252q0 -13 -13 -13h-61q-13 0 -13 13v474q0 13 13 13h61q13 0 13 -13v-87q25 48 70.5 79t102.5 31q95 0 144 -60.5t49 -172.5v-264q0 -13 -13 -13zM378 670q35 0 84 58
q10 11 14 -5l11 -40q3 -10 -5 -20q-21 -25 -49 -41.5t-51 -16.5q-33 0 -79 32q-44 32 -66 32q-35 0 -83 -57q-10 -11 -14 4l-11 40q-5 12 5 20q21 25 48.5 41.5t51.5 16.5q35 0 79 -32t65 -32z" />
    <glyph glyph-name="ograve" unicode="&#xf2;" horiz-adv-x="579" 
d="M289 510q108 0 181 -76q74 -77 74 -184t-74 -184q-73 -76 -181 -76q-107 0 -181 75q-73 76 -73 185q0 110 73 184q73 76 181 76zM458 250q0 76 -49 125q-48 51 -120 51q-71 0 -121 -51q-48 -51 -48 -125t48 -125q50 -51 121 -51q72 0 120 51q49 50 49 125zM312 570
l-34 -15q-10 -5 -18 6l-94 155q-7 13 6 16l49 17q13 4 18 -8l78 -154q6 -12 -5 -17z" />
    <glyph glyph-name="oacute" unicode="&#xf3;" horiz-adv-x="579" 
d="M289 510q108 0 181 -76q74 -77 74 -184t-74 -184q-73 -76 -181 -76q-107 0 -181 75q-73 76 -73 185q0 110 73 184q73 76 181 76zM458 250q0 76 -49 125q-48 51 -120 51q-71 0 -121 -51q-48 -51 -48 -125t48 -125q50 -51 121 -51q72 0 120 51q49 50 49 125zM299 555
l-33 15q-11 6 -5 17l77 154q6 12 18 8l50 -17q12 -3 5 -16l-93 -155q-7 -10 -19 -6z" />
    <glyph glyph-name="ocircumflex" unicode="&#xf4;" horiz-adv-x="579" 
d="M289 510q108 0 181 -76q74 -77 74 -184t-74 -184q-73 -76 -181 -76q-107 0 -181 75q-73 76 -73 185q0 110 73 184q73 76 181 76zM458 250q0 76 -49 125q-48 51 -120 51q-71 0 -121 -51q-48 -51 -48 -125t48 -125q50 -51 121 -51q72 0 120 51q49 50 49 125zM270 745h38
q16 0 26 -13l116 -125q10 -9 -1 -20l-19 -23q-8 -10 -20 1l-121 118l-120 -118q-12 -11 -20 -1l-19 23q-11 11 -2 20l117 125q10 13 25 13z" />
    <glyph glyph-name="otilde" unicode="&#xf5;" horiz-adv-x="579" 
d="M289 510q108 0 181 -76q74 -77 74 -184t-74 -184q-73 -76 -181 -76q-107 0 -181 75q-73 76 -73 185q0 110 73 184q73 76 181 76zM458 250q0 76 -49 125q-48 51 -120 51q-71 0 -121 -51q-48 -51 -48 -125t48 -125q50 -51 121 -51q72 0 120 51q49 50 49 125zM360 670
q37 0 83 58q11 11 15 -5l11 -40q3 -10 -5 -20q-21 -25 -49 -41.5t-51 -16.5q-33 0 -79 32q-44 32 -66 32q-35 0 -83 -57q-10 -11 -14 4l-11 40q-4 12 4 20q49 58 101 58q35 0 79 -32t65 -32z" />
    <glyph glyph-name="odieresis" unicode="&#xf6;" horiz-adv-x="579" 
d="M289 510q108 0 181 -76q74 -77 74 -184t-74 -184q-73 -76 -181 -76q-107 0 -181 75q-73 76 -73 185q0 110 73 184q73 76 181 76zM458 250q0 76 -49 125q-48 51 -120 51q-71 0 -121 -51q-48 -51 -48 -125t48 -125q50 -51 121 -51q72 0 120 51q49 50 49 125zM132 643
q0 23 16 38.5t38 15.5t38 -15.5t16 -38.5q0 -22 -15.5 -37.5t-38.5 -15.5t-38.5 15.5t-15.5 37.5zM447 643q0 -22 -15.5 -37.5t-38.5 -15.5t-38 15t-15 38t15 38.5t38 15.5t38.5 -15.5t15.5 -38.5z" />
    <glyph glyph-name="divide" unicode="&#xf7;" horiz-adv-x="514" 
d="M56 335h402q13 0 13 -13v-46q0 -13 -13 -13h-402q-13 0 -13 13v46q0 13 13 13zM204 469q0 23 15 38t38 15t38 -15t15 -38q0 -22 -15.5 -37t-37.5 -15t-37.5 15t-15.5 37zM204 131q0 23 15 38t38 15t38 -15t15 -38q0 -22 -15 -37t-38 -15t-38 15t-15 37z" />
    <glyph glyph-name="oslash" unicode="&#xf8;" horiz-adv-x="579" 
d="M493 524l-45 -69q96 -80 96 -205q0 -107 -74 -184q-73 -76 -181 -76q-66 0 -121 31l-33 -49q-8 -11 -15 -11h-25q-15 0 -9 11l47 71q-98 77 -98 207q0 110 73 184q73 76 181 76q65 0 124 -32l31 46q6 11 17 11h22q7 0 10 -3.5t0 -7.5zM400 381l-186 -287q38 -20 75 -20
q72 0 120 51q49 50 49 125q0 82 -58 131zM181 116l186 290q-31 20 -78 20q-71 0 -121 -51q-48 -51 -48 -125q0 -82 61 -134z" />
    <glyph glyph-name="ugrave" unicode="&#xf9;" 
d="M87 500h61q14 0 14 -13v-249q0 -78 33.5 -121t98.5 -43q62 0 104 49t42 112v252q0 13 13 13h62q13 0 13 -13v-474q0 -13 -13 -13h-62q-13 0 -13 13v87q-25 -48 -70.5 -79t-102.5 -31q-95 0 -144 60.5t-49 172.5v264q0 13 13 13zM332 570l-34 -15q-10 -5 -18 6l-94 155
q-7 13 6 16l49 17q13 4 18 -8l78 -154q6 -12 -5 -17z" />
    <glyph glyph-name="uacute" unicode="&#xfa;" 
d="M87 500h61q14 0 14 -13v-249q0 -78 33.5 -121t98.5 -43q62 0 104 49t42 112v252q0 13 13 13h62q13 0 13 -13v-474q0 -13 -13 -13h-62q-13 0 -13 13v87q-25 -48 -70.5 -79t-102.5 -31q-95 0 -144 60.5t-49 172.5v264q0 13 13 13zM303 555l-33 15q-11 6 -6 17l78 154
q6 12 18 8l50 -17q12 -3 5 -16l-93 -155q-7 -10 -19 -6z" />
    <glyph glyph-name="ucircumflex" unicode="&#xfb;" 
d="M87 500h61q14 0 14 -13v-249q0 -78 33.5 -121t98.5 -43q62 0 104 49t42 112v252q0 13 13 13h62q13 0 13 -13v-474q0 -13 -13 -13h-62q-13 0 -13 13v87q-25 -48 -70.5 -79t-102.5 -31q-95 0 -144 60.5t-49 172.5v264q0 13 13 13zM283 745h38q16 0 26 -13l116 -125
q9 -9 -1 -20l-19 -23q-8 -10 -20 1l-121 118l-120 -118q-12 -10 -21 -1l-19 23q-10 11 -1 20l117 125q10 13 25 13z" />
    <glyph glyph-name="udieresis" unicode="&#xfc;" 
d="M87 494h61q14 0 14 -13v-249q0 -78 33.5 -121t98.5 -43q62 0 104 49t42 113v251q0 13 13 13h62q13 0 13 -13v-473q0 -14 -13 -14h-62q-13 0 -13 14v87q-25 -48 -70.5 -79.5t-102.5 -31.5q-95 0 -144 60.5t-49 172.5v264q0 13 13 13zM146 643q0 23 16 38.5t38 15.5
t38 -15.5t16 -38.5q0 -22 -15.5 -37.5t-38.5 -15.5t-38.5 15.5t-15.5 37.5zM407 697q23 0 39 -15.5t16 -38.5q2 -34 -34.5 -48.5t-58.5 10.5q-25 23 -10.5 59t48.5 33z" />
    <glyph glyph-name="yacute" unicode="&#xfd;" horiz-adv-x="615" 
d="M530 487v-472q0 -118 -67 -194q-66 -76 -180 -76q-61 0 -112.5 24.5t-82.5 65.5q-8 10 -1 18l34 43q9 10 16 1q50 -68 144 -68q78 0 119.5 48.5t41.5 129.5v100q-17 -41 -66 -74q-48 -33 -107 -33q-95 0 -144 60.5t-49 172.5v254q0 13 13 13h61q13 0 13 -13v-239
q0 -77 34 -120.5t99 -43.5q64 0 104 48q42 50 42 113v242q0 13 13 13h61q14 0 14 -13zM305 555l-34 15q-11 6 -5 17l78 154q5 13 17 8l50 -17q12 -3 6 -16l-94 -155q-7 -11 -18 -6z" />
    <glyph glyph-name="thorn" unicode="&#xfe;" horiz-adv-x="632" 
d="M510 250q0 72 -49 124t-120 52q-72 0 -121 -51q-48 -51 -48 -125t48 -125q49 -51 121 -51t120 51q49 50 49 125zM160 -250h-62q-12 0 -12 13v974q0 13 12 13h62q13 0 13 -13v-334q31 50 79.5 78.5t108.5 28.5q102 0 169 -76q68 -76 68 -184t-68 -185q-68 -75 -169 -75
q-61 0 -110 29t-78 78v-334q0 -13 -13 -13z" />
    <glyph glyph-name="ydieresis" unicode="&#xff;" horiz-adv-x="615" 
d="M530 487v-472q0 -118 -67 -194q-66 -76 -180 -76q-61 0 -112.5 24.5t-82.5 65.5q-8 10 -1 18l34 43q9 10 16 1q50 -68 144 -68q78 0 119.5 48.5t41.5 129.5v100q-17 -41 -66 -74q-48 -33 -107 -33q-95 0 -144 60.5t-49 172.5v254q0 13 13 13h61q13 0 13 -13v-239
q0 -77 34 -120.5t99 -43.5q64 0 104 48q42 50 42 113v242q0 13 13 13h61q14 0 14 -13zM201 697q23 0 39 -15.5t16 -38.5q2 -34 -34.5 -48.5t-58.5 10.5q-25 23 -10.5 59t48.5 33zM463 643q0 -22 -15.5 -37.5t-38.5 -15.5t-38.5 15t-15.5 38t15.5 38.5t38.5 15.5t38.5 -15.5
t15.5 -38.5z" />
    <glyph glyph-name="Amacron" unicode="&#x100;" horiz-adv-x="616" 
d="M96 0h-65q-14 0 -10 13l228 674q4 13 16 13h85q13 0 16 -13l229 -674q6 -13 -10 -13h-66q-15 0 -19 15l-55 162h-275l-55 -164q-3 -13 -19 -13zM423 261l-115 333l-116 -333h231zM161 835v48q0 12 13 12h269q13 0 13 -13v-47q0 -13 -13 -13h-269q-13 0 -13 13z" />
    <glyph glyph-name="amacron" unicode="&#x101;" horiz-adv-x="626" 
d="M111 473q75 37 183 37q143 0 193 -68q47 -59 47 -172v-255q0 -15 -15 -15h-55q-14 0 -14 15v51q-80 -76 -210 -76q-73 0 -123 33.5t-50 113.5q0 54 28.5 85t83.5 52q34 13 74 17q74 10 169 10h22v4q0 33 -10 58q-27 69 -146 69q-74 0 -130 -22l-20 -7q-15 -5 -19 8
l-16 42q-6 14 8 20zM447 153v92h-14q-143 0 -209 -23.5t-66 -81.5q0 -89 121 -89q63 0 116 33q52 33 52 69zM158 637v48q0 13 13 13h269q13 0 13 -13v-48q0 -13 -13 -13h-269q-13 0 -13 13z" />
    <glyph glyph-name="Abreve" unicode="&#x102;" horiz-adv-x="616" 
d="M96 0h-65q-14 0 -10 13l228 674q4 13 16 13h85q13 0 16 -13l229 -674q6 -13 -10 -13h-66q-15 0 -19 15l-55 162h-275l-55 -164q-3 -13 -19 -13zM423 261l-115 333l-116 -333h231zM463 904q-3 -63 -45.5 -99.5t-109.5 -36.5q-68 0 -110.5 36.5t-45.5 99.5q0 8 10 11l41 7
q8 3 10 -8q2 -36 27 -58t68 -22t68 22t27 58q0 11 10 8l41 -7q9 -3 9 -11z" />
    <glyph glyph-name="abreve" unicode="&#x103;" horiz-adv-x="626" 
d="M111 473q75 37 183 37q143 0 193 -68q47 -59 47 -172v-255q0 -15 -15 -15h-55q-14 0 -14 15v51q-80 -76 -210 -76q-73 0 -123 33.5t-50 113.5q0 54 28.5 85t83.5 52q34 13 74 17q74 10 169 10h22v4q0 33 -10 58q-27 69 -146 69q-74 0 -130 -22l-20 -7q-15 -5 -19 8
l-16 42q-6 14 8 20zM447 153v92h-14q-143 0 -209 -23.5t-66 -81.5q0 -89 121 -89q63 0 116 33q52 33 52 69zM465 718q-3 -63 -45.5 -99.5t-110.5 -36.5q-67 0 -109.5 36.5t-46.5 99.5q0 9 10 10l41 8q10 1 10 -9q2 -35 27 -57.5t68 -22.5t68 22.5t27 57.5q1 10 10 9l41 -8
q10 -3 10 -10z" />
    <glyph glyph-name="Aogonek" unicode="&#x104;" horiz-adv-x="615" 
d="M588 0q-34 -21 -41.5 -57t15.5 -60t65 -14q9 2 11 -8l1 -41q1 -10 -8 -12q-68 -11 -109 22q-40 33 -39 84q3 50 48 86h-18q-10 3 -13 15l-55 162h-275l-55 -164q-3 -13 -19 -13h-65q-14 0 -10 13l228 674q4 13 16 13h85q13 0 16 -13l229 -674q4 -13 -7 -13zM423 261
l-115 333l-116 -333h231z" />
    <glyph glyph-name="aogonek" unicode="&#x105;" horiz-adv-x="632" 
d="M460 153v92h-14q-143 0 -209 -23.5t-66 -81.5q0 -89 121 -89q64 0 116 33t52 69zM124 473q75 37 183 37q143 0 193 -68q47 -59 47 -172v-263q0 -7 -15 -7h-55q-14 0 -14 7v59q-80 -76 -210 -76q-73 0 -123 33.5t-50 113.5q0 54 28.5 85t83.5 52q34 13 74 17q74 10 169 10
h22v4q0 33 -10 58q-27 69 -146 69q-75 0 -129 -22l-21 -7q-15 -5 -19 8l-16 42q-6 14 8 20zM483 0h56q-34 -21 -41 -57t16 -60t66 -14q9 2 11 -8l1 -41q1 -10 -8 -12q-68 -11 -110 22q-40 33 -39 84q3 50 48 86z" />
    <glyph glyph-name="Cacute" unicode="&#x106;" horiz-adv-x="656" 
d="M594 637l-32 -49q-8 -15 -22 -4q-65 40 -143 40q-115 0 -192 -80t-77 -195q0 -114 77 -194q76 -79 192 -79q81 0 145 42q14 9 21 -3l32 -50q8 -14 -5 -21q-89 -54 -193 -54q-154 0 -256 103q-101 104 -101 256q0 153 102 257t255 104q107 0 191 -54q13 -7 6 -19zM389 762
l-34 15q-9 4 -5 17l78 154q5 12 18 8l49 -17q14 -5 6 -16l-94 -155q-6 -10 -18 -6z" />
    <glyph glyph-name="cacute" unicode="&#x107;" horiz-adv-x="489" 
d="M406 99l34 -47q8 -11 -5 -19q-64 -43 -146 -43q-107 0 -181 75q-73 76 -73 185q0 110 73 184q73 76 181 76q80 0 145 -44q14 -8 5 -20l-34 -46q-7 -10 -19 -3q-44 29 -97 29q-71 0 -121 -51q-48 -51 -48 -125t48 -125q50 -51 121 -51q53 0 99 28q12 8 18 -3zM279 555
l-34 15q-10 6 -5 17l78 154q5 12 18 8l49 -17q13 -3 6 -16l-94 -155q-7 -11 -18 -6z" />
    <glyph glyph-name="Ccircumflex" unicode="&#x108;" horiz-adv-x="656" 
d="M594 637l-32 -49q-8 -15 -22 -4q-65 40 -143 40q-115 0 -192 -80t-77 -195q0 -114 77 -194q76 -79 192 -79q81 0 145 42q14 9 21 -3l32 -50q8 -14 -5 -21q-89 -54 -193 -54q-154 0 -256 103q-101 104 -101 256q0 153 102 257t255 104q107 0 191 -54q13 -7 6 -19zM361 940
h38q14 0 26 -14l116 -125q9 -9 -1 -20l-19 -23q-9 -10 -20 1l-121 118l-120 -118q-12 -11 -20 -1l-19 23q-11 11 -1 20l116 125q12 14 25 14z" />
    <glyph glyph-name="ccircumflex" unicode="&#x109;" horiz-adv-x="489" 
d="M406 99l34 -47q8 -11 -5 -19q-64 -43 -146 -43q-107 0 -181 75q-73 76 -73 185q0 110 73 184q73 76 181 76q80 0 145 -44q14 -8 5 -20l-34 -46q-7 -10 -19 -3q-44 29 -97 29q-71 0 -121 -51q-48 -51 -48 -125t48 -125q50 -51 121 -51q53 0 99 28q12 8 18 -3zM257 745h38
q15 0 25 -13l117 -125q9 -9 -1 -20l-19 -23q-8 -10 -20 1l-121 118l-121 -118q-11 -11 -20 -1l-19 23q-10 11 -1 20l117 125q10 13 25 13z" />
    <glyph glyph-name="Cdotaccent" unicode="&#x10a;" horiz-adv-x="656" 
d="M594 637l-32 -49q-8 -15 -22 -4q-65 40 -143 40q-115 0 -192 -80t-77 -195q0 -114 77 -194q76 -79 192 -79q81 0 145 42q14 9 21 -3l32 -50q8 -14 -5 -21q-89 -54 -193 -54q-154 0 -256 103q-101 104 -101 256q0 153 102 257t255 104q107 0 191 -54q13 -7 6 -19zM380 797
q-22 0 -38 15.5t-16 38.5t15.5 39t38.5 16t39 -16t16 -39t-16 -38.5t-39 -15.5z" />
    <glyph glyph-name="cdotaccent" unicode="&#x10b;" horiz-adv-x="489" 
d="M406 99l34 -47q8 -11 -5 -19q-64 -43 -146 -43q-107 0 -181 75q-73 76 -73 185q0 110 73 184q73 76 181 76q80 0 145 -44q14 -8 5 -20l-34 -46q-7 -10 -19 -3q-44 29 -97 29q-71 0 -121 -51q-48 -51 -48 -125t48 -125q50 -51 121 -51q53 0 99 28q12 8 18 -3zM236 618
q-15 16 -15 39t15 38q16 16 39 16t39 -16q16 -15 16 -38t-16 -39q-16 -15 -39 -15t-39 15z" />
    <glyph glyph-name="Ccaron" unicode="&#x10c;" horiz-adv-x="656" 
d="M594 637l-32 -49q-8 -15 -22 -4q-65 40 -143 40q-115 0 -192 -80t-77 -195q0 -114 77 -194q76 -79 192 -79q81 0 145 42q14 9 21 -3l32 -50q8 -14 -5 -21q-89 -54 -193 -54q-154 0 -256 103q-101 104 -101 256q0 153 102 257t255 104q107 0 191 -54q13 -7 6 -19zM401 765
h-39q-15 0 -25 13l-116 125q-9 10 1 20l19 23q9 10 20 -1l120 -117l121 117q11 11 20 1l19 -23q10 -9 1 -20l-116 -125q-13 -13 -25 -13z" />
    <glyph glyph-name="ccaron" unicode="&#x10d;" horiz-adv-x="489" 
d="M406 99l34 -47q8 -11 -5 -19q-64 -43 -146 -43q-107 0 -181 75q-73 76 -73 185q0 110 73 184q73 76 181 76q80 0 145 -44q14 -8 5 -20l-34 -46q-7 -10 -19 -3q-44 29 -97 29q-71 0 -121 -51q-48 -51 -48 -125t48 -125q50 -51 121 -51q53 0 99 28q12 8 18 -3zM306 553h-38
q-15 0 -25 13l-117 125q-8 10 2 20l19 23q9 10 20 -1l120 -117l121 117q11 11 20 1l19 -23q9 -10 1 -20l-116 -125q-10 -13 -26 -13z" />
    <glyph glyph-name="Dcaron" unicode="&#x10e;" horiz-adv-x="733" 
d="M341 0h-237q-13 0 -13 13v674q0 13 13 13h237q150 0 250 -102q102 -100 102 -249q0 -145 -102 -247q-100 -102 -250 -102zM179 87h158q113 0 190 76q78 77 78 185q0 114 -78 189q-76 76 -190 76h-158v-526zM355 764h-38q-13 0 -25 14l-117 125q-7 9 1 20l19 23q9 9 21 -1
l120 -118l121 118q11 11 20 1l19 -23q9 -10 1 -20l-116 -125q-12 -14 -26 -14z" />
    <glyph glyph-name="dcaron" unicode="&#x10f;" horiz-adv-x="711" 
d="M621 558l28 180q1 12 14 12h59q12 0 10 -12l-36 -180q-2 -11 -15 -11h-49q-13 0 -11 11zM122 250q0 -74 48 -125q49 -51 121 -51t120 51q49 50 49 125t-49 125q-48 51 -120 51q-71 0 -120 -52t-49 -124zM533 0h-61q-13 0 -13 13v84q-29 -49 -78 -78t-110 -29
q-101 0 -169 75q-67 76 -67 185q0 110 67 184q67 76 169 76q122 0 188 -107v334q0 13 13 13h61q14 0 14 -13v-724q0 -13 -14 -13z" />
    <glyph glyph-name="Dcroat" unicode="&#x110;" horiz-adv-x="733" 
d="M91 317h-63q-12 0 -12 14v41q0 14 12 14h63v301q0 13 12 13h238q150 0 250 -102q102 -100 102 -249q0 -145 -102 -247q-100 -102 -250 -102h-238q-12 0 -12 13v304zM179 386h107q13 0 13 -13v-43q0 -13 -13 -13h-107v-230h158q113 0 190 76q78 77 78 185q0 114 -78 189
q-76 76 -190 76h-158v-227z" />
    <glyph glyph-name="dslash" unicode="&#x111;" horiz-adv-x="632" 
d="M547 556v-543q0 -13 -14 -13h-61q-13 0 -13 13v84q-29 -49 -78 -78t-110 -29q-101 0 -169 75q-67 76 -67 185q0 110 67 184q67 76 169 76q122 0 188 -107v153h-107q-12 0 -12 15v38q0 14 12 14h107v114q0 13 13 13h61q14 0 14 -13v-114h66q13 0 13 -14v-39q0 -14 -13 -14
h-66zM122 250q0 -74 48 -125q49 -51 121 -51t120 51q49 50 49 125t-49 125q-48 51 -120 51q-71 0 -120 -52t-49 -124z" />
    <glyph glyph-name="Emacron" unicode="&#x112;" horiz-adv-x="560" 
d="M104 700h394q14 0 14 -13v-61q0 -13 -14 -13h-319v-221h284q14 0 14 -13v-58q0 -13 -14 -13h-284v-221h320q13 0 13 -13v-61q0 -13 -13 -13h-395q-13 0 -13 13v674q0 13 13 13zM153 835v48q0 12 13 12h269q13 0 13 -13v-47q0 -13 -13 -13h-269q-13 0 -13 13z" />
    <glyph glyph-name="emacron" unicode="&#x113;" horiz-adv-x="555" 
d="M292 65q75 0 137 37q13 7 19 -4l28 -39q6 -11 -4 -18q-83 -51 -182 -51q-108 0 -181 76q-74 77 -74 184t67 183q68 77 175 77q112 0 178 -80t66 -192q0 -16 -17 -16h-386q7 -65 56 -112q48 -45 118 -45zM119 280h317q-7 72 -49.5 116t-109.5 44q-66 0 -109 -44.5
t-49 -115.5zM135 637v48q0 13 13 13h269q13 0 13 -13v-48q0 -13 -13 -13h-269q-13 0 -13 13z" />
    <glyph glyph-name="Ebreve" unicode="&#x114;" horiz-adv-x="560" 
d="M104 700h394q14 0 14 -13v-61q0 -13 -14 -13h-319v-221h284q14 0 14 -13v-58q0 -13 -14 -13h-284v-221h320q13 0 13 -13v-61q0 -13 -13 -13h-395q-13 0 -13 13v674q0 13 13 13zM459 905q-3 -63 -46 -99.5t-110 -36.5t-109.5 36.5t-46.5 99.5q0 9 10 10l41 8q8 3 10 -8
q2 -36 27 -58.5t68 -22.5t68 22.5t27 58.5q0 11 10 8l41 -8q10 -3 10 -10z" />
    <glyph glyph-name="ebreve" unicode="&#x115;" horiz-adv-x="555" 
d="M292 65q75 0 137 37q13 7 19 -4l28 -39q6 -11 -4 -18q-83 -51 -182 -51q-108 0 -181 76q-74 77 -74 184t67 183q68 77 175 77q112 0 178 -80t66 -192q0 -16 -17 -16h-386q7 -65 56 -112q48 -45 118 -45zM119 280h317q-7 72 -49.5 116t-109.5 44q-66 0 -109 -44.5
t-49 -115.5zM437 718q-3 -63 -45.5 -99.5t-110.5 -36.5q-67 0 -109.5 36.5t-45.5 99.5q0 8 9 10l41 8q10 1 11 -9q2 -35 26.5 -57.5t67.5 -22.5t68 22.5t27 57.5q1 10 10 9l41 -8q10 -1 10 -10z" />
    <glyph glyph-name="Edotaccent" unicode="&#x116;" horiz-adv-x="560" 
d="M104 700h394q14 0 14 -13v-61q0 -13 -14 -13h-319v-221h284q14 0 14 -13v-58q0 -13 -14 -13h-284v-221h320q13 0 13 -13v-61q0 -13 -13 -13h-395q-13 0 -13 13v674q0 13 13 13zM296 913q23 0 39 -15.5t16 -38.5t-16 -38.5t-39 -15.5t-38.5 15.5t-15.5 38.5t16 38.5
t38 15.5z" />
    <glyph glyph-name="edotaccent" unicode="&#x117;" horiz-adv-x="555" 
d="M292 65q75 0 137 37q13 7 19 -4l28 -39q6 -11 -4 -18q-83 -51 -182 -51q-108 0 -181 76q-74 77 -74 184t67 183q68 77 175 77q112 0 178 -80t66 -192q0 -16 -17 -16h-386q7 -65 56 -112q48 -45 118 -45zM119 280h317q-7 72 -49.5 116t-109.5 44q-66 0 -109 -44.5
t-49 -115.5zM274 619q-22 0 -38 15.5t-16 38.5t15.5 39t38.5 16t39 -16t16 -39t-16 -38.5t-39 -15.5z" />
    <glyph glyph-name="Eogonek" unicode="&#x118;" horiz-adv-x="560" 
d="M510 6q-36 -20 -46 -58t12 -64t67 -15q8 2 10 -8l2 -41q1 -10 -10 -12q-50 -8 -86.5 9t-50 47t-7 67.5t36.5 68.5h-334q-13 0 -13 13v674q0 13 13 13h394q14 0 14 -13v-61q0 -13 -14 -13h-319v-221h284q14 0 14 -13v-58q0 -13 -14 -13h-284v-221h320q13 0 13 -13v-61
q0 -5 -2 -7z" />
    <glyph glyph-name="eogonek" unicode="&#x119;" horiz-adv-x="555" 
d="M119 280h317q-7 72 -49.5 116t-109.5 44q-66 0 -109 -44.5t-49 -115.5zM249 -6q-88 12 -151 84t-63 172q0 107 67 183q68 77 175 77q112 0 178 -80t66 -192q0 -16 -17 -16h-386q7 -65 56 -112q48 -45 118 -45q75 0 137 37q13 7 19 -4l28 -39q6 -11 -4 -18
q-72 -45 -164 -50q-25 -26 -28.5 -58.5t17.5 -52.5t62 -11q9 2 11 -8l1 -41q1 -10 -9 -12q-39 -6 -70.5 2.5t-49 28.5t-24.5 45t1 54.5t30 55.5z" />
    <glyph glyph-name="Ecaron" unicode="&#x11a;" horiz-adv-x="560" 
d="M104 700h394q14 0 14 -13v-61q0 -13 -14 -13h-319v-221h284q14 0 14 -13v-58q0 -13 -14 -13h-284v-221h320q13 0 13 -13v-61q0 -13 -13 -13h-395q-13 0 -13 13v674q0 13 13 13zM322 764h-38q-12 0 -25 13l-117 126q-7 9 1 20l19 23q9 9 21 -1l120 -118l121 118
q10 11 20 1l19 -23q9 -10 1 -20l-116 -126q-13 -13 -26 -13z" />
    <glyph glyph-name="ecaron" unicode="&#x11b;" horiz-adv-x="555" 
d="M299 559h-38q-15 0 -25 13l-117 125q-8 10 1 20l19 23q7 10 21 -1l120 -117l121 117q11 11 20 1l19 -23q10 -10 1 -20l-117 -125q-10 -13 -25 -13zM292 65q75 0 137 37q13 7 19 -4l28 -39q6 -11 -4 -18q-83 -51 -182 -51q-108 0 -181 76q-74 77 -74 184t67 183
q68 77 175 77q112 0 178 -80t66 -192q0 -16 -17 -16h-386q7 -65 56 -112q48 -45 118 -45zM119 280h317q-7 72 -49.5 116t-109.5 44q-66 0 -109 -44.5t-49 -115.5z" />
    <glyph glyph-name="Gcircumflex" unicode="&#x11c;" horiz-adv-x="704" 
d="M540 109v174h-152q-13 0 -13 13v49q0 14 13 14h226q13 0 13 -14v-285q0 -11 -13 -18q-92 -52 -217 -52q-154 0 -256 103q-101 104 -101 256q0 153 101 257q102 104 256 104q107 0 196 -56q13 -8 6 -21l-31 -48q-9 -13 -23 -4q-68 43 -148 43q-116 0 -193 -80
q-76 -79 -76 -195q0 -115 77 -195q77 -78 192 -78q83 0 143 33zM374 940h38q13 0 25 -14l116 -125q9 -9 -1 -20l-19 -23q-8 -8 -20 1l-120 118l-121 -118q-12 -11 -20 -1l-19 23q-11 11 -1 20l116 125q12 14 26 14z" />
    <glyph glyph-name="gcircumflex" unicode="&#x11d;" horiz-adv-x="632" 
d="M122 251q0 -75 48 -124q49 -49 121 -49q73 0 121 49q49 49 49 124t-49 124q-48 51 -121 51q-71 0 -120 -52q-49 -50 -49 -123zM547 487v-476q0 -116 -75 -191q-73 -75 -190 -75q-59 0 -112.5 22t-89.5 58q-9 9 -1 18l33 42q9 9 18 2q58 -58 150 -58q83 0 131 50
q48 49 48 125v97q-67 -108 -188 -108q-101 0 -169 74q-67 74 -67 184t67 184q68 75 169 75q120 0 188 -107v84q0 13 13 13h61q14 0 14 -13zM289 745h38q15 0 25 -13l117 -125q7 -10 -1 -20l-19 -23q-8 -9 -21 1l-120 118l-121 -118q-11 -11 -20 -1l-19 23q-10 11 -1 20
l116 125q10 13 26 13z" />
    <glyph glyph-name="Gbreve" unicode="&#x11e;" horiz-adv-x="704" 
d="M540 109v174h-152q-13 0 -13 13v49q0 14 13 14h226q13 0 13 -14v-285q0 -11 -13 -18q-92 -52 -217 -52q-154 0 -256 103q-101 104 -101 256q0 153 101 257q102 104 256 104q107 0 196 -56q13 -8 6 -21l-31 -48q-9 -13 -23 -4q-68 43 -148 43q-116 0 -193 -80
q-76 -79 -76 -195q0 -115 77 -195q77 -78 192 -78q83 0 143 33zM546 905q-3 -63 -45.5 -99.5t-109.5 -36.5q-68 0 -110.5 36.5t-45.5 99.5q0 9 10 10l40 8q9 3 11 -8q2 -36 27 -58.5t68 -22.5t67.5 22t26.5 59q2 11 11 8l40 -8q10 -3 10 -10z" />
    <glyph glyph-name="gbreve" unicode="&#x11f;" horiz-adv-x="632" 
d="M122 251q0 -75 48 -124q49 -49 121 -49q73 0 121 49q49 49 49 124t-49 124q-48 51 -121 51q-71 0 -120 -52q-49 -50 -49 -123zM547 487v-476q0 -116 -75 -191q-73 -75 -190 -75q-59 0 -112.5 22t-89.5 58q-9 9 -1 18l33 42q9 9 18 2q58 -58 150 -58q83 0 131 50
q48 49 48 125v97q-67 -108 -188 -108q-101 0 -169 74q-67 74 -67 184t67 184q68 75 169 75q120 0 188 -107v84q0 13 13 13h61q14 0 14 -13zM462 718q-3 -63 -45.5 -99.5t-110.5 -36.5q-67 0 -109.5 36.5t-45.5 99.5q0 9 10 10l40 8q10 1 11 -9q2 -35 26.5 -57.5t67.5 -22.5
t68 22.5t27 57.5q1 10 11 9l40 -8q10 -1 10 -10z" />
    <glyph glyph-name="Gdotaccent" unicode="&#x120;" horiz-adv-x="704" 
d="M540 109v174h-152q-13 0 -13 13v49q0 14 13 14h226q13 0 13 -14v-285q0 -11 -13 -18q-92 -52 -217 -52q-154 0 -256 103q-101 104 -101 256q0 153 101 257q102 104 256 104q107 0 196 -56q13 -8 6 -21l-31 -48q-9 -13 -23 -4q-68 43 -148 43q-116 0 -193 -80
q-76 -79 -76 -195q0 -115 77 -195q77 -78 192 -78q83 0 143 33zM382 797q-22 0 -38 15.5t-16 38.5t15.5 39t38.5 16t39 -16t16 -39t-16 -38.5t-39 -15.5z" />
    <glyph glyph-name="gdotaccent" unicode="&#x121;" horiz-adv-x="632" 
d="M122 251q0 -75 48 -124q49 -49 121 -49q73 0 121 49q49 49 49 124t-49 124q-48 51 -121 51q-71 0 -120 -52q-49 -50 -49 -123zM547 487v-476q0 -116 -75 -191q-73 -75 -190 -75q-59 0 -112.5 22t-89.5 58q-9 9 -1 18l33 42q9 9 18 2q58 -58 150 -58q83 0 131 50
q48 49 48 125v97q-67 -108 -188 -108q-101 0 -169 74q-67 74 -67 184t67 184q68 75 169 75q120 0 188 -107v84q0 13 13 13h61q14 0 14 -13zM302 619q-22 0 -38 15.5t-16 38.5t15.5 39t38.5 16t39 -16t16 -39t-16 -38.5t-39 -15.5z" />
    <glyph glyph-name="uni0122" unicode="&#x122;" horiz-adv-x="704" 
d="M540 109v174h-152q-13 0 -13 13v49q0 14 13 14h226q13 0 13 -14v-285q0 -11 -13 -18q-91 -52 -217 -52q-154 0 -256 103q-101 104 -101 256q0 153 101 257q102 104 256 104q107 0 196 -56q13 -8 6 -21l-33 -50q-8 -14 -22 -5q-70 46 -147 46q-116 0 -193 -80
q-76 -79 -76 -195q0 -115 77 -195q77 -78 192 -78q83 0 143 33zM334 -241l28 180q2 12 13 12h60q12 0 9 -12l-35 -180q-2 -11 -16 -11h-49q-12 0 -10 11z" />
    <glyph glyph-name="uni0123" unicode="&#x123;" horiz-adv-x="632" 
d="M122 251q0 -75 48 -124q49 -49 121 -49q73 0 121 49q49 49 49 124t-49 124q-48 51 -121 51q-71 0 -120 -52q-49 -50 -49 -123zM547 487v-476q0 -116 -75 -191q-73 -75 -190 -75q-59 0 -112.5 22t-89.5 58q-9 9 -1 18l33 42q9 9 18 2q58 -58 150 -58q83 0 131 50
q48 49 48 125v97q-67 -108 -188 -108q-101 0 -169 74q-67 74 -67 184t67 184q68 75 169 75q120 0 188 -107v84q0 13 13 13h61q14 0 14 -13zM364 768l-28 -180q-2 -12 -14 -12h-59q-12 0 -9 12l35 180q2 11 16 11h48q13 0 11 -11z" />
    <glyph glyph-name="Hcircumflex" unicode="&#x124;" horiz-adv-x="712" 
d="M166 0h-62q-13 0 -13 13v674q0 13 13 13h62q13 0 13 -13v-289h354v289q0 13 13 13h62q13 0 13 -13v-674q0 -13 -13 -13h-62q-13 0 -13 13v297h-354v-297q0 -13 -13 -13zM337 940h38q13 0 25 -14l117 -125q7 -10 -1 -20l-19 -23q-8 -8 -21 1l-120 118l-121 -118
q-11 -11 -20 -1l-19 23q-10 11 -1 20l116 125q12 14 26 14z" />
    <glyph glyph-name="hcircumflex" unicode="&#x125;" 
d="M160 0h-61q-13 0 -13 13v724q0 13 13 13h61q13 0 13 -13v-335q25 47 70.5 77.5t102.5 30.5q95 0 144 -60.5t49 -172.5v-264q0 -13 -13 -13h-61q-13 0 -13 13v249q0 79 -33 121.5t-99 42.5q-60 0 -104 -53q-43 -52 -43 -117v-243q0 -13 -13 -13zM110 952h38q12 0 25 -13
l116 -125q9 -10 -1 -20l-19 -23q-9 -10 -20 1l-120 117l-121 -117q-11 -11 -20 -1l-19 23q-11 10 -1 20l116 125q10 13 26 13z" />
    <glyph glyph-name="Hbar" unicode="&#x126;" horiz-adv-x="712" 
d="M534 500h-354v-104h354v104zM621 500v-487q0 -13 -13 -13h-61q-14 0 -14 13v294h-354v-294q0 -13 -14 -13h-61q-13 0 -13 13v487h-80q-12 0 -12 14v27q0 13 12 13h80v133q0 13 14 13h60q14 0 14 -13v-133h354v133q0 13 14 13h61q13 0 13 -13v-133h80q14 0 14 -14v-25
q0 -15 -14 -15h-80z" />
    <glyph glyph-name="hbar" unicode="&#x127;" 
d="M173 632h107q14 0 14 -13v-39q0 -14 -14 -14h-107v-164q25 47 70.5 77.5t102.5 30.5q95 0 144 -60.5t49 -172.5v-264q0 -13 -13 -13h-61q-13 0 -13 13v249q0 79 -33 121.5t-99 42.5q-60 0 -104 -53q-43 -52 -43 -117v-243q0 -13 -13 -13h-61q-13 0 -13 13v553h-66
q-13 0 -13 14v39q0 13 13 13h66v105q0 13 13 13h61q13 0 13 -13v-105z" />
    <glyph glyph-name="Itilde" unicode="&#x128;" horiz-adv-x="260" 
d="M161 -3h-62q-13 0 -13 13v674q0 13 13 13h62q13 0 13 -13v-674q0 -13 -13 -13zM203 862q35 0 83 57q11 11 15 -4l10 -40q4 -12 -4 -20q-21 -25 -48.5 -41.5t-51.5 -16.5q-33 0 -79 32q-44 32 -66 32q-34 0 -83 -58q-10 -10 -14 5l-11 40q-4 10 4 20q49 58 101 58
q35 0 79 -32t65 -32z" />
    <glyph glyph-name="itilde" unicode="&#x129;" horiz-adv-x="259" 
d="M200 670q37 0 83 58q11 11 15 -5l11 -40q3 -10 -5 -20q-21 -25 -49 -41.5t-51 -16.5q-33 0 -79 32q-44 32 -66 32q-35 0 -83 -57q-10 -11 -14 4l-11 40q-4 12 4 20q49 58 101 58q35 0 79 -32t65 -32zM160 0h-61q-13 0 -13 13v474q0 13 13 13h61q13 0 13 -13v-474
q0 -13 -13 -13z" />
    <glyph glyph-name="Imacron" unicode="&#x12a;" horiz-adv-x="260" 
d="M161 0h-62q-13 0 -13 13v674q0 13 13 13h62q13 0 13 -13v-674q0 -13 -13 -13zM-18 844v48q0 13 14 13h269q13 0 13 -13v-48q0 -13 -13 -13h-269q-14 0 -14 13z" />
    <glyph glyph-name="imacron" unicode="&#x12b;" horiz-adv-x="259" 
d="M160 0h-61q-13 0 -13 13v474q0 13 13 13h61q13 0 13 -13v-474q0 -13 -13 -13zM-18 637v48q0 13 13 13h269q13 0 13 -13v-48q0 -13 -13 -13h-269q-13 0 -13 13z" />
    <glyph glyph-name="Iogonek" unicode="&#x12e;" horiz-adv-x="260" 
d="M144 -10q-26 -28 -28.5 -59.5t20.5 -50.5t64 -11q8 2 10 -8l2 -41q1 -10 -10 -12q-68 -11 -110 22q-42 31 -40 84q1 51 49 92q0 5 -2 7t-4 2t-2 1q-7 0 -7 8v663q0 13 13 13h62q13 0 13 -13v-674q0 -9 -9 -11q-1 -1 -10 -5.5t-11 -6.5z" />
    <glyph glyph-name="iogonek" unicode="&#x12f;" horiz-adv-x="259" 
d="M143 -10q-27 -25 -29 -58t21.5 -52.5t63.5 -10.5q9 2 11 -8l1 -41q1 -10 -9 -12q-70 -11 -111 22q-42 31 -40 84q3 51 50 92q0 5 -2 7t-4 2t-2 1q-7 0 -7 8v463q0 13 13 13h61q13 0 13 -13v-474q0 -9 -9 -11q-1 -1 -10 -5.5t-11 -6.5zM73 701q0 24 16.5 40.5t39.5 16.5
q24 0 40 -16.5t16 -40.5q0 -23 -16 -39t-40 -16q-23 0 -39.5 16t-16.5 39z" />
    <glyph glyph-name="Idot" unicode="&#x130;" horiz-adv-x="260" 
d="M161 0h-62q-13 0 -13 13v674q0 13 13 13h62q13 0 13 -13v-674q0 -13 -13 -13zM90 820q-15 16 -15 39t15 38q16 16 39 16t39 -16q16 -15 16 -38t-16 -39q-16 -15 -39 -15t-39 15z" />
    <glyph glyph-name="dotlessi" unicode="&#x131;" horiz-adv-x="259" 
d="M160 0h-61q-13 0 -13 13v474q0 13 13 13h61q13 0 13 -13v-474q0 -13 -13 -13z" />
    <glyph glyph-name="IJ" unicode="&#x132;" horiz-adv-x="761" 
d="M166 0h-62q-13 0 -13 13v674q0 13 13 13h62q13 0 13 -13v-674q0 -13 -13 -13zM670 687v-489q0 -91 -56 -150q-55 -58 -147 -58q-94 0 -164 51q-9 7 -3 18l31 50q6 10 19 1q55 -34 111 -34q55 0 88 35.5t33 94.5v481q0 13 13 13h62q13 0 13 -13z" />
    <glyph glyph-name="ij" unicode="&#x133;" horiz-adv-x="560" 
d="M175 0h-61q-13 0 -13 13v474q0 13 13 13h61q13 0 13 -13v-474q0 -13 -13 -13zM89 701q0 24 16 40.5t39 16.5q24 0 40.5 -16.5t16.5 -40.5q0 -23 -16.5 -39t-40.5 -16q-23 0 -39 16t-16 39zM227 -216l23 50q4 10 15 6q27 -11 48 -11q27 0 44.5 18.5t17.5 50.5v589
q0 13 13 13h61q13 0 13 -13v-603q0 -61 -38.5 -100t-100.5 -39q-42 0 -90 22q-12 6 -6 17zM362 701q0 24 16.5 40.5t39.5 16.5t39.5 -16.5t16.5 -40.5q0 -23 -16.5 -39t-39.5 -16t-39.5 16t-16.5 39z" />
    <glyph glyph-name="Jcircumflex" unicode="&#x134;" horiz-adv-x="495" 
d="M404 687v-489q0 -91 -56 -150q-55 -58 -146 -58q-93 0 -165 51q-9 7 -3 18l31 50q7 10 19 1q55 -34 112 -34q55 0 87.5 35.5t32.5 94.5v481q0 13 13 13h62q13 0 13 -13zM340 940h38q14 0 26 -14l116 -125q10 -9 -1 -20l-19 -23q-10 -10 -20 1l-121 118l-120 -118
q-12 -11 -20 -1l-19 23q-11 11 -2 20l117 125q12 14 25 14z" />
    <glyph glyph-name="jcircumflex" unicode="&#x135;" horiz-adv-x="303" 
d="M-27 -216l24 50q5 10 15 6q27 -11 47 -11q27 0 44.5 18.5t17.5 50.5v589q0 13 14 13h61q13 0 13 -13v-603q0 -61 -38.5 -100t-101.5 -39q-44 0 -89 22q-11 7 -7 17zM146 745h38q16 0 26 -13l116 -125q10 -9 -1 -20l-19 -23q-8 -10 -20 1l-121 118l-120 -118
q-12 -11 -20 -1l-19 23q-11 11 -1 20l116 125q10 13 25 13z" />
    <glyph glyph-name="uni0136" unicode="&#x136;" horiz-adv-x="655" 
d="M618 0h-75q-15 0 -25 13l-235 342l-104 -106v-236q0 -13 -13 -13h-62q-13 0 -13 13v674q0 13 13 13h62q13 0 13 -13v-318l308 318q10 13 27 13h81q7 0 8.5 -4t-3.5 -9l-253 -269l279 -405q9 -13 -8 -13zM273 -241l28 180q1 12 14 12h59q12 0 9 -12l-35 -180
q-2 -11 -16 -11h-49q-12 0 -10 11z" />
    <glyph glyph-name="uni0137" unicode="&#x137;" horiz-adv-x="538" 
d="M229 -241l28 180q1 12 14 12h59q12 0 9 -12l-35 -180q-2 -11 -16 -11h-48q-13 0 -11 11zM408 12l-162 226l-73 -74v-151q0 -13 -13 -13h-61q-13 0 -13 13v724q0 13 13 13h61q13 0 13 -13v-462l212 216q9 9 22 9h76q14 0 5 -13l-176 -191l196 -281q10 -15 -5 -15h-69
q-16 0 -26 12z" />
    <glyph glyph-name="kgreenlandic" unicode="&#x138;" horiz-adv-x="538" 
d="M408 12l-162 226l-73 -74v-151q0 -13 -13 -13h-61q-13 0 -13 13v474q0 13 13 13h61q13 0 13 -13v-212l212 216q9 9 22 9h76q14 0 5 -13l-176 -191l196 -281q10 -15 -5 -15h-69q-16 0 -26 12z" />
    <glyph glyph-name="Lacute" unicode="&#x139;" horiz-adv-x="522" 
d="M471 0h-367q-13 0 -13 13v674q0 13 13 13h62q13 0 13 -13v-601h292q13 0 13 -13v-60q0 -13 -13 -13zM145 762l-34 15q-9 4 -5 17l78 153q4 12 18 9l49 -17q14 -5 6 -17l-94 -155q-7 -10 -18 -5z" />
    <glyph glyph-name="lacute" unicode="&#x13a;" horiz-adv-x="263" 
d="M163 0h-61q-13 0 -13 13v724q0 13 13 13h61q14 0 14 -13v-724q0 -13 -14 -13zM143 776l-33 15q-11 5 -5 17l77 153q6 12 18 9l50 -17q10 -4 6 -17l-94 -155q-7 -10 -19 -5z" />
    <glyph glyph-name="uni013B" unicode="&#x13b;" horiz-adv-x="522" 
d="M471 0h-367q-13 0 -13 13v674q0 13 13 13h62q13 0 13 -13v-601h292q13 0 13 -13v-60q0 -13 -13 -13zM218 -241l28 180q2 12 13 12h60q12 0 9 -12l-35 -180q-2 -11 -16 -11h-49q-12 0 -10 11z" />
    <glyph glyph-name="uni013C" unicode="&#x13c;" horiz-adv-x="259" 
d="M160 0h-61q-13 0 -13 13v724q0 13 13 13h61q14 0 14 -13v-724q0 -13 -14 -13zM60 -241l28 180q2 12 14 12h59q11 0 10 -12l-36 -180q-2 -11 -16 -11h-49q-12 0 -10 11z" />
    <glyph glyph-name="Lcaron" unicode="&#x13d;" horiz-adv-x="536" 
d="M471 0h-367q-13 0 -13 13v674q0 13 13 13h62q13 0 13 -13v-601h292q13 0 13 -13v-60q0 -13 -13 -13zM395 508l28 180q1 12 14 12h59q12 0 10 -12l-36 -180q-2 -11 -15 -11h-50q-12 0 -10 11z" />
    <glyph glyph-name="lcaron" unicode="&#x13e;" horiz-adv-x="326" 
d="M160 0h-61q-13 0 -13 13v724q0 13 13 13h61q13 0 13 -13v-724q0 -13 -13 -13zM248 558l28 180q2 12 13 12h59q12 0 10 -12l-36 -180q-2 -11 -15 -11h-49q-12 0 -10 11z" />
    <glyph glyph-name="Ldot" unicode="&#x13f;" horiz-adv-x="535" 
d="M471 0h-367q-13 0 -13 13v674q0 13 13 13h62q13 0 13 -13v-601h292q13 0 13 -13v-60q0 -13 -13 -13zM381 402q0 23 15.5 39t38.5 16t39 -16t16 -39t-16 -38.5t-39 -15.5t-38.5 16t-15.5 38z" />
    <glyph glyph-name="ldot" unicode="&#x140;" horiz-adv-x="402" 
d="M174 0h-61q-13 0 -13 13v724q0 13 13 13h61q13 0 13 -13v-724q0 -13 -13 -13zM314 384q-3 35 33 50t60 -11q26 -24 11 -60t-50 -33q-22 0 -38 16t-16 38z" />
    <glyph glyph-name="Lslash" unicode="&#x141;" horiz-adv-x="522" 
d="M91 304l-55 -20q-12 -4 -16 9l-14 38q-4 11 8 16l77 27v313q0 13 13 13h62q13 0 13 -13v-282l163 58q13 5 17 -7l13 -39q5 -11 -9 -17l-184 -65v-249h292q13 0 13 -13v-60q0 -13 -13 -13h-367q-13 0 -13 13v291z" />
    <glyph glyph-name="lslash" unicode="&#x142;" horiz-adv-x="333" 
d="M119 330l-101 -37q-11 -5 -16 9l-14 38q-3 12 8 17l123 45v335q0 13 13 13h61q14 0 14 -13v-305l109 39q13 4 16 -8l13 -38q3 -10 -7 -17l-131 -47v-348q0 -13 -14 -13h-61q-13 0 -13 13v317z" />
    <glyph glyph-name="Nacute" unicode="&#x143;" horiz-adv-x="739" 
d="M635 0h-63q-12 0 -22 13l-371 531v-531q0 -13 -13 -13h-62q-13 0 -13 13v674q0 13 13 13h63q12 0 22 -13l371 -531v531q0 13 13 13h62q14 0 14 -13v-674q0 -13 -14 -13zM370 762l-33 15q-11 5 -5 17l77 154q6 12 18 8l50 -17q13 -4 5 -16l-93 -155q-7 -12 -19 -6z" />
    <glyph glyph-name="nacute" unicode="&#x144;" 
d="M526 0h-61q-13 0 -13 13v249q0 79 -33 121.5t-99 42.5q-62 0 -105 -49q-42 -49 -42 -112v-252q0 -13 -13 -13h-61q-13 0 -13 13v474q0 13 13 13h61q13 0 13 -13v-87q25 48 70.5 79t102.5 31q95 0 144 -60.5t49 -172.5v-264q0 -13 -13 -13zM309 555l-34 15q-10 6 -5 17
l78 154q5 12 18 8l49 -17q13 -3 6 -16l-94 -155q-7 -11 -18 -6z" />
    <glyph glyph-name="uni0145" unicode="&#x145;" horiz-adv-x="739" 
d="M635 0h-63q-12 0 -22 13l-371 531v-531q0 -13 -13 -13h-62q-13 0 -13 13v674q0 13 13 13h63q12 0 22 -13l371 -531v531q0 13 13 13h62q14 0 14 -13v-674q0 -13 -14 -13zM300 -241l28 180q2 12 13 12h59q12 0 10 -12l-36 -180q-2 -11 -15 -11h-49q-12 0 -10 11z" />
    <glyph glyph-name="uni0146" unicode="&#x146;" 
d="M526 0h-61q-13 0 -13 13v249q0 79 -33 121.5t-99 42.5q-62 0 -105 -49q-42 -49 -42 -112v-252q0 -13 -13 -13h-61q-13 0 -13 13v474q0 13 13 13h61q13 0 13 -13v-87q25 48 70.5 79t102.5 31q95 0 144 -60.5t49 -172.5v-264q0 -13 -13 -13zM242 -241l28 180q2 12 14 12h59
q11 0 10 -12l-36 -180q-2 -11 -15 -11h-50q-12 0 -10 11z" />
    <glyph glyph-name="Ncaron" unicode="&#x147;" horiz-adv-x="739" 
d="M635 0h-63q-12 0 -22 13l-371 531v-531q0 -13 -13 -13h-62q-13 0 -13 13v674q0 13 13 13h63q12 0 22 -13l371 -531v531q0 13 13 13h62q14 0 14 -13v-674q0 -13 -14 -13zM390 764h-38q-12 0 -25 13l-117 126q-8 8 1 20l19 23q8 8 21 -1l120 -118l121 118q10 11 20 1
l19 -23q9 -10 1 -20l-117 -126q-10 -13 -25 -13z" />
    <glyph glyph-name="ncaron" unicode="&#x148;" 
d="M526 0h-61q-13 0 -13 13v249q0 79 -33 121.5t-99 42.5q-62 0 -105 -49q-42 -49 -42 -112v-252q0 -13 -13 -13h-61q-13 0 -13 13v474q0 13 13 13h61q13 0 13 -13v-87q25 48 70.5 79t102.5 31q95 0 144 -60.5t49 -172.5v-264q0 -13 -13 -13zM330 553h-38q-13 0 -26 13
l-116 125q-10 9 1 20l19 23q9 10 20 -1l121 -117l120 117q12 11 20 1l19 -23q10 -10 1 -20l-116 -125q-10 -13 -25 -13z" />
    <glyph glyph-name="napostrophe" unicode="&#x149;" 
d="M526 0h-61q-13 0 -13 13v249q0 79 -33 121.5t-99 42.5q-62 0 -105 -49q-42 -49 -42 -112v-252q0 -13 -13 -13h-61q-13 0 -13 13v474q0 13 13 13h61q13 0 13 -13v-87q25 48 70.5 79t102.5 31q95 0 144 -60.5t49 -172.5v-264q0 -13 -13 -13zM61 572l26 166q1 12 13 12h59
q13 0 10 -12l-33 -166q-2 -11 -16 -11h-49q-12 0 -10 11z" />
    <glyph glyph-name="Omacron" unicode="&#x14c;" horiz-adv-x="795" 
d="M755 349q0 -152 -103 -255q-104 -104 -255 -104q-152 0 -255 103q-102 103 -102 256q0 152 102 256q104 105 255 105t255 -105q103 -103 103 -256zM397 76q115 0 191 79q78 80 78 194q0 115 -77 195t-192 80t-192 -80t-77 -195q0 -114 77 -194q76 -79 192 -79zM250 835
v48q0 12 13 12h269q13 0 13 -13v-47q0 -13 -13 -13h-269q-13 0 -13 13z" />
    <glyph glyph-name="omacron" unicode="&#x14d;" horiz-adv-x="579" 
d="M289 510q108 0 181 -76q74 -77 74 -184t-74 -184q-73 -76 -181 -76q-107 0 -181 75q-73 76 -73 185q0 110 73 184q73 76 181 76zM458 250q0 76 -49 125q-48 51 -120 51q-71 0 -121 -51q-48 -51 -48 -125t48 -125q50 -51 121 -51q72 0 120 51q49 50 49 125zM143 637v48
q0 13 13 13h269q13 0 13 -13v-48q0 -13 -13 -13h-269q-13 0 -13 13z" />
    <glyph glyph-name="Obreve" unicode="&#x14e;" horiz-adv-x="795" 
d="M755 349q0 -152 -103 -255q-104 -104 -255 -104q-152 0 -255 103q-102 103 -102 256q0 152 102 256q104 105 255 105t255 -105q103 -103 103 -256zM397 76q115 0 191 79q78 80 78 194q0 115 -77 195t-192 80t-192 -80t-77 -195q0 -114 77 -194q76 -79 192 -79zM553 904
q-3 -63 -45.5 -99.5t-110.5 -36.5q-67 0 -109.5 36.5t-45.5 99.5q0 8 9 11l41 7q9 3 11 -8q2 -36 26.5 -58t67.5 -22t68 22t27 58q2 11 10 8l41 -7q10 -3 10 -11z" />
    <glyph glyph-name="obreve" unicode="&#x14f;" horiz-adv-x="579" 
d="M289 510q108 0 181 -76q74 -77 74 -184t-74 -184q-73 -76 -181 -76q-107 0 -181 75q-73 76 -73 185q0 110 73 184q73 76 181 76zM458 250q0 76 -49 125q-48 51 -120 51q-71 0 -121 -51q-48 -51 -48 -125t48 -125q50 -51 121 -51q72 0 120 51q49 50 49 125zM445 718
q-3 -63 -45.5 -99.5t-110.5 -36.5q-67 0 -109.5 36.5t-45.5 99.5q0 8 9 10l41 8q10 1 11 -9q2 -35 26.5 -57.5t67.5 -22.5t68 22.5t27 57.5q1 10 10 9l41 -8q10 -1 10 -10z" />
    <glyph glyph-name="Ohungarumlaut" unicode="&#x150;" horiz-adv-x="795" 
d="M755 349q0 -152 -103 -255q-104 -104 -255 -104q-152 0 -255 103q-102 103 -102 256q0 152 102 256q104 105 255 105t255 -105q103 -103 103 -256zM397 76q115 0 191 79q78 80 78 194q0 115 -77 195t-192 80t-192 -80t-77 -195q0 -114 77 -194q76 -79 192 -79zM328 761
l-32 13q-10 6 -6 18l77 155q5 11 18 8l49 -17q12 -4 6 -16l-92 -155q-8 -12 -20 -6zM500 761l-32 13q-10 6 -6 18l77 155q5 11 18 8l51 -18q14 -5 6 -16l-94 -154q-8 -12 -20 -6z" />
    <glyph glyph-name="ohungarumlaut" unicode="&#x151;" horiz-adv-x="579" 
d="M289 510q108 0 181 -76q74 -77 74 -184t-74 -184q-73 -76 -181 -76q-107 0 -181 75q-73 76 -73 185q0 110 73 184q73 76 181 76zM458 250q0 76 -49 125q-48 51 -120 51q-71 0 -121 -51q-48 -51 -48 -125t48 -125q50 -51 121 -51q72 0 120 51q49 50 49 125zM218 551
l-32 14q-12 4 -7 18l77 154q4 13 19 8l49 -17q13 -4 5 -16l-91 -154q-7 -11 -20 -7zM390 551l-32 14q-12 4 -7 18l77 154q5 13 19 8l51 -18q12 -3 6 -16l-94 -153q-7 -11 -20 -7z" />
    <glyph glyph-name="OE" unicode="&#x152;" horiz-adv-x="1146" 
d="M206 156q78 -80 190 -80q111 0 191 80q79 80 79 193t-79 193q-79 82 -191 82t-190 -82q-78 -81 -78 -193t78 -193zM1083 -10h-2h-678q-155 0 -259 104q-104 106 -104 255q0 153 103 256q103 105 255 105h685q15 0 15 -14v-59q0 -13 -15 -13h-482q65 -33 105 -96.5
t44 -133.5h297q16 0 16 -14v-59q0 -14 -16 -14h-297q-3 -70 -40.5 -132.5t-108.5 -98.5h482q15 0 15 -13v-59q0 -14 -15 -14z" />
    <glyph glyph-name="oe" unicode="&#x153;" horiz-adv-x="979" 
d="M458 250q0 76 -49 125q-48 51 -120 51q-71 0 -121 -51q-48 -51 -48 -125t48 -125q50 -51 121 -51q72 0 120 51q49 50 49 125zM503 124q-30 -62 -87 -98t-127 -36q-107 0 -181 75q-73 76 -73 185q0 110 73 184q73 76 181 76q69 0 125.5 -35.5t85.5 -95.5q28 61 80.5 96
t120.5 35q112 0 178 -80t66 -192q0 -16 -17 -16h-386q7 -65 56 -112q48 -45 118 -45q75 0 137 37q12 6 19 -4l28 -39q7 -10 -5 -18q-80 -51 -181 -51q-69 0 -126 36.5t-85 97.5zM543 280h317q-7 72 -49.5 116t-109.5 44q-66 0 -109 -44.5t-49 -115.5z" />
    <glyph glyph-name="Racute" unicode="&#x154;" horiz-adv-x="600" 
d="M304 618h-125v-289h125q73 0 116 40.5t43 104.5q0 60 -43 102q-44 42 -116 42zM384 260l173 -245q12 -15 -7 -15h-70q-14 0 -24 13l-166 234h-111v-234q0 -13 -13 -13h-62q-13 0 -13 13v674q0 13 13 13h218q101 0 165 -64q65 -65 65 -162q0 -49 -18 -89.5t-45.5 -65.5
t-54 -39.5t-50.5 -19.5zM299 762l-33 15q-10 4 -6 17l78 154q5 12 18 8l50 -17q13 -4 5 -16l-93 -155q-7 -12 -19 -6z" />
    <glyph glyph-name="racute" unicode="&#x155;" horiz-adv-x="399" 
d="M99 500h61q13 0 13 -13v-91q18 48 56.5 81t85.5 33q39 0 67 -14q10 -4 6 -18l-17 -57q-5 -11 -17 -6q-22 9 -47 9q-56 0 -95 -55q-39 -54 -39 -129v-227q0 -13 -13 -13h-61q-13 0 -13 13v474q0 13 13 13zM238 555l-33 15q-11 5 -6 17l78 154q5 12 18 8l50 -17
q12 -3 5 -16l-93 -155q-7 -10 -19 -6z" />
    <glyph glyph-name="uni0156" unicode="&#x156;" horiz-adv-x="600" 
d="M256 -241l28 180q2 12 14 12h59q11 0 10 -12l-36 -180q-2 -11 -16 -11h-49q-12 0 -10 11zM305 618h-126v-289h126q73 0 116 40.5t43 104.5q0 60 -44 102t-115 42zM384 260l173 -245q12 -15 -7 -15h-70q-14 0 -24 13l-166 234h-111v-234q0 -13 -13 -13h-62q-13 0 -13 13
v674q0 13 13 13h218q101 0 165 -64q65 -65 65 -162q0 -49 -18 -89.5t-45.5 -65.5t-54 -39.5t-50.5 -19.5z" />
    <glyph glyph-name="uni0157" unicode="&#x157;" horiz-adv-x="400" 
d="M59 -241l28 180q1 12 14 12h59q12 0 10 -12l-36 -180q-2 -11 -15 -11h-50q-12 0 -10 11zM99 500h61q13 0 13 -13v-91q18 48 56.5 81t85.5 33q39 0 67 -14q10 -4 6 -18l-17 -57q-5 -11 -17 -6q-22 9 -47 9q-56 0 -95 -55q-39 -54 -39 -129v-227q0 -13 -13 -13h-61
q-13 0 -13 13v474q0 13 13 13z" />
    <glyph glyph-name="Rcaron" unicode="&#x158;" horiz-adv-x="600" 
d="M304 618h-125v-289h125q73 0 116 40.5t43 104.5q0 60 -43 102q-44 42 -116 42zM384 260l173 -245q12 -15 -7 -15h-70q-14 0 -24 13l-166 234h-111v-234q0 -13 -13 -13h-62q-13 0 -13 13v674q0 13 13 13h218q101 0 165 -64q65 -65 65 -162q0 -49 -18 -89.5t-45.5 -65.5
t-54 -39.5t-50.5 -19.5zM321 764h-38q-12 0 -26 13l-116 126q-8 8 1 20l19 23q9 10 20 -1l121 -118l120 118q13 9 21 1l19 -23q8 -11 1 -20l-117 -126q-13 -13 -25 -13z" />
    <glyph glyph-name="rcaron" unicode="&#x159;" horiz-adv-x="400" 
d="M99 500h61q13 0 13 -13v-91q18 48 56.5 81t85.5 33q39 0 67 -14q10 -4 6 -18l-17 -57q-5 -11 -17 -6q-22 9 -47 9q-56 0 -95 -55q-39 -54 -39 -129v-227q0 -13 -13 -13h-61q-13 0 -13 13v474q0 13 13 13zM259 560h-38q-15 0 -25 13l-117 125q-7 9 1 20l19 23q10 10 21 -1
l120 -117l121 117q11 11 20 1l19 -23q9 -10 1 -20l-116 -125q-13 -13 -26 -13z" />
    <glyph glyph-name="Sacute" unicode="&#x15a;" horiz-adv-x="545" 
d="M470 634l-33 -50q-7 -12 -21 -4q-71 44 -140 44q-55 0 -93 -27t-38 -70q0 -36 26 -64q13 -13 31.5 -24t33.5 -17t43.5 -16.5t43.5 -16.5q48 -20 85 -40q42 -22 67.5 -63.5t25.5 -96.5q0 -80 -60 -140q-61 -59 -172 -59q-119 0 -223 83q-10 7 -3 18l32 48q8 12 20 3
q83 -66 175 -66q66 0 103.5 30.5t37.5 81.5q0 14 -3 26t-10.5 22.5t-13 18.5t-19 16.5t-21 13.5t-26.5 13t-26 11t-30 11.5t-29 11.5q-43 18 -85 39q-41 21 -66.5 61.5t-25.5 94.5q0 81 65 132q66 51 159 51q98 0 186 -57q11 -7 4 -19zM285 762l-34 15q-9 4 -5 17l78 153
q4 12 18 9l49 -17q14 -5 6 -17l-94 -155q-7 -10 -18 -5z" />
    <glyph glyph-name="sacute" unicode="&#x15b;" horiz-adv-x="438" 
d="M88 111q60 -51 131 -51q45 0 73 21t28 56q0 52 -96 83q-91 32 -122 55q-53 38 -53 97t49 98q49 40 123 40q94 0 159 -56q10 -10 1 -18l-28 -30q-8 -8 -20 -1q-53 35 -111 35q-38 0 -65 -18.5t-27 -48.5q0 -25 28 -43t68 -31t80 -29.5t68 -49.5t28 -80q0 -64 -52 -107
q-50 -43 -132 -43q-107 0 -179 72q-9 10 2 21l26 28q9 9 21 0zM232 555l-34 15q-10 6 -5 17l78 154q5 13 17 8l50 -17q12 -3 6 -16l-94 -155q-8 -11 -18 -6z" />
    <glyph glyph-name="Scircumflex" unicode="&#x15c;" horiz-adv-x="545" 
d="M470 634l-33 -50q-7 -12 -21 -4q-71 44 -140 44q-55 0 -93 -27t-38 -70q0 -36 26 -64q13 -13 31.5 -24t33.5 -17t43.5 -16.5t43.5 -16.5q48 -20 85 -40q42 -22 67.5 -63.5t25.5 -96.5q0 -80 -60 -140q-61 -59 -172 -59q-119 0 -223 83q-10 7 -3 18l32 48q8 12 20 3
q83 -66 175 -66q66 0 103.5 30.5t37.5 81.5q0 14 -3 26t-10.5 22.5t-13 18.5t-19 16.5t-21 13.5t-26.5 13t-26 11t-30 11.5t-29 11.5q-43 18 -85 39q-41 21 -66.5 61.5t-25.5 94.5q0 81 65 132q66 51 159 51q98 0 186 -57q11 -7 4 -19zM253 940h38q14 0 25 -14l117 -125
q9 -9 -1 -20l-19 -23q-9 -10 -20 1l-121 118l-121 -118q-11 -11 -20 -1l-19 23q-10 11 -1 20l117 125q11 14 25 14z" />
    <glyph glyph-name="scircumflex" unicode="&#x15d;" horiz-adv-x="438" 
d="M88 111q60 -51 131 -51q45 0 73 21t28 56q0 52 -96 83q-91 32 -122 55q-53 38 -53 97t49 98q49 40 123 40q94 0 159 -56q10 -10 1 -18l-28 -30q-8 -8 -20 -1q-53 35 -111 35q-38 0 -65 -18.5t-27 -48.5q0 -25 28 -43t68 -31t80 -29.5t68 -49.5t28 -80q0 -64 -52 -107
q-50 -43 -132 -43q-107 0 -179 72q-9 10 2 21l26 28q9 9 21 0zM203 745h38q15 0 25 -13l116 -125q10 -9 -1 -20l-19 -23q-7 -7 -20 1l-120 118l-121 -118q-12 -9 -20 -1l-19 23q-11 11 -1 20l116 125q10 13 26 13z" />
    <glyph glyph-name="Scedilla" unicode="&#x15e;" horiz-adv-x="545" 
d="M208 -165l42 156q-108 7 -204 82q-10 7 -3 18l32 48q8 12 20 3q83 -66 175 -66q66 0 103.5 30.5t37.5 81.5q0 14 -3 26t-10.5 22.5t-13 18.5t-19 16.5t-21 13.5t-26.5 13t-26 11t-30 11.5t-29 11.5q-43 18 -85 39q-41 21 -66.5 61.5t-25.5 94.5q0 81 65 132q66 51 159 51
q98 0 186 -57q11 -7 4 -19l-33 -50q-7 -12 -21 -4q-70 44 -140 44q-55 0 -93 -27t-38 -70q0 -36 26 -64q13 -13 31.5 -24t33.5 -17t43.5 -16.5t43.5 -16.5q48 -20 85 -40q42 -22 67.5 -63.5t25.5 -96.5q-1 -75 -51 -129q-50 -55 -132 -65l-30 -160q-2 -11 -16 -11h-53
q-16 0 -11 11z" />
    <glyph glyph-name="scedilla" unicode="&#x15f;" horiz-adv-x="438" 
d="M263 -5l-30 -160q-2 -11 -16 -11h-53q-13 0 -11 11l42 157q-93 7 -156 70q-9 10 2 21l26 28q9 9 21 0q60 -51 131 -51q45 0 73 21t28 56q0 52 -96 83q-91 32 -122 55q-53 38 -53 97t49 98q49 40 123 40q94 0 159 -56q10 -10 1 -18l-28 -30q-8 -8 -20 -1q-53 35 -111 35
q-38 0 -65 -18.5t-27 -48.5q0 -44 96 -75q37 -11 62 -21t54 -28.5t44.5 -45.5t15.5 -63q0 -53 -37 -93t-102 -52zM88 111q60 -51 131 -51q45 0 73 21t28 56q0 52 -96 83q-91 32 -122 55q-53 38 -53 97t49 98q49 40 123 40q94 0 159 -56q10 -10 1 -18l-28 -30q-8 -8 -20 -1
q-53 35 -111 35q-38 0 -65 -18.5t-27 -48.5q0 -25 28 -43t68 -31t80 -29.5t68 -49.5t28 -80q0 -64 -52 -107q-50 -43 -132 -43q-107 0 -179 72q-9 10 2 21l26 28q9 9 21 0z" />
    <glyph glyph-name="Scaron" unicode="&#x160;" horiz-adv-x="545" 
d="M470 634l-33 -50q-7 -12 -21 -4q-71 44 -140 44q-55 0 -93 -27t-38 -70q0 -36 26 -64q13 -13 31.5 -24t33.5 -17t43.5 -16.5t43.5 -16.5q48 -20 85 -40q42 -22 67.5 -63.5t25.5 -96.5q0 -80 -60 -140q-61 -59 -172 -59q-119 0 -223 83q-10 7 -3 18l32 48q8 12 20 3
q83 -66 175 -66q66 0 103.5 30.5t37.5 81.5q0 14 -3 26t-10.5 22.5t-13 18.5t-19 16.5t-21 13.5t-26.5 13t-26 11t-30 11.5t-29 11.5q-43 18 -85 39q-41 21 -66.5 61.5t-25.5 94.5q0 81 65 132q66 51 159 51q98 0 186 -57q11 -7 4 -19zM296 764h-38q-12 0 -26 13l-116 126
q-8 8 1 20l19 23q10 10 20 -1l121 -118l120 118q13 9 21 1l19 -23q8 -11 1 -20l-117 -126q-13 -13 -25 -13z" />
    <glyph glyph-name="scaron" unicode="&#x161;" horiz-adv-x="438" 
d="M88 111q60 -51 131 -51q45 0 73 21t28 56q0 52 -96 83q-91 32 -122 55q-53 38 -53 97t49 98q49 40 123 40q94 0 159 -56q10 -10 1 -18l-28 -30q-8 -8 -20 -1q-53 35 -111 35q-38 0 -65 -18.5t-27 -48.5q0 -25 28 -43t68 -31t80 -29.5t68 -49.5t28 -80q0 -64 -52 -107
q-50 -43 -132 -43q-107 0 -179 72q-9 10 2 21l26 28q9 9 21 0zM244 558h-38q-13 0 -26 13l-116 125q-8 10 1 20l19 23q9 10 20 -1l121 -117l120 117q14 11 21 1l19 -23q9 -9 1 -20l-117 -125q-10 -13 -25 -13z" />
    <glyph glyph-name="uni0162" unicode="&#x162;" horiz-adv-x="584" 
d="M323 0h-62q-13 0 -13 13v600h-205q-13 0 -13 13v61q0 13 13 13h498q13 0 13 -13v-61q0 -13 -13 -13h-205v-600q0 -13 -13 -13zM222 -241l28 180q2 12 14 12h59q12 0 9 -12l-35 -180q-2 -11 -16 -11h-49q-12 0 -10 11z" />
    <glyph glyph-name="uni0163" unicode="&#x163;" horiz-adv-x="397" 
d="M332 86l25 -52q5 -11 -7 -17q-52 -27 -105 -27q-64 0 -99.5 34t-35.5 97v298h-54q-13 0 -13 13v55q0 13 13 13h54v135q0 13 13 13h61q13 0 13 -13v-135h126q13 0 13 -13v-55q0 -13 -12 -13h-127v-288q0 -57 61 -57q28 0 61 16q9 4 13 -4zM132 -241l28 180q2 12 14 12h59
q12 0 9 -12l-35 -180q-2 -11 -16 -11h-49q-12 0 -10 11z" />
    <glyph glyph-name="Tcaron" unicode="&#x164;" horiz-adv-x="584" 
d="M323 0h-62q-13 0 -13 13v600h-205q-13 0 -13 13v61q0 13 13 13h498q13 0 13 -13v-61q0 -13 -13 -13h-205v-600q0 -13 -13 -13zM311 764h-38q-12 0 -26 13l-116 126q-8 8 1 20l19 23q9 10 20 -1l121 -118l120 118q13 9 21 1l19 -23q8 -11 1 -20l-117 -126q-13 -13 -25 -13
z" />
    <glyph glyph-name="tcaron" unicode="&#x165;" horiz-adv-x="424" 
d="M269 574l28 179q1 13 14 13h59q12 0 10 -12l-36 -181q-3 -11 -15 -11h-50q-11 0 -10 12zM332 86l25 -52q5 -11 -7 -17q-52 -27 -105 -27q-64 0 -99.5 34t-35.5 97v298h-54q-13 0 -13 13v55q0 13 13 13h54v135q0 13 13 13h61q13 0 13 -13v-135h126q13 0 13 -13v-55
q0 -13 -12 -13h-127v-288q0 -57 61 -57q28 0 61 16q9 4 13 -4z" />
    <glyph glyph-name="Tbar" unicode="&#x166;" horiz-adv-x="584" 
d="M248 288h-176q-13 0 -13 13v61q0 13 13 13h176v238h-205q-13 0 -13 13v61q0 13 13 13h498q13 0 13 -13v-61q0 -13 -13 -13h-205v-238h175q13 0 13 -13v-61q0 -13 -13 -13h-175v-275q0 -13 -13 -13h-62q-13 0 -13 13v275z" />
    <glyph glyph-name="tbar" unicode="&#x167;" horiz-adv-x="397" 
d="M197 252v-121q0 -57 61 -57q28 0 61 16q9 4 13 -4l25 -52q5 -11 -7 -17q-52 -27 -105 -27q-64 0 -99.5 34t-35.5 97v131h-36q-13 0 -13 13v20q0 13 13 13h36v121h-54q-13 0 -13 13v55q0 13 13 13h54v135q0 13 13 13h61q13 0 13 -13v-135h126q13 0 13 -13v-55
q0 -13 -12 -13h-127v-121h83q13 0 13 -13v-20q0 -13 -12 -13h-84z" />
    <glyph glyph-name="Utilde" unicode="&#x168;" horiz-adv-x="691" 
d="M94 700h62q13 0 13 -13v-407q0 -94 46.5 -149t129.5 -55t130 55t47 149v407q0 13 13 13h62q13 0 13 -13v-421q0 -118 -71 -198q-71 -78 -194 -78t-194 78q-70 79 -70 198v421q0 13 13 13zM416 862q34 0 84 57q9 13 14 -4l11 -40q3 -12 -5 -20q-21 -25 -48.5 -41.5
t-51.5 -16.5q-33 0 -79 32q-44 32 -65 32q-35 0 -84 -58q-10 -10 -14 5l-11 40q-4 10 5 20q21 25 48.5 41.5t51.5 16.5q35 0 79 -32t65 -32z" />
    <glyph glyph-name="utilde" unicode="&#x169;" 
d="M87 500h61q14 0 14 -13v-249q0 -78 33.5 -121t98.5 -43q62 0 104 49t42 112v252q0 13 13 13h62q13 0 13 -13v-474q0 -13 -13 -13h-62q-13 0 -13 13v87q-25 -48 -70.5 -79t-102.5 -31q-95 0 -144 60.5t-49 172.5v264q0 13 13 13zM372 670q37 0 83 58q11 11 15 -5l10 -40
q4 -10 -4 -20q-21 -25 -49 -41.5t-51 -16.5q-33 0 -79 32q-44 32 -66 32q-35 0 -83 -57q-10 -11 -14 4l-11 40q-4 12 4 20q49 58 101 58q35 0 79 -32t65 -32z" />
    <glyph glyph-name="Umacron" unicode="&#x16a;" horiz-adv-x="691" 
d="M94 700h62q13 0 13 -13v-407q0 -94 46.5 -149t129.5 -55t130 55t47 149v407q0 13 13 13h62q13 0 13 -13v-421q0 -118 -71 -198q-71 -78 -194 -78t-194 78q-70 79 -70 198v421q0 13 13 13zM198 835v48q0 12 13 12h269q14 0 14 -13v-47q0 -13 -14 -13h-269q-13 0 -13 13z
" />
    <glyph glyph-name="umacron" unicode="&#x16b;" 
d="M87 500h61q14 0 14 -13v-249q0 -78 33.5 -121t98.5 -43q62 0 104 49t42 112v252q0 13 13 13h62q13 0 13 -13v-474q0 -13 -13 -13h-62q-13 0 -13 13v87q-25 -48 -70.5 -79t-102.5 -31q-95 0 -144 60.5t-49 172.5v264q0 13 13 13zM152 637v48q0 13 14 13h268q14 0 14 -13
v-48q0 -13 -14 -13h-268q-14 0 -14 13z" />
    <glyph glyph-name="Ubreve" unicode="&#x16c;" horiz-adv-x="691" 
d="M94 700h62q13 0 13 -13v-407q0 -94 46.5 -149t129.5 -55t130 55t47 149v407q0 13 13 13h62q13 0 13 -13v-421q0 -118 -71 -198q-71 -78 -194 -78t-194 78q-70 79 -70 198v421q0 13 13 13zM501 904q-3 -63 -45.5 -99.5t-110.5 -36.5q-67 0 -109.5 36.5t-45.5 99.5
q0 8 10 11l40 7q9 3 11 -8q2 -36 26.5 -58t67.5 -22t68 22t27 58q2 11 11 8l40 -7q10 -3 10 -11z" />
    <glyph glyph-name="ubreve" unicode="&#x16d;" 
d="M87 500h61q14 0 14 -13v-249q0 -78 33.5 -121t98.5 -43q62 0 104 49t42 112v252q0 13 13 13h62q13 0 13 -13v-474q0 -13 -13 -13h-62q-13 0 -13 13v87q-25 -48 -70.5 -79t-102.5 -31q-95 0 -144 60.5t-49 172.5v264q0 13 13 13zM460 705q-3 -63 -45.5 -99.5t-110.5 -36.5
q-67 0 -109.5 36.5t-45.5 99.5q0 9 9 10l41 8q10 1 10 -9q2 -35 27 -57.5t68 -22.5t68 22.5t27 57.5q1 10 10 9l41 -8q10 -3 10 -10z" />
    <glyph glyph-name="Uring" unicode="&#x16e;" horiz-adv-x="691" 
d="M94 700h62q13 0 13 -13v-407q0 -94 46.5 -149t129.5 -55t130 55t47 149v407q0 13 13 13h62q13 0 13 -13v-421q0 -118 -71 -198q-71 -78 -194 -78t-194 78q-70 79 -70 198v421q0 13 13 13zM233 861q0 46 33 79t80 33q46 0 79 -33q33 -32 33 -79t-33 -80t-79 -33t-80 33
q-33 33 -33 80zM307 900q-16 -16 -16 -39t16 -39t39 -16t39 16t16 39t-16 39t-39 16t-39 -16z" />
    <glyph glyph-name="uring" unicode="&#x16f;" 
d="M87 500h61q14 0 14 -13v-249q0 -78 33.5 -121t98.5 -43q62 0 104 49t42 112v252q0 13 13 13h62q13 0 13 -13v-474q0 -13 -13 -13h-62q-13 0 -13 13v87q-25 -48 -70.5 -79t-102.5 -31q-95 0 -144 60.5t-49 172.5v264q0 13 13 13zM299 782q46 0 79 -33t33 -80t-33 -80
t-79 -33q-47 0 -80 33t-33 80t33 80t80 33zM260 708q-16 -16 -16 -39t16 -39t39 -16t39 16t16 39t-16 39t-39 16t-39 -16z" />
    <glyph glyph-name="Uhungarumlaut" unicode="&#x170;" horiz-adv-x="691" 
d="M94 700h62q13 0 13 -13v-407q0 -94 46.5 -149t129.5 -55t130 55t47 149v407q0 13 13 13h62q13 0 13 -13v-421q0 -118 -71 -198q-71 -78 -194 -78t-194 78q-70 79 -70 198v421q0 13 13 13zM257 761l-32 13q-11 6 -6 18l77 155q5 11 18 8l49 -17q13 -4 5 -16l-91 -155
q-8 -12 -20 -6zM429 761l-32 13q-12 6 -7 18l77 155q5 11 19 8l51 -18q12 -4 6 -16l-94 -154q-8 -12 -20 -6z" />
    <glyph glyph-name="uhungarumlaut" unicode="&#x171;" 
d="M87 500h61q14 0 14 -13v-249q0 -78 33.5 -121t98.5 -43q62 0 104 49t42 112v252q0 13 13 13h62q13 0 13 -13v-474q0 -13 -13 -13h-62q-13 0 -13 13v87q-25 -48 -70.5 -79t-102.5 -31q-95 0 -144 60.5t-49 172.5v264q0 13 13 13zM217 539l-32 13q-11 6 -6 18l77 155
q5 11 18 8l49 -17q10 -4 6 -17l-92 -154q-8 -12 -20 -6zM389 539l-32 13q-11 6 -6 18l77 155q5 11 18 8l51 -18q14 -5 6 -16l-94 -154q-8 -12 -20 -6z" />
    <glyph glyph-name="Uogonek" unicode="&#x172;" horiz-adv-x="691" 
d="M315 -9q-109 10 -172 85q-62 77 -62 190v421q0 13 13 13h62q13 0 13 -13v-407q0 -94 46.5 -149t129.5 -55t130 55t47 149v407q0 13 13 13h62q13 0 13 -13v-421q0 -64 -23 -124q-24 -60 -79.5 -101t-131.5 -49q-33 -20 -38.5 -54.5t19.5 -57t70 -11.5q8 2 10 -8l2 -41
q1 -10 -10 -12q-47 -8 -85.5 8t-54.5 46q-16 28 -9.5 65t35.5 64z" />
    <glyph glyph-name="uogonek" unicode="&#x173;" 
d="M440 24v76q-25 -48 -70.5 -79t-102.5 -31q-95 0 -144 60.5t-49 172.5v264q0 13 13 13h61q14 0 14 -13v-249q0 -78 33.5 -121t98.5 -43q62 0 104 49t42 112v252q0 13 13 13h62q13 0 13 -14v-473q0 -13 -7 -13q-33 -21 -41 -57t15 -60t66 -14q9 2 11 -8l1 -41q1 -10 -8 -12
q-68 -11 -109 22q-40 33 -39 84q2 50 47 86h-17q-7 3 -7 24z" />
    <glyph glyph-name="Wcircumflex" unicode="&#x174;" horiz-adv-x="917" 
d="M707 0h-79q-16 0 -19 14l-150 551l-150 -551q-3 -14 -19 -14h-79q-15 0 -18 14l-172 672q-3 14 10 14h69q14 0 17 -14l138 -547l150 550q5 11 16 11h76q12 0 15 -11l151 -550l137 547q5 14 18 14h69q14 0 9 -14l-171 -672q-5 -14 -18 -14zM440 940h38q13 0 25 -14
l117 -125q7 -10 -1 -20l-19 -23q-8 -8 -21 1l-120 118l-121 -118q-10 -11 -20 -1l-19 23q-11 11 -1 20l116 125q12 14 26 14z" />
    <glyph glyph-name="wcircumflex" unicode="&#x175;" horiz-adv-x="707" 
d="M109 487l92 -373l3 8q2 9 8.5 33.5t13.5 50.5l52 186l25 93q3 15 17 15h67q14 0 17 -15l102 -371l91 373q4 13 16 13h62q12 0 9 -13l-116 -471q-4 -16 -18 -16h-79q-15 0 -19 16l-99 376l-98 -376q-4 -16 -19 -16h-79q-15 0 -19 16l-115 471q-3 13 9 13h62q12 0 15 -13z
M334 729h38q14 0 26 -14l116 -125q10 -10 -1 -20l-19 -23q-10 -9 -20 1l-121 118l-120 -118q-12 -11 -20 -1l-19 23q-11 11 -1 20l116 125q12 14 25 14z" />
    <glyph glyph-name="Ycircumflex" unicode="&#x176;" horiz-adv-x="585" 
d="M121 692l172 -271l171 271q5 8 16 8h73q12 0 5 -13l-221 -344v-330q0 -13 -13 -13h-62q-13 0 -13 13v330l-222 344q-7 13 6 13h73q10 0 15 -8zM274 940h38q14 0 25 -14l117 -125q10 -9 -1 -20l-19 -23q-10 -10 -20 1l-121 118l-121 -118q-10 -11 -20 -1l-19 23
q-11 11 -1 20l117 125q11 14 25 14z" />
    <glyph glyph-name="ycircumflex" unicode="&#x177;" horiz-adv-x="615" 
d="M530 487v-472q0 -118 -67 -194q-66 -76 -180 -76q-61 0 -112.5 24.5t-82.5 65.5q-8 10 -1 18l34 43q9 10 16 1q50 -68 144 -68q78 0 119.5 48.5t41.5 129.5v100q-17 -41 -66 -74q-48 -33 -107 -33q-95 0 -144 60.5t-49 172.5v254q0 13 13 13h61q13 0 13 -13v-239
q0 -77 34 -120.5t99 -43.5q64 0 104 48q42 50 42 113v242q0 13 13 13h61q14 0 14 -13zM284 745h38q15 0 25 -13l117 -125q7 -10 -1 -20l-19 -23q-8 -9 -21 1l-120 118l-121 -118q-10 -11 -20 -1l-19 23q-11 11 -1 20l116 125q10 13 26 13z" />
    <glyph glyph-name="Ydieresis" unicode="&#x178;" horiz-adv-x="585" 
d="M121 692l172 -271l171 271q5 8 16 8h73q12 0 5 -13l-221 -344v-330q0 -13 -13 -13h-62q-13 0 -13 13v330l-222 344q-7 13 6 13h73q10 0 15 -8zM150 798q-15 16 -15 38t15 38q16 16 39 16t38 -16q16 -16 16 -38t-16 -38q-15 -16 -38 -16t-39 16zM396 890q22 0 38 -16
t16 -38t-16 -38t-38 -16q-23 0 -38 15.5t-15 38.5t15 38.5t38 15.5z" />
    <glyph glyph-name="Zacute" unicode="&#x179;" horiz-adv-x="611" 
d="M45 13v48q0 15 10 28l384 524h-368q-13 0 -13 13v61q0 13 13 13h471q13 0 13 -13v-53q0 -11 -5 -18l-388 -529h391q14 0 14 -13v-61q0 -13 -14 -13h-495q-13 0 -13 13zM302 762l-34 15q-10 6 -5 17l78 154q5 12 18 8l49 -17q13 -3 6 -16l-94 -155q-8 -10 -18 -6z" />
    <glyph glyph-name="zacute" unicode="&#x17a;" horiz-adv-x="473" 
d="M40 13v36q0 17 10 27l254 344h-237q-14 0 -14 13v54q0 13 14 13h338q14 0 14 -13v-32q0 -17 -11 -31l-254 -344h266q13 0 13 -13v-54q0 -13 -13 -13h-367q-13 0 -13 13zM239 555l-34 15q-10 6 -5 17l78 154q5 12 18 8l49 -17q13 -3 6 -16l-94 -155q-7 -11 -18 -6z" />
    <glyph glyph-name="Zdotaccent" unicode="&#x17b;" horiz-adv-x="611" 
d="M45 13v48q0 15 10 28l384 524h-368q-13 0 -13 13v61q0 13 13 13h471q13 0 13 -13v-53q0 -11 -5 -18l-388 -529h391q14 0 14 -13v-61q0 -13 -14 -13h-495q-13 0 -13 13zM266 848q-15 16 -15 39t15 38q16 16 39 16t38 -16q16 -15 16 -38t-16 -39q-15 -15 -38 -15t-39 15z
" />
    <glyph glyph-name="zdotaccent" unicode="&#x17c;" horiz-adv-x="473" 
d="M40 13v36q0 17 10 27l254 344h-237q-14 0 -14 13v54q0 13 14 13h338q14 0 14 -13v-32q0 -17 -11 -31l-254 -344h266q13 0 13 -13v-54q0 -13 -13 -13h-367q-13 0 -13 13zM192 634q-15 16 -15 39t15 39q16 16 39 16t39 -16t16 -39t-16 -39q-16 -15 -39 -15t-39 15z" />
    <glyph glyph-name="Zcaron" unicode="&#x17d;" horiz-adv-x="611" 
d="M45 13v48q0 15 10 28l384 524h-368q-13 0 -13 13v61q0 13 13 13h471q13 0 13 -13v-53q0 -11 -5 -18l-388 -529h391q14 0 14 -13v-61q0 -13 -14 -13h-495q-13 0 -13 13zM327 764h-38q-12 0 -25 13l-117 126q-7 9 1 20l19 23q9 9 21 -1l120 -118l121 118q11 11 20 1l19 -23
q9 -10 1 -20l-116 -126q-13 -13 -26 -13z" />
    <glyph glyph-name="zcaron" unicode="&#x17e;" horiz-adv-x="473" 
d="M40 13v36q0 17 10 27l254 344h-237q-14 0 -14 13v54q0 13 14 13h338q14 0 14 -13v-32q0 -17 -11 -31l-254 -344h266q13 0 13 -13v-54q0 -13 -13 -13h-367q-13 0 -13 13zM259 553h-38q-15 0 -25 13l-117 125q-9 9 1 20l19 23q7 10 21 -1l120 -117l121 117q11 11 20 1
l19 -23q9 -10 1 -20l-117 -125q-10 -13 -25 -13z" />
    <glyph glyph-name="longs" unicode="&#x17f;" horiz-adv-x="363" 
d="M203 590v-577q0 -13 -13 -13h-62q-13 0 -13 13v406h-66q-13 0 -13 13v55q0 13 13 13h66v108q0 74 37.5 112.5t102.5 38.5q59 0 112 -32q10 -6 5 -17l-27 -46q-4 -7 -13 -3q-34 14 -61 14q-68 0 -68 -85z" />
    <glyph glyph-name="florin" unicode="&#x192;" horiz-adv-x="600" 
d="M199 110l93 356h-67q-15 0 -15 13v31q0 15 14 15h84l28 110q14 55 33.5 83.5t52.5 43.5q54 27 141 -3q13 -4 10 -16l-8 -34q-3 -14 -17 -9q-54 14 -85 2q-28 -12 -40 -39q-10 -24 -21 -61l-20 -77h109q14 0 15 -13v-33q0 -13 -14 -13h-125l-102 -388q-14 -55 -32.5 -82.5
t-53.5 -44.5q-56 -27 -142 3q-13 4 -9 16l8 34q4 12 17 9q54 -14 85 -2q23 8 36 31t25 68z" />
    <glyph glyph-name="uni0218" unicode="&#x218;" horiz-adv-x="545" 
d="M204 -241l28 180q2 12 14 12h59q11 0 10 -12l-36 -180q-2 -11 -16 -11h-49q-12 0 -10 11zM470 634l-33 -50q-7 -12 -21 -4q-71 44 -140 44q-55 0 -93 -27t-38 -70q0 -36 26 -64q13 -13 31.5 -24t33.5 -17t43.5 -16.5t43.5 -16.5q48 -20 85 -40q42 -22 67.5 -63.5
t25.5 -96.5q0 -80 -60 -140q-61 -59 -172 -59q-119 0 -223 83q-10 7 -3 18l32 48q8 12 20 3q83 -66 175 -66q66 0 103.5 30.5t37.5 81.5q0 14 -3 26t-10.5 22.5t-13 18.5t-19 16.5t-21 13.5t-26.5 13t-26 11t-30 11.5t-29 11.5q-43 18 -85 39q-41 21 -66.5 61.5t-25.5 94.5
q0 81 65 132q66 51 159 51q98 0 186 -57q11 -7 4 -19z" />
    <glyph glyph-name="uni0219" unicode="&#x219;" horiz-adv-x="438" 
d="M151 -241l28 180q1 12 14 12h59q12 0 10 -12l-36 -180q-2 -11 -16 -11h-49q-12 0 -10 11zM88 111q60 -51 131 -51q45 0 73 21t28 56q0 52 -96 83q-91 32 -122 55q-53 38 -53 97t49 98q49 40 123 40q94 0 159 -56q10 -10 1 -18l-28 -30q-8 -8 -20 -1q-53 35 -111 35
q-38 0 -65 -18.5t-27 -48.5q0 -25 28 -43t68 -31t80 -29.5t68 -49.5t28 -80q0 -64 -52 -107q-50 -43 -132 -43q-107 0 -179 72q-9 10 2 21l26 28q9 9 21 0z" />
    <glyph glyph-name="uni021A" unicode="&#x21a;" horiz-adv-x="584" 
d="M323 0h-62q-13 0 -13 13v600h-205q-13 0 -13 13v61q0 13 13 13h498q13 0 13 -13v-61q0 -13 -13 -13h-205v-600q0 -13 -13 -13zM222 -241l28 180q2 12 14 12h59q12 0 9 -12l-35 -180q-2 -11 -16 -11h-49q-12 0 -10 11z" />
    <glyph glyph-name="uni021B" unicode="&#x21b;" horiz-adv-x="397" 
d="M332 86l25 -52q5 -11 -7 -17q-52 -27 -105 -27q-64 0 -99.5 34t-35.5 97v298h-54q-13 0 -13 13v55q0 13 13 13h54v135q0 13 13 13h61q13 0 13 -13v-135h126q13 0 13 -13v-55q0 -13 -12 -13h-127v-288q0 -57 61 -57q28 0 61 16q9 4 13 -4zM132 -241l28 180q2 12 14 12h59
q12 0 9 -12l-35 -180q-2 -11 -16 -11h-49q-12 0 -10 11z" />
    <glyph glyph-name="uni0237" unicode="&#x237;" horiz-adv-x="276" 
d="M-54 -216l23 50q6 10 15 6q27 -11 48 -11q27 0 44.5 18.5t17.5 50.5v589q0 13 13 13h61q14 0 14 -13v-603q0 -61 -38.5 -100t-101.5 -39q-44 0 -89 22q-13 4 -7 17zM82 701q0 24 16 40.5t39 16.5q24 0 40.5 -16.5t16.5 -40.5q0 -23 -16.5 -39t-40.5 -16q-23 0 -39 16
t-16 39z" />
    <glyph glyph-name="circumflex" unicode="&#x2c6;" horiz-adv-x="369" 
d="M166 737h38q12 0 25 -13l117 -125q8 -11 -1 -20l-19 -23q-9 -9 -21 1l-120 117l-121 -117q-11 -11 -20 -1l-19 23q-11 11 -1 20l116 125q10 13 26 13z" />
    <glyph glyph-name="caron" unicode="&#x2c7;" horiz-adv-x="369" 
d="M204 558h-38q-12 0 -26 13l-116 126q-8 8 1 19l19 23q9 10 20 -1l121 -117l120 117q12 10 21 1l19 -23q9 -8 1 -19l-117 -126q-13 -13 -25 -13z" />
    <glyph glyph-name="uni02C9" unicode="&#x2c9;" horiz-adv-x="440" 
d="M73 618v48q0 12 13 12h269q13 0 13 -13v-47q0 -14 -13 -14h-269q-13 0 -13 14z" />
    <glyph glyph-name="breve" unicode="&#x2d8;" horiz-adv-x="350" 
d="M331 718q-3 -63 -45.5 -99.5t-110.5 -36.5q-67 0 -109.5 36.5t-45.5 99.5q0 8 9 10l41 8q10 1 10 -9q2 -35 27 -57.5t68 -22.5t68 22.5t27 57.5q1 10 10 9l41 -8q10 -1 10 -10z" />
    <glyph glyph-name="dotaccent" unicode="&#x2d9;" horiz-adv-x="178" 
d="M35 646q0 23 15.5 39t37.5 16q23 0 39 -16t16 -39q0 -22 -16 -37.5t-39 -15.5q-22 0 -37.5 15.5t-15.5 37.5z" />
    <glyph glyph-name="ring" unicode="&#x2da;" horiz-adv-x="258" 
d="M129 751q47 0 80 -33t33 -79q0 -47 -33 -80t-80 -33q-46 0 -79 33q-33 34 -33 80t33 79t79 33zM90 678q-16 -16 -16 -39t16 -39t39 -16t39 16q17 16 17 39t-17 39q-16 16 -39 16t-39 -16z" />
    <glyph glyph-name="ogonek" unicode="&#x2db;" horiz-adv-x="177" 
d="M66 6h66q-36 -24 -46 -59q-10 -38 12 -62.5t66 -15.5q9 2 11 -8l1 -41q2 -10 -9 -12q-40 -8 -72.5 2t-50 33t-23 51t6 58.5t38.5 53.5z" />
    <glyph glyph-name="tilde" unicode="&#x2dc;" horiz-adv-x="411" 
d="M276 636q34 0 83 58q9 9 14 -5l11 -40q4 -10 -4 -20q-51 -58 -101 -58q-32 0 -78 32t-66 32q-37 0 -83 -57q-9 -11 -15 4l-11 40q-3 12 5 20q21 25 48.5 41.5t51.5 16.5q35 0 79 -32q46 -32 66 -32z" />
    <glyph glyph-name="hungarumlaut" unicode="&#x2dd;" horiz-adv-x="402" 
d="M77 541l-32 13q-12 6 -7 18l77 155q5 11 19 8l48 -17q14 -5 6 -16l-91 -155q-8 -12 -20 -6zM249 541l-32 13q-12 4 -7 18l77 155q5 11 19 8l51 -18q13 -4 5 -16l-93 -154q-8 -12 -20 -6z" />
    <glyph glyph-name="uni0394" unicode="&#x394;" horiz-adv-x="620" 
d="M111 76h400l-199 586h-3zM20 13v18l230 703q6 16 20 16h81q14 0 20 -16l229 -703v-18q0 -13 -13 -13h-554q-13 0 -13 13z" />
    <glyph glyph-name="uni03A9" unicode="&#x3a9;" horiz-adv-x="788" 
d="M309 0h-236q-13 0 -13 13v48q0 11 13 11h159q-93 49 -142.5 127.5t-49.5 179.5q0 140 99 245q101 105 254 105q155 0 255 -105q100 -104 100 -245q-1 -97 -52 -178t-144 -129h161q13 0 13 -13v-46q0 -13 -13 -13h-238v69q199 108 200 299q2 121 -79 204q-81 85 -203 85
q-121 0 -201 -84q-79 -83 -80 -203q-1 -101 47.5 -174t149.5 -127v-69z" />
    <glyph glyph-name="uni03BC" unicode="&#x3bc;" 
d="M162 55v-292q0 -13 -14 -13h-61q-13 0 -13 13v724q0 13 13 13h61q14 0 14 -13v-249q0 -75 34.5 -119.5t97.5 -44.5q61 0 103 53q43 52 43 117v243q0 13 13 13h62q13 0 13 -13v-474q0 -13 -13 -13h-62q-13 0 -13 13v85q-18 -41 -57 -70.5t-87 -31.5q-87 -5 -134 59z" />
    <glyph glyph-name="pi" unicode="&#x3c0;" horiz-adv-x="655" 
d="M507 538v-525q0 -13 -13 -13h-58q-13 0 -13 13v525h-191v-525q0 -13 -13 -13h-58q-13 0 -13 13v525h-106q-12 0 -12 13v59q0 13 12 13h571q13 0 13 -13v-59q0 -13 -13 -13h-106z" />
    <glyph glyph-name="Wgrave" unicode="&#x1e80;" horiz-adv-x="917" 
d="M707 0h-79q-16 0 -19 14l-150 551l-150 -551q-3 -14 -19 -14h-79q-15 0 -18 14l-172 672q-3 14 10 14h69q14 0 17 -14l138 -547l150 550q5 11 16 11h76q12 0 15 -11l151 -550l137 547q5 14 18 14h69q14 0 9 -14l-171 -672q-5 -14 -18 -14zM478 777l-33 -15q-12 -6 -19 6
l-93 155q-8 12 5 16l50 17q13 4 18 -8l78 -154q6 -12 -6 -17z" />
    <glyph glyph-name="wgrave" unicode="&#x1e81;" horiz-adv-x="707" 
d="M109 487l92 -373l3 8q2 9 8.5 33.5t13.5 50.5l52 186l25 93q3 15 17 15h67q14 0 17 -15l102 -371l91 373q4 13 16 13h62q12 0 9 -13l-116 -471q-4 -16 -18 -16h-79q-15 0 -19 16l-99 376l-98 -376q-4 -16 -19 -16h-79q-15 0 -19 16l-115 471q-3 13 9 13h62q12 0 15 -13z
M371 570l-33 -15q-12 -4 -19 6l-93 155q-9 13 5 16l50 17q12 4 18 -8l77 -154q6 -12 -5 -17z" />
    <glyph glyph-name="Wacute" unicode="&#x1e82;" horiz-adv-x="917" 
d="M707 0h-79q-16 0 -19 14l-150 551l-150 -551q-3 -14 -19 -14h-79q-15 0 -18 14l-172 672q-3 14 10 14h69q14 0 17 -14l138 -547l150 550q5 11 16 11h76q12 0 15 -11l151 -550l137 547q5 14 18 14h69q14 0 9 -14l-171 -672q-5 -14 -18 -14zM470 772l-33 15q-11 5 -5 17
l77 154q6 12 18 8l50 -17q12 -4 6 -16l-94 -155q-7 -12 -19 -6z" />
    <glyph glyph-name="wacute" unicode="&#x1e83;" horiz-adv-x="707" 
d="M109 487l92 -373l3 8q2 9 8.5 33.5t13.5 50.5l52 186l25 93q3 15 17 15h67q14 0 17 -15l102 -371l91 373q4 13 16 13h62q12 0 9 -13l-116 -471q-4 -16 -18 -16h-79q-15 0 -19 16l-99 376l-98 -376q-4 -16 -19 -16h-79q-15 0 -19 16l-115 471q-3 13 9 13h62q12 0 15 -13z
M368 555l-33 15q-11 6 -5 17l77 154q6 12 18 8l50 -17q12 -3 6 -16l-94 -155q-7 -10 -19 -6z" />
    <glyph glyph-name="Wdieresis" unicode="&#x1e84;" horiz-adv-x="917" 
d="M707 0h-79q-16 0 -19 14l-150 551l-150 -551q-3 -14 -19 -14h-79q-15 0 -18 14l-172 672q-3 14 10 14h69q14 0 17 -14l138 -547l150 550q5 11 16 11h76q12 0 15 -11l151 -550l137 547q5 14 18 14h69q14 0 9 -14l-171 -672q-5 -14 -18 -14zM316 798q-15 16 -15 38t15 38
q16 16 39 16t38 -16q16 -16 16 -38t-16 -38q-15 -16 -38 -16t-39 16zM562 890q23 0 39 -15.5t16 -38.5t-16 -38.5t-39 -15.5q-22 0 -37.5 15.5t-15.5 38.5t15.5 38.5t37.5 15.5z" />
    <glyph glyph-name="wdieresis" unicode="&#x1e85;" horiz-adv-x="707" 
d="M109 487l92 -373l3 8q2 9 8.5 33.5t13.5 50.5l52 186l25 93q3 15 17 15h67q14 0 17 -15l102 -371l91 373q4 13 16 13h62q12 0 9 -13l-116 -471q-4 -16 -18 -16h-79q-15 0 -19 16l-99 376l-98 -376q-4 -16 -19 -16h-79q-15 0 -19 16l-115 471q-3 13 9 13h62q12 0 15 -13z
M196 643q0 23 16 38.5t38 15.5t38 -15.5t16 -38.5q0 -22 -15.5 -37.5t-38.5 -15.5t-38.5 15.5t-15.5 37.5zM419 605q-15 15 -15 38t15 38q15 16 38 16t38 -16q16 -15 16 -38t-16 -38q-15 -15 -38 -15t-38 15z" />
    <glyph glyph-name="endash" unicode="&#x2013;" horiz-adv-x="599" 
d="M85 316h429q13 0 13 -13v-61q0 -13 -13 -13h-429q-12 0 -12 13v61q0 13 12 13z" />
    <glyph glyph-name="emdash" unicode="&#x2014;" horiz-adv-x="1123" 
d="M85 316h953q12 0 12 -13v-61q0 -13 -12 -13h-953q-12 0 -12 13v61q0 13 12 13z" />
    <glyph glyph-name="quoteleft" unicode="&#x2018;" horiz-adv-x="192" 
d="M150 698l-28 -179q-2 -12 -14 -12h-59q-11 0 -10 12l36 180q3 11 16 11h48q13 0 11 -12z" />
    <glyph glyph-name="quoteright" unicode="&#x2019;" horiz-adv-x="192" 
d="M40 518l29 180q1 12 13 12h59q11 0 10 -12l-36 -180q-2 -11 -15 -11h-49q-13 0 -11 11z" />
    <glyph glyph-name="quotesinglbase" unicode="&#x201a;" horiz-adv-x="192" 
d="M37 -112l28 179q1 12 14 12h59q12 0 10 -12l-36 -180q-3 -11 -16 -11h-48q-12 0 -11 12z" />
    <glyph glyph-name="quotedblleft" unicode="&#x201c;" horiz-adv-x="386" 
d="M148 698l-28 -179q-2 -12 -14 -12h-59q-11 0 -10 12l36 180q2 11 15 11h49q13 0 11 -12zM342 699l-28 -180q-2 -12 -14 -12h-59q-11 0 -10 12l36 180q2 11 16 11h48q13 0 11 -11z" />
    <glyph glyph-name="quotedblright" unicode="&#x201d;" horiz-adv-x="388" 
d="M233 518l28 180q1 12 14 12h59q12 0 10 -12l-36 -180q-2 -11 -15 -11h-49q-13 0 -11 11zM39 518l28 180q1 12 14 12h59q12 0 9 -12l-35 -180q-2 -11 -16 -11h-48q-13 0 -11 11z" />
    <glyph glyph-name="quotedblbase" unicode="&#x201e;" horiz-adv-x="386" 
d="M231 -112l29 179q2 12 13 12h59q12 0 10 -12l-36 -180q-2 -11 -15 -11h-49q-12 0 -11 12zM37 -113l28 180q1 12 14 12h59q12 0 10 -12l-36 -180q-2 -11 -16 -11h-48q-13 0 -11 11z" />
    <glyph glyph-name="dagger" unicode="&#x2020;" horiz-adv-x="381" 
d="M152 470v237q0 13 13 13h51q13 0 13 -13v-237h113q12 0 12 -13v-50q0 -14 -12 -14h-113v-564q0 -13 -13 -13h-51q-13 0 -13 13v564h-113q-12 0 -12 14v50q0 13 12 13h113z" />
    <glyph glyph-name="daggerdbl" unicode="&#x2021;" horiz-adv-x="505" 
d="M211 164v207h-172q-12 0 -12 13v51q0 13 12 13h172v259q0 13 13 13h51q13 0 13 -13v-259h178q13 0 13 -13v-51q0 -13 -13 -13h-178v-207h178q13 0 13 -13v-50q0 -14 -13 -14h-178v-258q0 -13 -13 -13h-51q-13 0 -13 13v258h-172q-12 0 -12 14v50q0 13 12 13h172z" />
    <glyph glyph-name="bullet" unicode="&#x2022;" horiz-adv-x="201" 
d="M52 232q-19 20 -19 48t19 47q20 20 49 20t48 -20q19 -19 19 -47t-19 -48q-19 -19 -48 -19t-49 19z" />
    <glyph glyph-name="ellipsis" unicode="&#x2026;" horiz-adv-x="845" 
d="M35 46q0 23 16 39.5t39 16.5q24 0 40.5 -16.5t16.5 -39.5q0 -24 -16.5 -40t-40.5 -16q-23 0 -39 16t-16 40zM364 46q0 23 16 39.5t40 16.5q23 0 39.5 -16.5t16.5 -39.5q0 -24 -16.5 -40t-39.5 -16q-24 0 -40 16t-16 40zM699 46q0 23 16 39.5t39 16.5q24 0 40.5 -16.5
t16.5 -39.5q0 -24 -16.5 -40t-40.5 -16q-23 0 -39 16t-16 40z" />
    <glyph glyph-name="perthousand" unicode="&#x2030;" horiz-adv-x="1115" 
d="M185 710q61 0 105 -44q45 -44 45 -106q0 -61 -44 -107q-44 -44 -106 -44t-106 44q-44 46 -44 107q0 62 44 106t106 44zM97 559q0 -37 24.5 -61.5t62.5 -24.5q37 -3 63 24.5t26 61.5t-26 63q-39 42 -96.5 18.5t-53.5 -81.5zM433 141q0 61 44 105q45 45 107 45t106 -44
q45 -43 45 -106q0 -62 -45 -107q-44 -44 -106 -44q-61 0 -107 44q-44 46 -44 107zM496 140q0 -37 24.5 -61.5t62.5 -24.5t63.5 24.5t25.5 61.5q0 38 -26 63.5t-63 25.5t-62 -25.5t-25 -63.5zM780 141q0 61 44 105q44 45 106 45t106 -44q45 -44 45 -106t-45 -107
q-44 -44 -106 -44t-106 44q-44 46 -44 107zM929 54q38 0 63.5 24.5t25.5 61.5q2 28 -14.5 50.5t-40.5 32t-51 5t-45 -24.5q-24 -25 -24 -63t24.5 -62t61.5 -24zM160 13l387 674q7 13 17 13h46q16 0 10 -13l-388 -674q-6 -13 -17 -13h-46q-16 0 -9 13z" />
    <glyph glyph-name="guilsinglleft" unicode="&#x2039;" horiz-adv-x="294" 
d="M110 229l139 -212q3 -5 -0.5 -9t-10.5 -4h-55q-13 0 -20 13l-132 201l-1 2q-2 3 -3 9t3 10l133 201q7 13 19 13h54q8 0 11.5 -4t0.5 -9z" />
    <glyph glyph-name="guilsinglright" unicode="&#x203a;" horiz-adv-x="294" 
d="M45 17l139 212l-138 211q-3 5 0.5 9t11.5 4h54q12 0 19 -13l133 -201q6 -12 1 -18l-2 -3l-132 -201q-7 -13 -20 -13h-55q-18 0 -11 13z" />
    <glyph glyph-name="fraction" unicode="&#x2044;" horiz-adv-x="544" 
d="M42 13l387 674q7 13 18 13h46q16 0 9 -13l-387 -674q-7 -13 -17 -13h-46q-17 0 -10 13z" />
    <glyph glyph-name="franc" unicode="&#x20a3;" horiz-adv-x="561" 
d="M179 124v-111q0 -13 -13 -13h-62q-13 0 -13 13v111h-51q-13 0 -13 13v27q0 13 13 13h51v502q0 21 21 21h423q12 0 12 -13v-61q0 -13 -12 -13h-356v-230h311q12 0 12 -13v-59q0 -13 -12 -13h-311v-121h132q13 0 13 -13v-27q0 -13 -13 -13h-132z" />
    <glyph glyph-name="lira" unicode="&#x20a4;" horiz-adv-x="522" 
d="M26 350l77 27v65l-59 -21q-11 -5 -16 8l-10 28q-4 12 8 16l77 27v187q0 13 13 13h46q13 0 13 -13v-161l158 56q11 5 16 -8l9 -27q3 -12 -8 -17l-175 -62v-65l158 56q11 4 16 -8l9 -27q5 -12 -8 -17l-175 -62v-265q111 8 185 86q75 80 78 186q1 13 13 13h46q14 0 13 -13
q-9 -152 -120 -252q-110 -100 -262 -100h-11q-14 0 -14 16v303l-58 -20q-11 -5 -16 7l-11 28q-4 11 8 16z" />
    <glyph glyph-name="Euro" unicode="&#x20ac;" horiz-adv-x="536" 
d="M498 91l21 -41q7 -12 -9 -22q-67 -38 -148 -38q-121 0 -194.5 72t-92.5 200h-64q-12 0 -12 13v27q0 13 12 13h58q-1 37 0 74h-58q-12 0 -12 13v27q0 13 12 13l64 1q23 129 97 198t190 69q78 0 149 -39q13 -7 8 -18l-21 -43q-7 -13 -19 -5q-58 32 -117 32
q-87 0 -140.5 -52t-69.5 -143h299q12 0 12 -13v-27q0 -13 -12 -13h-308q-3 -36 0 -74h308q12 0 12 -13v-27q0 -13 -12 -13l-300 1q35 -200 211 -200q57 0 116 32q13 9 20 -4z" />
    <glyph glyph-name="uni2113" unicode="&#x2113;" horiz-adv-x="352" 
d="M31 257l-13 17q-9 11 3 23l74 78v184q0 79 31.5 127t88.5 48q49 0 80 -32.5t28 -83.5q-1 -23 -12 -58q-3 -11 -12 -28q-22 -43 -30 -53q-33 -43 -38 -49l-20 -24l-23 -25l-21 -24v-174q0 -65 14.5 -97.5t52.5 -32.5q34 -1 75 33q12 10 18 -2l10 -31q4 -10 -4 -21
q-49 -43 -112 -43q-64 0 -95 48t-31 132v129l-42 -43q-10 -11 -22 2zM266 607q7 64 -43 64q-38 0 -48 -43q-8 -33 -8 -87v-101l45 52q49 63 54 115z" />
    <glyph glyph-name="trademark" unicode="&#x2122;" horiz-adv-x="883" 
d="M215 285h-39q-10 0 -10 11v346h-127q-9 0 -9 10v39q0 10 9 10h315q11 0 11 -10v-39q0 -10 -11 -10h-129v-346q0 -11 -10 -11zM609 340h-26q-5 0 -9 7l-116 223v-274q0 -11 -11 -11h-38q-11 0 -11 11v393q0 11 11 11h38q9 0 14 -9l134 -269l135 269q4 9 13 9h38
q11 0 11 -11v-394q0 -10 -10 -10h-39q-10 0 -10 10v275l-115 -223q-3 -7 -9 -7z" />
    <glyph glyph-name="uni2126" unicode="&#x2126;" horiz-adv-x="788" 
d="M309 0h-236q-13 0 -13 13v48q0 11 13 11h159q-93 49 -142.5 127.5t-49.5 179.5q0 140 99 245q101 105 254 105q155 0 255 -105q100 -104 100 -245q-1 -97 -52 -178t-144 -129h161q13 0 13 -13v-46q0 -13 -13 -13h-238v69q199 108 200 299q2 121 -79 204q-81 85 -203 85
q-121 0 -201 -84q-79 -83 -80 -203q-1 -101 47.5 -174t149.5 -127v-69z" />
    <glyph glyph-name="estimated" unicode="&#x212e;" horiz-adv-x="578" 
d="M157 247v-121q22 -29 58 -46.5t74 -17.5q102 0 160 82q11 12 21 6l27 -13q12 -7 3 -20q-33 -52 -89 -82t-122 -30q-104 0 -179 81q-75 82 -75 189q0 113 72 192q72 80 182 80q115 0 185 -87q72 -87 69 -196q0 -7 -5 -12t-11 -5h-370zM157 303h262v132q-47 54 -130 54
q-81 0 -132 -54v-132z" />
    <glyph glyph-name="partialdiff" unicode="&#x2202;" horiz-adv-x="554" 
d="M329 710q271 0 160 -425q-30 -115 -92 -200q-69 -95 -180 -95q-81 -1 -134 56q-53 58 -45 159q8 129 84 214q78 85 193 69q40 -8 76.5 -32t54.5 -54q9 69 5.5 121.5t-37 83.5t-97.5 31q-43 0 -92 -21q-13 -6 -18 6l-17 40q-5 14 7 18q66 29 132 29zM221 65q75 0 127 72
q53 74 75 175q-9 40 -37.5 66.5t-69.5 34.5q-86 18 -144 -48q-58 -65 -62 -153q-3 -66 26 -106.5t85 -40.5z" />
    <glyph glyph-name="uni2206" unicode="&#x2206;" horiz-adv-x="620" 
d="M111 76h400l-199 586h-3zM20 13v18l230 703q6 16 20 16h81q14 0 20 -16l229 -703v-18q0 -13 -13 -13h-554q-13 0 -13 13z" />
    <glyph glyph-name="product" unicode="&#x220f;" horiz-adv-x="700" 
d="M104 700h492q13 0 13 -13v-802q0 -13 -13 -13h-51q-13 0 -13 13v738h-364v-738q0 -13 -14 -13h-50q-13 0 -13 13v802q0 13 13 13z" />
    <glyph glyph-name="summation" unicode="&#x2211;" horiz-adv-x="677" 
d="M45 -214v27q0 14 9 23l339 398l-339 400q-9 9 -9 25v25q0 16 16 16h556q15 0 15 -14v-51q0 -13 -15 -13h-447l313 -368q17 -18 -3 -39l-310 -366h447q15 0 15 -14v-51q0 -14 -15 -14h-556q-16 0 -16 16z" />
    <glyph glyph-name="minus" unicode="&#x2212;" horiz-adv-x="574" 
d="M85 316h404q13 0 13 -13v-61q0 -13 -13 -13h-404q-12 0 -12 13v61q0 13 12 13z" />
    <glyph glyph-name="uni2215" unicode="&#x2215;" horiz-adv-x="544" 
d="M42 13l387 674q7 13 18 13h46q16 0 9 -13l-387 -674q-7 -13 -17 -13h-46q-17 0 -10 13z" />
    <glyph glyph-name="uni2219" unicode="&#x2219;" horiz-adv-x="174" 
d="M87 390q23 0 38 -15t15 -38q3 -34 -32.5 -48t-58.5 10q-24 23 -10 58.5t48 32.5z" />
    <glyph glyph-name="radical" unicode="&#x221a;" horiz-adv-x="495" 
d="M291 -12h-63q-11 0 -15 13l-5 13q-2 5 -7 18.5t-12.5 33l-12.5 32.5q-37 102 -75 196l-5 13l-38 -23q-12 -8 -21 5l-21 43q-6 12 5 20l104 61q16 7 22 -9l105 -280l133 588q4 16 17 16h51q15 0 11 -16l-160 -710q-2 -14 -13 -14z" />
    <glyph glyph-name="infinity" unicode="&#x221e;" horiz-adv-x="742" 
d="M636 293q0 44 -29 74.5t-76 30.5t-79.5 -30.5t-38.5 -74.5q5 -50 39.5 -79.5t78.5 -29.5q48 0 76.5 30t28.5 79zM330 293q-5 47 -38.5 76t-77.5 29q-51 0 -79.5 -30.5t-28.5 -75.5q0 -48 29 -78t78 -30q47 0 80.5 32t36.5 77zM368 367q1 -4 4 -4l4 4q21 43 62 72.5
t97 29.5q72 0 122 -50q51 -49 51 -126q0 -79 -48 -130q-47 -50 -122 -50q-53 0 -98 29.5t-64 74.5q-1 4 -4 4l-4 -4q-22 -46 -65 -75t-93 -29q-77 0 -126 49t-49 130q0 78 49 127q50 50 124 50q56 0 98.5 -28t61.5 -74z" />
    <glyph glyph-name="integral" unicode="&#x222b;" horiz-adv-x="285" 
d="M84 -98v708q0 82 53 111q52 30 132 -11q13 -6 8 -17l-9 -21q-4 -12 -17 -7q-91 39 -91 -51v-709q0 -82 -53 -111t-133 12q-11 7 -7 17l8 21q4 13 17 7q44 -19 68 -5.5t24 56.5z" />
    <glyph glyph-name="approxequal" unicode="&#x2248;" horiz-adv-x="526" 
d="M79 210q-7 -12 -18 -3l-29 21q-11 8 -4 18q62 100 144 96q32 -2 104 -34q74 -33 103 -33q20 0 33 12l12 11l23 29q9 11 18 2l29 -21q12 -8 3 -18l-24 -30q-10 -17 -26 -28q-34 -29 -70 -29q-35 0 -105 33q-69 34 -101 34q-53 0 -92 -60zM79 410q-8 -11 -18 -2l-29 21
q-11 8 -4 18q63 101 144 96q32 -2 104 -34q74 -33 103 -33q20 0 33 12l12 11l23 29q9 10 18 2l29 -21q10 -7 3 -18l-24 -30q-10 -17 -26 -28q-34 -29 -70 -29q-35 0 -105 33t-101 33q-55 0 -92 -60z" />
    <glyph glyph-name="notequal" unicode="&#x2260;" horiz-adv-x="548" 
d="M250 163l-56 -123q-6 -13 -17 -13h-51q-16 0 -9 13l56 123h-117q-13 0 -13 14v46q0 12 13 12h150l59 133h-209q-13 0 -13 13v47q0 12 13 12h242l57 124q6 13 17 13h51q15 0 9 -13l-56 -124h117q12 0 12 -13v-46q0 -13 -12 -13h-150l-60 -133h210q12 0 12 -13v-45
q0 -14 -12 -14h-243z" />
    <glyph glyph-name="lessequal" unicode="&#x2264;" horiz-adv-x="458" 
d="M56 72h333q13 0 13 -12v-47q0 -13 -13 -13h-333q-13 0 -13 13v46q0 13 13 13zM390 543l-263 -112l263 -111q12 -4 12 -17v-53q0 -17 -12 -11l-335 146q-12 6 -12 17v60q0 10 12 16l335 146q12 4 12 -11v-54q0 -11 -12 -16z" />
    <glyph glyph-name="greaterequal" unicode="&#x2265;" horiz-adv-x="458" 
d="M69 72h333q13 0 13 -13v-46q0 -13 -13 -13h-333q-13 0 -13 13v47q0 12 13 12zM331 431l-263 112q-12 5 -12 16v54q0 15 12 11l334 -146q13 -6 13 -16v-60q0 -11 -12 -17l-335 -146q-12 -6 -12 11v53q0 13 12 17z" />
    <glyph glyph-name="lozenge" unicode="&#x25ca;" horiz-adv-x="472" 
d="M105 350l129 -269h3l131 269l-131 268h-3zM177 13l-148 316q-9 22 1 42l147 316q6 13 16 13h85q10 0 16 -13l149 -316q11 -21 0 -42l-149 -316q-6 -13 -16 -13h-85q-12 0 -16 13z" />
    <glyph glyph-name="uniF8FF" unicode="&#xf8ff;" horiz-adv-x="500" 
 />
    <glyph glyph-name="_1" horiz-adv-x="0" 
 />
    <glyph glyph-name="CR.001" horiz-adv-x="333" 
 />
    <glyph glyph-name="_0012" horiz-adv-x="0" 
 />
    <glyph glyph-name="zero.numr" horiz-adv-x="304" 
d="M152 753q52 0 77 -46q26 -46 26 -108q0 -66 -26.5 -109.5t-76.5 -43.5q-51 0 -76.5 42.5t-25.5 110.5t25.5 111t76.5 43zM97 599q0 -102 55 -102t55 102t-55 103q-55 0 -55 -103z" />
    <glyph glyph-name="one.numr" horiz-adv-x="247" 
d="M58 737l85 13h9q9 0 9 -9v-277q0 -9 -9 -9h-37q-9 0 -9 9v226l-41 -6q-7 -1 -9 7l-5 36q0 10 7 10z" />
    <glyph glyph-name="two.numr" horiz-adv-x="301" 
d="M135 506h97q9 0 9 -8v-36q0 -9 -9 -9h-177q-9 0 -9 9v9q0 7 4 10l72 75q50 54 50 95q0 50 -44 50q-18 0 -46 -15q-10 -6 -14 3l-18 27q-5 8 3 13q39 24 80 24q42 0 67.5 -26t25.5 -68q0 -40 -21 -73.5t-70 -79.5z" />
    <glyph glyph-name="three.numr" horiz-adv-x="276" 
d="M111 585q-6 0 -6 6v28q0 7 6 7q59 0 59 40q0 35 -38 35q-16 0 -46 -14q-8 -5 -14 3l-16 26q-4 9 3 13q41 24 78 24t60.5 -21.5t23.5 -54.5q0 -49 -51 -71q56 -18 56 -72q0 -40 -26 -64t-70 -24q-38 0 -79 24q-9 6 -3 13l18 27q5 9 14 3q27 -15 48 -15q48 0 48 41
q0 21 -17.5 33.5t-47.5 12.5z" />
    <glyph glyph-name="four.numr" horiz-adv-x="313" 
d="M170 517h-112q-9 0 -9 9v26l72 188q3 10 14 10h32q10 0 6 -10l-67 -176h65v45q0 9 9 9h30q9 0 9 -9v-45h26q9 0 9 -9v-29q0 -9 -9 -9h-26v-53q0 -9 -9 -9h-32q-8 0 -8 9v53z" />
    <glyph glyph-name="five.numr" horiz-adv-x="295" 
d="M76 578l-9 7v159q0 6 5 6h143q8 0 8 -8v-34q0 -7 -8 -7h-99v-69q20 7 41 7q39 0 60.5 -24.5t21.5 -66.5q0 -43 -27.5 -71.5t-71.5 -28.5q-50 0 -82 25q-8 8 -4 12l17 29q6 8 13 2q25 -17 53 -17q24 0 39 14.5t15 35.5q0 46 -49 46q-30 0 -66 -17z" />
    <glyph glyph-name="six.numr" horiz-adv-x="289" 
d="M100 618q32 23 57 23q37 0 59.5 -25.5t22.5 -67.5q0 -43 -26.5 -72.5t-67.5 -29.5q-43 0 -69 36t-26 97v14q0 79 27 119.5t75 40.5q44 0 78 -27q4 -4 3 -10l-17 -28q-4 -6 -11 -2q-23 17 -51 17q-50 0 -54 -85zM100 571v-10q1 -27 14 -46.5t33 -19.5q23 0 34.5 15
t11.5 38q0 22 -11.5 35t-32.5 13t-49 -25z" />
    <glyph glyph-name="seven.numr" horiz-adv-x="285" 
d="M236 705l-117 -244q-1 -6 -9 -6h-39q-8 0 -5 6l114 241h-113q-6 0 -6 6v36q0 6 6 6h161q8 0 8 -7v-38z" />
    <glyph glyph-name="eight.numr" horiz-adv-x="293" 
d="M59 676q0 33 24.5 55t62.5 22t63 -22t25 -55q0 -46 -47 -66q56 -21 56 -77q0 -38 -27.5 -62.5t-69.5 -24.5t-69 24.5t-27 62.5q0 56 55 77q-46 19 -46 66zM108 671q0 -16 11.5 -28t26.5 -12t27 12t12 28q2 21 -18.5 30t-40.5 0t-18 -30zM100 536q-2 -26 22 -36.5t48 0
t22 36.5q0 18 -13.5 31t-32.5 13t-32.5 -13t-13.5 -31z" />
    <glyph glyph-name="nine.numr" horiz-adv-x="289" 
d="M189 581q-32 -23 -58 -23q-36 0 -58.5 25.5t-22.5 67.5q0 43 26 72.5t67 29.5q43 0 69.5 -35.5t26.5 -97.5v-14q0 -79 -27 -119.5t-75 -40.5q-43 0 -79 27q-6 5 -2 10l17 28q4 6 11 2q22 -17 50 -17q51 0 55 85zM189 628v10q-1 27 -14 46.5t-33 19.5q-23 0 -34.5 -15
t-11.5 -38q0 -48 43 -48q22 0 50 25z" />
    <glyph glyph-name="zero.dnom" horiz-adv-x="304" 
d="M152 304q52 0 77 -46q26 -46 26 -108q0 -66 -26.5 -109.5t-76.5 -43.5q-51 0 -76.5 42.5t-25.5 110.5t25.5 111t76.5 43zM97 150q0 -102 55 -102t55 102t-55 103q-55 0 -55 -103z" />
    <glyph glyph-name="one.dnom" horiz-adv-x="247" 
d="M58 282l85 13h9q9 0 9 -9v-277q0 -9 -9 -9h-37q-9 0 -9 9v226l-41 -6q-7 -1 -9 7l-5 36q0 10 7 10z" />
    <glyph glyph-name="two.dnom" horiz-adv-x="301" 
d="M135 53h97q9 0 9 -8v-36q0 -9 -9 -9h-177q-9 0 -9 9v9q0 7 4 10l72 75q50 54 50 95q0 50 -44 50q-18 0 -46 -15q-10 -6 -14 3l-18 27q-5 8 3 13q39 24 80 24q42 0 67.5 -26t25.5 -68q0 -40 -21 -73.5t-70 -79.5z" />
    <glyph glyph-name="three.dnom" horiz-adv-x="276" 
d="M111 136q-6 0 -6 6v28q0 7 6 7q59 0 59 40q0 35 -38 35q-16 0 -46 -14q-8 -5 -14 3l-16 26q-4 9 3 13q41 24 78 24t60.5 -21.5t23.5 -54.5q0 -48 -51 -71q56 -18 56 -72q0 -40 -26 -64t-70 -24q-38 0 -79 24q-9 6 -3 13l18 27q5 9 14 3q27 -15 48 -15q48 0 48 41
q0 22 -17.5 34t-47.5 12z" />
    <glyph glyph-name="four.dnom" horiz-adv-x="313" 
d="M170 62h-112q-9 0 -9 9v26l72 188q3 10 14 10h32q10 0 6 -10l-67 -176h65v45q0 9 9 9h30q9 0 9 -9v-45h26q9 0 9 -9v-29q0 -9 -9 -9h-26v-53q0 -9 -9 -9h-32q-8 0 -8 9v53z" />
    <glyph glyph-name="five.dnom" horiz-adv-x="295" 
d="M76 127l-9 7v159q0 6 5 6h143q8 0 8 -8v-34q0 -7 -8 -7h-99v-69q20 7 41 7q39 0 60.5 -24.5t21.5 -66.5q0 -43 -27.5 -71.5t-71.5 -28.5q-50 0 -82 25q-8 6 -4 12l17 29q6 8 13 2q25 -17 53 -17q24 0 39 14.5t15 35.5q0 46 -49 46q-30 0 -66 -17z" />
    <glyph glyph-name="six.dnom" horiz-adv-x="289" 
d="M100 169q32 23 57 23q37 0 59.5 -25.5t22.5 -67.5q0 -43 -26.5 -72.5t-67.5 -29.5q-43 0 -69 36t-26 97v14q0 79 27 119.5t75 40.5q44 0 78 -27q4 -4 3 -10l-17 -28q-4 -6 -11 -2q-23 17 -51 17q-50 0 -54 -85zM100 122v-10q1 -27 14 -46.5t33 -19.5q23 0 34.5 15
t11.5 38q0 22 -11.5 35t-32.5 13t-49 -25z" />
    <glyph glyph-name="seven.dnom" horiz-adv-x="285" 
d="M236 250l-117 -244q-1 -6 -9 -6h-39q-8 0 -5 6l114 241h-113q-6 0 -6 6v36q0 6 6 6h161q8 0 8 -7v-38z" />
    <glyph glyph-name="eight.dnom" horiz-adv-x="293" 
d="M59 227q0 33 24.5 55t62.5 22t63 -22t25 -55q0 -46 -47 -66q56 -21 56 -77q0 -38 -27.5 -62.5t-69.5 -24.5t-69 24.5t-27 62.5q0 56 55 77q-46 19 -46 66zM108 222q0 -16 11.5 -28t26.5 -12t27 12t12 28q2 21 -18.5 30t-40.5 0t-18 -30zM100 87q-2 -26 22 -36.5t48 0
t22 36.5q0 18 -13.5 31t-32.5 13t-32.5 -13t-13.5 -31z" />
    <glyph glyph-name="nine.dnom" horiz-adv-x="289" 
d="M189 132q-32 -23 -58 -23q-36 0 -58.5 25.5t-22.5 67.5q0 43 26 72.5t67 29.5q43 0 69.5 -35.5t26.5 -97.5v-14q0 -79 -27 -119.5t-75 -40.5q-43 0 -79 27q-6 5 -2 10l17 28q4 6 11 2q22 -17 50 -17q51 0 55 85zM189 179v10q-1 27 -14 46.5t-33 19.5q-23 0 -34.5 -15
t-11.5 -38q0 -48 43 -48q22 0 50 25z" />
    <glyph glyph-name="i.latnTRK" horiz-adv-x="273" 
d="M167 0h-61q-13 0 -13 13v474q0 13 13 13h61q13 0 13 -13v-474q0 -13 -13 -13zM81 701q0 24 16 40.5t39 16.5q24 0 40.5 -16.5t16.5 -40.5q0 -23 -16.5 -39t-40.5 -16q-23 0 -39 16t-16 39z" />
    <glyph glyph-name="a.alt" horiz-adv-x="626" 
d="M460 250q0 76 -49 125q-48 51 -120 51q-71 0 -121 -51q-48 -51 -48 -125t48 -125q49 -51 121 -51t120 51q49 50 49 125zM472 500h61q14 0 14 -13v-474q0 -13 -14 -13h-61q-13 0 -13 13v84q-68 -107 -188 -107q-101 0 -169 75q-67 76 -67 185q0 110 67 184q67 76 169 76
q120 0 188 -107v84q0 13 13 13z" />
    <glyph glyph-name="agrave.alt" horiz-adv-x="626" 
d="M460 250q0 76 -49 125q-48 51 -120 51q-71 0 -121 -51q-48 -51 -48 -125t48 -125q49 -51 121 -51t120 51q49 50 49 125zM472 500h61q14 0 14 -13v-474q0 -13 -14 -13h-61q-13 0 -13 13v84q-68 -107 -188 -107q-101 0 -169 75q-67 76 -67 185q0 110 67 184q67 76 169 76
q120 0 188 -107v84q0 13 13 13zM342 570l-33 -15q-12 -4 -19 6l-94 155q-7 13 6 16l50 17q12 4 18 -8l77 -154q6 -12 -5 -17z" />
    <glyph glyph-name="aacute.alt" horiz-adv-x="626" 
d="M460 250q0 76 -49 125q-48 51 -120 51q-71 0 -121 -51q-48 -51 -48 -125t48 -125q49 -51 121 -51t120 51q49 50 49 125zM472 500h61q14 0 14 -13v-474q0 -13 -14 -13h-61q-13 0 -13 13v84q-68 -107 -188 -107q-101 0 -169 75q-67 76 -67 185q0 110 67 184q67 76 169 76
q120 0 188 -107v84q0 13 13 13zM301 555l-33 15q-11 6 -5 17l77 154q6 12 18 8l50 -17q12 -3 5 -16l-93 -155q-7 -10 -19 -6z" />
    <glyph glyph-name="acircumflex.alt" horiz-adv-x="626" 
d="M460 250q0 76 -49 125q-48 51 -120 51q-71 0 -121 -51q-48 -51 -48 -125t48 -125q49 -51 121 -51t120 51q49 50 49 125zM472 500h61q14 0 14 -13v-474q0 -13 -14 -13h-61q-13 0 -13 13v84q-68 -107 -188 -107q-101 0 -169 75q-67 76 -67 185q0 110 67 184q67 76 169 76
q120 0 188 -107v84q0 13 13 13zM285 745h38q15 0 25 -13l117 -125q9 -9 -1 -20l-19 -23q-8 -9 -21 1l-120 118l-121 -118q-11 -11 -20 -1l-19 23q-10 11 -1 20l117 125q10 13 25 13z" />
    <glyph glyph-name="atilde.alt" horiz-adv-x="626" 
d="M460 250q0 76 -49 125q-48 51 -120 51q-71 0 -121 -51q-48 -51 -48 -125t48 -125q49 -51 121 -51t120 51q49 50 49 125zM472 500h61q14 0 14 -13v-474q0 -13 -14 -13h-61q-13 0 -13 13v84q-68 -107 -188 -107q-101 0 -169 75q-67 76 -67 185q0 110 67 184q67 76 169 76
q120 0 188 -107v84q0 13 13 13zM372 670q37 0 83 58q11 11 15 -5l10 -40q4 -10 -4 -20q-21 -25 -49 -41.5t-51 -16.5q-33 0 -79 32q-44 32 -66 32q-35 0 -83 -57q-10 -11 -14 4l-11 40q-4 12 4 20q49 58 101 58q35 0 79 -32t65 -32z" />
    <glyph glyph-name="adieresis.alt" horiz-adv-x="626" 
d="M460 250q0 76 -49 125q-48 51 -120 51q-71 0 -121 -51q-48 -51 -48 -125t48 -125q49 -51 121 -51t120 51q49 50 49 125zM472 500h61q14 0 14 -13v-474q0 -13 -14 -13h-61q-13 0 -13 13v84q-68 -107 -188 -107q-101 0 -169 75q-67 76 -67 185q0 110 67 184q67 76 169 76
q120 0 188 -107v84q0 13 13 13zM147 643q0 23 15.5 39t38.5 16t38.5 -16t15.5 -39q0 -22 -15.5 -37.5t-38.5 -15.5t-38.5 15.5t-15.5 37.5zM408 698q23 0 39 -16t16 -39q0 -22 -16 -37.5t-39 -15.5q-22 0 -37.5 15t-15.5 38t15.5 39t37.5 16z" />
    <glyph glyph-name="aring.alt" horiz-adv-x="626" 
d="M460 250q0 76 -49 125q-48 51 -120 51q-71 0 -121 -51q-48 -51 -48 -125t48 -125q49 -51 121 -51t120 51q49 50 49 125zM472 500h61q14 0 14 -13v-474q0 -13 -14 -13h-61q-13 0 -13 13v84q-68 -107 -188 -107q-101 0 -169 75q-67 76 -67 185q0 110 67 184q67 76 169 76
q120 0 188 -107v84q0 13 13 13zM303 782q47 0 80 -33t33 -80t-33 -80t-80 -33q-46 0 -79 33q-33 35 -33 80q0 46 33 79q33 34 79 34zM264 708q-16 -16 -16 -39t16 -39t39 -16t39 16q17 16 17 39t-17 39q-16 16 -39 16t-39 -16z" />
    <glyph glyph-name="amacron.alt" horiz-adv-x="626" 
d="M460 250q0 76 -49 125q-48 51 -120 51q-71 0 -121 -51q-48 -51 -48 -125t48 -125q49 -51 121 -51t120 51q49 50 49 125zM472 500h61q14 0 14 -13v-474q0 -13 -14 -13h-61q-13 0 -13 13v84q-68 -107 -188 -107q-101 0 -169 75q-67 76 -67 185q0 110 67 184q67 76 169 76
q120 0 188 -107v84q0 13 13 13zM158 637v48q0 13 13 13h269q13 0 13 -13v-48q0 -13 -13 -13h-269q-13 0 -13 13z" />
    <glyph glyph-name="abreve.alt" horiz-adv-x="626" 
d="M460 250q0 76 -49 125q-48 51 -120 51q-71 0 -121 -51q-48 -51 -48 -125t48 -125q49 -51 121 -51t120 51q49 50 49 125zM472 500h61q14 0 14 -13v-474q0 -13 -14 -13h-61q-13 0 -13 13v84q-68 -107 -188 -107q-101 0 -169 75q-67 76 -67 185q0 110 67 184q67 76 169 76
q120 0 188 -107v84q0 13 13 13zM465 718q-3 -63 -45.5 -99.5t-110.5 -36.5q-67 0 -109.5 36.5t-46.5 99.5q0 9 10 10l41 8q10 1 10 -9q2 -35 27 -57.5t68 -22.5t68 22.5t27 57.5q1 10 10 9l41 -8q10 -3 10 -10z" />
    <glyph glyph-name="aogonek.alt" horiz-adv-x="632" 
d="M483 7l50 -7q-32 -20 -38 -56t18 -60.5t67 -14.5q9 2 11 -8l1 -41q1 -10 -8 -12q-68 -11 -110 24q-40 34 -39 87q3 52 48 88zM460 250q0 76 -49 125q-48 51 -120 51q-71 0 -121 -51q-48 -51 -48 -125t48 -125q49 -51 121 -51t120 51q49 50 49 125zM472 500h61
q14 0 14 -13v-474q0 -13 -14 -13h-61q-13 0 -13 13v84q-68 -107 -188 -107q-101 0 -169 75q-67 76 -67 185q0 110 67 184q67 76 169 76q120 0 188 -107v84q0 13 13 13z" />
    </font>
</defs>
</svg>
